G04 #@! TF.FileFunction,Copper,L2,Bot,Signal*
%FSLAX46Y46*%
G04 Gerber Fmt 4.6, Leading zero omitted, Abs format (unit mm)*
G04 Created by KiCad (PCBNEW 4.0.2-stable) date Tuesday, December 06, 2016 'PMt' 03:41:46 PM*
%MOMM*%
G01*
G04 APERTURE LIST*
%ADD10C,0.100000*%
%ADD11C,1.699260*%
%ADD12R,1.699260X1.699260*%
%ADD13C,1.998980*%
%ADD14C,1.879600*%
%ADD15C,1.524000*%
%ADD16C,3.048000*%
%ADD17C,1.800000*%
%ADD18C,3.810000*%
%ADD19C,0.250000*%
%ADD20C,0.254000*%
G04 APERTURE END LIST*
D10*
D11*
X160839480Y-125502540D03*
D12*
X170999480Y-125502540D03*
D11*
X160839480Y-122502540D03*
D12*
X170999480Y-122502540D03*
D11*
X160839480Y-87502540D03*
D12*
X170999480Y-87502540D03*
D11*
X160839480Y-84002540D03*
D12*
X170999480Y-84002540D03*
D11*
X160839480Y-115502540D03*
D12*
X170999480Y-115502540D03*
D11*
X160839480Y-112002540D03*
D12*
X170999480Y-112002540D03*
D13*
X171000000Y-119000000D03*
X160840000Y-119000000D03*
X171000000Y-101500000D03*
X160840000Y-101500000D03*
X171000000Y-98000000D03*
X160840000Y-98000000D03*
X171000000Y-94500000D03*
X160840000Y-94500000D03*
X171000000Y-91000000D03*
X160840000Y-91000000D03*
X171000000Y-105000000D03*
X160840000Y-105000000D03*
X171000000Y-108500000D03*
X160840000Y-108500000D03*
D14*
X175260000Y-104013000D03*
X177800000Y-102743000D03*
X175260000Y-101473000D03*
X177800000Y-100203000D03*
X175260000Y-98933000D03*
X177800000Y-97663000D03*
D15*
X167501100Y-128463600D03*
X164961100Y-128463600D03*
X162421100Y-128463600D03*
X154801100Y-128463600D03*
X157341100Y-128463600D03*
X159881100Y-128463600D03*
X149721100Y-128463600D03*
X147181100Y-128463600D03*
X144641100Y-128463600D03*
X139561100Y-128463600D03*
X137021100Y-128463600D03*
X167501100Y-80203600D03*
X164961100Y-80203600D03*
X162421100Y-80203600D03*
X159881100Y-80203600D03*
X157341100Y-80203600D03*
X154801100Y-80203600D03*
X152261100Y-80203600D03*
X149721100Y-80203600D03*
X145657100Y-80203600D03*
X143117100Y-80203600D03*
X140577100Y-80203600D03*
X138037100Y-80203600D03*
X135497100Y-80203600D03*
X132957100Y-80203600D03*
X130417100Y-80203600D03*
X127877100Y-80203600D03*
X142101100Y-128463600D03*
X125337100Y-80203600D03*
X122797100Y-80203600D03*
X134481100Y-128463600D03*
X131941100Y-128463600D03*
D16*
X190184800Y-127048400D03*
D17*
X176184800Y-120548400D03*
X176184800Y-118048400D03*
X176184800Y-115548400D03*
X176184800Y-113048400D03*
X176184800Y-123048400D03*
X176184800Y-125548400D03*
X176184800Y-128048400D03*
D16*
X190184800Y-114048400D03*
D18*
X116674800Y-85932800D03*
D15*
X157149800Y-122732800D03*
X157149800Y-120192800D03*
X157149800Y-117652800D03*
X157149800Y-115112800D03*
X157149800Y-112572800D03*
X157149800Y-110032800D03*
X157149800Y-107492800D03*
X157149800Y-104952800D03*
X157149800Y-102412800D03*
X157149800Y-99872800D03*
X157149800Y-97332800D03*
X157149800Y-94792800D03*
X157149800Y-92252800D03*
X157149800Y-89712800D03*
X157149800Y-87172800D03*
X157149800Y-84632800D03*
D18*
X116674800Y-121432800D03*
D14*
X175209200Y-89281000D03*
X177749200Y-88011000D03*
X175209200Y-86741000D03*
X177749200Y-85471000D03*
X175209200Y-84201000D03*
X177749200Y-82931000D03*
D19*
X160840000Y-101500000D02*
X160840000Y-101948400D01*
X160840000Y-101948400D02*
X159004000Y-103784400D01*
X159004000Y-117164000D02*
X160840000Y-119000000D01*
X159004000Y-103784400D02*
X159004000Y-117164000D01*
X160840000Y-119000000D02*
X160859200Y-119000000D01*
X160859200Y-119000000D02*
X162814000Y-120954800D01*
X162814000Y-123528020D02*
X160839480Y-125502540D01*
X162814000Y-120954800D02*
X162814000Y-123528020D01*
X160840000Y-105000000D02*
X163996940Y-105000000D01*
X163996940Y-105000000D02*
X170999480Y-112002540D01*
X171000000Y-94500000D02*
X173978000Y-94500000D01*
X179832000Y-87553800D02*
X177749200Y-85471000D01*
X179832000Y-88646000D02*
X179832000Y-87553800D01*
X173978000Y-94500000D02*
X179832000Y-88646000D01*
X176184800Y-125548400D02*
X173562000Y-125548400D01*
X166475500Y-126949200D02*
X164961100Y-128463600D01*
X172161200Y-126949200D02*
X166475500Y-126949200D01*
X173562000Y-125548400D02*
X172161200Y-126949200D01*
X157341100Y-128463600D02*
X157341100Y-127572300D01*
X154025600Y-113157000D02*
X157149800Y-110032800D01*
X154025600Y-124256800D02*
X154025600Y-113157000D01*
X157341100Y-127572300D02*
X154025600Y-124256800D01*
X157149800Y-112572800D02*
X157632400Y-112572800D01*
X157632400Y-112572800D02*
X155498800Y-114706400D01*
X155498800Y-114706400D02*
X155498800Y-124081300D01*
X155498800Y-124081300D02*
X159881100Y-128463600D01*
X152400000Y-80695800D02*
X152400000Y-80416400D01*
D20*
G36*
X148537471Y-79411230D02*
X148324343Y-79924500D01*
X148323858Y-80480261D01*
X148536090Y-80993903D01*
X148928730Y-81387229D01*
X149442000Y-81600357D01*
X149997761Y-81600842D01*
X150511403Y-81388610D01*
X150904729Y-80995970D01*
X150991049Y-80788088D01*
X151076090Y-80993903D01*
X151468730Y-81387229D01*
X151982000Y-81600357D01*
X152537761Y-81600842D01*
X153051403Y-81388610D01*
X153444729Y-80995970D01*
X153531049Y-80788088D01*
X153616090Y-80993903D01*
X154008730Y-81387229D01*
X154522000Y-81600357D01*
X155077761Y-81600842D01*
X155591403Y-81388610D01*
X155984729Y-80995970D01*
X156071049Y-80788088D01*
X156156090Y-80993903D01*
X156548730Y-81387229D01*
X157062000Y-81600357D01*
X157617761Y-81600842D01*
X158131403Y-81388610D01*
X158524729Y-80995970D01*
X158611049Y-80788088D01*
X158696090Y-80993903D01*
X159088730Y-81387229D01*
X159602000Y-81600357D01*
X160157761Y-81600842D01*
X160671403Y-81388610D01*
X161064729Y-80995970D01*
X161151049Y-80788088D01*
X161236090Y-80993903D01*
X161628730Y-81387229D01*
X162142000Y-81600357D01*
X162697761Y-81600842D01*
X163211403Y-81388610D01*
X163604729Y-80995970D01*
X163691049Y-80788088D01*
X163776090Y-80993903D01*
X164168730Y-81387229D01*
X164682000Y-81600357D01*
X165237761Y-81600842D01*
X165751403Y-81388610D01*
X166144729Y-80995970D01*
X166231049Y-80788088D01*
X166316090Y-80993903D01*
X166708730Y-81387229D01*
X167222000Y-81600357D01*
X167777761Y-81600842D01*
X168291403Y-81388610D01*
X168684729Y-80995970D01*
X168897857Y-80482700D01*
X168898342Y-79926939D01*
X168686110Y-79413297D01*
X168342813Y-79069400D01*
X180263800Y-79069400D01*
X180263800Y-86910798D01*
X179269416Y-85916414D01*
X179323726Y-85785621D01*
X179324273Y-85159127D01*
X179085029Y-84580113D01*
X178706304Y-84200727D01*
X179083472Y-83824217D01*
X179323726Y-83245621D01*
X179324273Y-82619127D01*
X179085029Y-82040113D01*
X178642417Y-81596728D01*
X178063821Y-81356474D01*
X177437327Y-81355927D01*
X176858313Y-81595171D01*
X176414928Y-82037783D01*
X176174674Y-82616379D01*
X176174392Y-82938829D01*
X176102417Y-82866728D01*
X175523821Y-82626474D01*
X174897327Y-82625927D01*
X174318313Y-82865171D01*
X173874928Y-83307783D01*
X173634674Y-83886379D01*
X173634127Y-84512873D01*
X173873371Y-85091887D01*
X174252096Y-85471273D01*
X173874928Y-85847783D01*
X173634674Y-86426379D01*
X173634127Y-87052873D01*
X173873371Y-87631887D01*
X174252096Y-88011273D01*
X173874928Y-88387783D01*
X173634674Y-88966379D01*
X173634127Y-89592873D01*
X173873371Y-90171887D01*
X174315983Y-90615272D01*
X174894579Y-90855526D01*
X175521073Y-90856073D01*
X176100087Y-90616829D01*
X176543472Y-90174217D01*
X176783726Y-89595621D01*
X176784008Y-89273171D01*
X176855983Y-89345272D01*
X177434579Y-89585526D01*
X177817338Y-89585860D01*
X173663198Y-93740000D01*
X172454496Y-93740000D01*
X172386462Y-93575345D01*
X171927073Y-93115154D01*
X171326547Y-92865794D01*
X170676306Y-92865226D01*
X170075345Y-93113538D01*
X169615154Y-93572927D01*
X169365794Y-94173453D01*
X169365226Y-94823694D01*
X169613538Y-95424655D01*
X170072927Y-95884846D01*
X170673453Y-96134206D01*
X171323694Y-96134774D01*
X171924655Y-95886462D01*
X172384846Y-95427073D01*
X172454221Y-95260000D01*
X173978000Y-95260000D01*
X174268839Y-95202148D01*
X174515401Y-95037401D01*
X180263800Y-89289002D01*
X180263800Y-129667800D01*
X168244960Y-129667800D01*
X168291403Y-129648610D01*
X168684729Y-129255970D01*
X168897857Y-128742700D01*
X168898342Y-128186939D01*
X168700945Y-127709200D01*
X172161200Y-127709200D01*
X172452039Y-127651348D01*
X172698601Y-127486601D01*
X173876802Y-126308400D01*
X174837954Y-126308400D01*
X174882732Y-126416771D01*
X175263982Y-126798688D01*
X174884249Y-127177757D01*
X174650067Y-127741730D01*
X174649535Y-128352391D01*
X174882732Y-128916771D01*
X175314157Y-129348951D01*
X175878130Y-129583133D01*
X176488791Y-129583665D01*
X177053171Y-129350468D01*
X177485351Y-128919043D01*
X177719533Y-128355070D01*
X177720065Y-127744409D01*
X177486868Y-127180029D01*
X177105618Y-126798112D01*
X177485351Y-126419043D01*
X177719533Y-125855070D01*
X177720065Y-125244409D01*
X177486868Y-124680029D01*
X177105618Y-124298112D01*
X177485351Y-123919043D01*
X177719533Y-123355070D01*
X177720065Y-122744409D01*
X177486868Y-122180029D01*
X177105618Y-121798112D01*
X177485351Y-121419043D01*
X177719533Y-120855070D01*
X177720065Y-120244409D01*
X177486868Y-119680029D01*
X177055443Y-119247849D01*
X177046428Y-119244106D01*
X177085354Y-119128559D01*
X176184800Y-118228005D01*
X175284246Y-119128559D01*
X175323007Y-119243614D01*
X175316429Y-119246332D01*
X174884249Y-119677757D01*
X174650067Y-120241730D01*
X174649535Y-120852391D01*
X174882732Y-121416771D01*
X175263982Y-121798688D01*
X174884249Y-122177757D01*
X174650067Y-122741730D01*
X174649535Y-123352391D01*
X174882732Y-123916771D01*
X175263982Y-124298688D01*
X174884249Y-124677757D01*
X174838306Y-124788400D01*
X173562000Y-124788400D01*
X173271160Y-124846252D01*
X173024599Y-125010999D01*
X172496550Y-125539048D01*
X172496550Y-124652910D01*
X172452272Y-124417593D01*
X172313200Y-124201469D01*
X172101000Y-124056479D01*
X171849110Y-124005470D01*
X170149850Y-124005470D01*
X169914533Y-124049748D01*
X169698409Y-124188820D01*
X169553419Y-124401020D01*
X169502410Y-124652910D01*
X169502410Y-126189200D01*
X166475500Y-126189200D01*
X166184661Y-126247052D01*
X165938099Y-126411799D01*
X165270481Y-127079417D01*
X165240200Y-127066843D01*
X164684439Y-127066358D01*
X164170797Y-127278590D01*
X163777471Y-127671230D01*
X163691151Y-127879112D01*
X163606110Y-127673297D01*
X163213470Y-127279971D01*
X162700200Y-127066843D01*
X162144439Y-127066358D01*
X161630797Y-127278590D01*
X161237471Y-127671230D01*
X161151151Y-127879112D01*
X161066110Y-127673297D01*
X160673470Y-127279971D01*
X160160200Y-127066843D01*
X159604439Y-127066358D01*
X159572045Y-127079743D01*
X156445159Y-123952857D01*
X156870700Y-124129557D01*
X157426461Y-124130042D01*
X157940103Y-123917810D01*
X158333429Y-123525170D01*
X158546557Y-123011900D01*
X158547042Y-122456139D01*
X158471746Y-122273907D01*
X159343130Y-122273907D01*
X159369539Y-122863939D01*
X159544527Y-123286398D01*
X159795790Y-123366625D01*
X160659875Y-122502540D01*
X159795790Y-121638455D01*
X159544527Y-121718682D01*
X159343130Y-122273907D01*
X158471746Y-122273907D01*
X158334810Y-121942497D01*
X157942170Y-121549171D01*
X157734288Y-121462851D01*
X157743971Y-121458850D01*
X159975395Y-121458850D01*
X160839480Y-122322935D01*
X161703565Y-121458850D01*
X161623338Y-121207587D01*
X161068113Y-121006190D01*
X160478081Y-121032599D01*
X160055622Y-121207587D01*
X159975395Y-121458850D01*
X157743971Y-121458850D01*
X157940103Y-121377810D01*
X158333429Y-120985170D01*
X158546557Y-120471900D01*
X158547042Y-119916139D01*
X158334810Y-119402497D01*
X157942170Y-119009171D01*
X157750073Y-118929405D01*
X157880943Y-118875197D01*
X157950408Y-118633013D01*
X157149800Y-117832405D01*
X157135658Y-117846548D01*
X156956053Y-117666943D01*
X156970195Y-117652800D01*
X156956053Y-117638658D01*
X157135658Y-117459053D01*
X157149800Y-117473195D01*
X157950408Y-116672587D01*
X157880943Y-116430403D01*
X157740482Y-116380291D01*
X157940103Y-116297810D01*
X158244000Y-115994443D01*
X158244000Y-116884887D01*
X158130013Y-116852192D01*
X157329405Y-117652800D01*
X158130013Y-118453408D01*
X158372197Y-118383943D01*
X158558944Y-117860498D01*
X158555427Y-117790229D01*
X159274115Y-118508917D01*
X159205794Y-118673453D01*
X159205226Y-119323694D01*
X159453538Y-119924655D01*
X159912927Y-120384846D01*
X160513453Y-120634206D01*
X161163694Y-120634774D01*
X161344475Y-120560077D01*
X162054000Y-121269602D01*
X162054000Y-121693000D01*
X161883170Y-121638455D01*
X161019085Y-122502540D01*
X161033228Y-122516683D01*
X160853623Y-122696288D01*
X160839480Y-122682145D01*
X159975395Y-123546230D01*
X160055622Y-123797493D01*
X160610847Y-123998890D01*
X161200879Y-123972481D01*
X161361104Y-123906114D01*
X161215906Y-124051312D01*
X161136087Y-124018168D01*
X160545464Y-124017652D01*
X159999603Y-124243198D01*
X159581606Y-124660466D01*
X159355108Y-125205933D01*
X159354592Y-125796556D01*
X159580138Y-126342417D01*
X159997406Y-126760414D01*
X160542873Y-126986912D01*
X161133496Y-126987428D01*
X161679357Y-126761882D01*
X162097354Y-126344614D01*
X162323852Y-125799147D01*
X162324368Y-125208524D01*
X162290431Y-125126391D01*
X163351401Y-124065421D01*
X163516148Y-123818859D01*
X163574000Y-123528020D01*
X163574000Y-121652910D01*
X169502410Y-121652910D01*
X169502410Y-123352170D01*
X169546688Y-123587487D01*
X169685760Y-123803611D01*
X169897960Y-123948601D01*
X170149850Y-123999610D01*
X171849110Y-123999610D01*
X172084427Y-123955332D01*
X172300551Y-123816260D01*
X172445541Y-123604060D01*
X172496550Y-123352170D01*
X172496550Y-121652910D01*
X172452272Y-121417593D01*
X172313200Y-121201469D01*
X172101000Y-121056479D01*
X171849110Y-121005470D01*
X170149850Y-121005470D01*
X169914533Y-121049748D01*
X169698409Y-121188820D01*
X169553419Y-121401020D01*
X169502410Y-121652910D01*
X163574000Y-121652910D01*
X163574000Y-120954800D01*
X163516148Y-120663961D01*
X163351401Y-120417399D01*
X162411518Y-119477516D01*
X162474206Y-119326547D01*
X162474208Y-119323694D01*
X169365226Y-119323694D01*
X169613538Y-119924655D01*
X170072927Y-120384846D01*
X170673453Y-120634206D01*
X171323694Y-120634774D01*
X171924655Y-120386462D01*
X172384846Y-119927073D01*
X172634206Y-119326547D01*
X172634774Y-118676306D01*
X172386462Y-118075345D01*
X172119320Y-117807736D01*
X174638342Y-117807736D01*
X174663961Y-118417860D01*
X174848157Y-118862548D01*
X175104641Y-118948954D01*
X176005195Y-118048400D01*
X176364405Y-118048400D01*
X177264959Y-118948954D01*
X177521443Y-118862548D01*
X177731258Y-118289064D01*
X177705639Y-117678940D01*
X177521443Y-117234252D01*
X177264959Y-117147846D01*
X176364405Y-118048400D01*
X176005195Y-118048400D01*
X175104641Y-117147846D01*
X174848157Y-117234252D01*
X174638342Y-117807736D01*
X172119320Y-117807736D01*
X171927073Y-117615154D01*
X171326547Y-117365794D01*
X170676306Y-117365226D01*
X170075345Y-117613538D01*
X169615154Y-118072927D01*
X169365794Y-118673453D01*
X169365226Y-119323694D01*
X162474208Y-119323694D01*
X162474774Y-118676306D01*
X162226462Y-118075345D01*
X161767073Y-117615154D01*
X161166547Y-117365794D01*
X160516306Y-117365226D01*
X160349111Y-117434309D01*
X159764000Y-116849198D01*
X159764000Y-116526600D01*
X159997406Y-116760414D01*
X160542873Y-116986912D01*
X161133496Y-116987428D01*
X161679357Y-116761882D01*
X162097354Y-116344614D01*
X162323852Y-115799147D01*
X162324368Y-115208524D01*
X162098822Y-114662663D01*
X162089087Y-114652910D01*
X169502410Y-114652910D01*
X169502410Y-116352170D01*
X169546688Y-116587487D01*
X169685760Y-116803611D01*
X169897960Y-116948601D01*
X170149850Y-116999610D01*
X171849110Y-116999610D01*
X172084427Y-116955332D01*
X172300551Y-116816260D01*
X172445541Y-116604060D01*
X172496550Y-116352170D01*
X172496550Y-114652910D01*
X172452272Y-114417593D01*
X172313200Y-114201469D01*
X172101000Y-114056479D01*
X171849110Y-114005470D01*
X170149850Y-114005470D01*
X169914533Y-114049748D01*
X169698409Y-114188820D01*
X169553419Y-114401020D01*
X169502410Y-114652910D01*
X162089087Y-114652910D01*
X161681554Y-114244666D01*
X161136087Y-114018168D01*
X160545464Y-114017652D01*
X159999603Y-114243198D01*
X159764000Y-114478390D01*
X159764000Y-113046230D01*
X159975395Y-113046230D01*
X160055622Y-113297493D01*
X160610847Y-113498890D01*
X161200879Y-113472481D01*
X161623338Y-113297493D01*
X161703565Y-113046230D01*
X160839480Y-112182145D01*
X159975395Y-113046230D01*
X159764000Y-113046230D01*
X159764000Y-112856475D01*
X159795790Y-112866625D01*
X160659875Y-112002540D01*
X161019085Y-112002540D01*
X161883170Y-112866625D01*
X162134433Y-112786398D01*
X162335830Y-112231173D01*
X162309421Y-111641141D01*
X162134433Y-111218682D01*
X161883170Y-111138455D01*
X161019085Y-112002540D01*
X160659875Y-112002540D01*
X159795790Y-111138455D01*
X159764000Y-111148605D01*
X159764000Y-110958850D01*
X159975395Y-110958850D01*
X160839480Y-111822935D01*
X161703565Y-110958850D01*
X161623338Y-110707587D01*
X161068113Y-110506190D01*
X160478081Y-110532599D01*
X160055622Y-110707587D01*
X159975395Y-110958850D01*
X159764000Y-110958850D01*
X159764000Y-109755608D01*
X159867444Y-109652164D01*
X159966042Y-109918965D01*
X160575582Y-110145401D01*
X161225377Y-110121341D01*
X161713958Y-109918965D01*
X161812557Y-109652163D01*
X160840000Y-108679605D01*
X160825858Y-108693748D01*
X160646252Y-108514142D01*
X160660395Y-108500000D01*
X161019605Y-108500000D01*
X161992163Y-109472557D01*
X162258965Y-109373958D01*
X162485401Y-108764418D01*
X162461341Y-108114623D01*
X162258965Y-107626042D01*
X161992163Y-107527443D01*
X161019605Y-108500000D01*
X160660395Y-108500000D01*
X160646252Y-108485858D01*
X160825858Y-108306252D01*
X160840000Y-108320395D01*
X161812557Y-107347837D01*
X161713958Y-107081035D01*
X161104418Y-106854599D01*
X160454623Y-106878659D01*
X159966042Y-107081035D01*
X159867444Y-107347836D01*
X159764000Y-107244392D01*
X159764000Y-106235659D01*
X159912927Y-106384846D01*
X160513453Y-106634206D01*
X161163694Y-106634774D01*
X161764655Y-106386462D01*
X162224846Y-105927073D01*
X162294221Y-105760000D01*
X163682138Y-105760000D01*
X169502410Y-111580272D01*
X169502410Y-112852170D01*
X169546688Y-113087487D01*
X169685760Y-113303611D01*
X169897960Y-113448601D01*
X170149850Y-113499610D01*
X171849110Y-113499610D01*
X172084427Y-113455332D01*
X172244401Y-113352391D01*
X174649535Y-113352391D01*
X174882732Y-113916771D01*
X175263982Y-114298688D01*
X174884249Y-114677757D01*
X174650067Y-115241730D01*
X174649535Y-115852391D01*
X174882732Y-116416771D01*
X175314157Y-116848951D01*
X175323172Y-116852694D01*
X175284246Y-116968241D01*
X176184800Y-117868795D01*
X177085354Y-116968241D01*
X177046593Y-116853186D01*
X177053171Y-116850468D01*
X177485351Y-116419043D01*
X177719533Y-115855070D01*
X177720065Y-115244409D01*
X177486868Y-114680029D01*
X177105618Y-114298112D01*
X177485351Y-113919043D01*
X177719533Y-113355070D01*
X177720065Y-112744409D01*
X177486868Y-112180029D01*
X177055443Y-111747849D01*
X176491470Y-111513667D01*
X175880809Y-111513135D01*
X175316429Y-111746332D01*
X174884249Y-112177757D01*
X174650067Y-112741730D01*
X174649535Y-113352391D01*
X172244401Y-113352391D01*
X172300551Y-113316260D01*
X172445541Y-113104060D01*
X172496550Y-112852170D01*
X172496550Y-111152910D01*
X172452272Y-110917593D01*
X172313200Y-110701469D01*
X172101000Y-110556479D01*
X171849110Y-110505470D01*
X170577212Y-110505470D01*
X168895436Y-108823694D01*
X169365226Y-108823694D01*
X169613538Y-109424655D01*
X170072927Y-109884846D01*
X170673453Y-110134206D01*
X171323694Y-110134774D01*
X171924655Y-109886462D01*
X172384846Y-109427073D01*
X172634206Y-108826547D01*
X172634774Y-108176306D01*
X172386462Y-107575345D01*
X171927073Y-107115154D01*
X171326547Y-106865794D01*
X170676306Y-106865226D01*
X170075345Y-107113538D01*
X169615154Y-107572927D01*
X169365794Y-108173453D01*
X169365226Y-108823694D01*
X168895436Y-108823694D01*
X165395436Y-105323694D01*
X169365226Y-105323694D01*
X169613538Y-105924655D01*
X170072927Y-106384846D01*
X170673453Y-106634206D01*
X171323694Y-106634774D01*
X171924655Y-106386462D01*
X172384846Y-105927073D01*
X172634206Y-105326547D01*
X172634774Y-104676306D01*
X172386462Y-104075345D01*
X171927073Y-103615154D01*
X171326547Y-103365794D01*
X170676306Y-103365226D01*
X170075345Y-103613538D01*
X169615154Y-104072927D01*
X169365794Y-104673453D01*
X169365226Y-105323694D01*
X165395436Y-105323694D01*
X164534341Y-104462599D01*
X164287779Y-104297852D01*
X163996940Y-104240000D01*
X162294496Y-104240000D01*
X162226462Y-104075345D01*
X161767073Y-103615154D01*
X161166547Y-103365794D01*
X160516306Y-103365226D01*
X160485069Y-103378133D01*
X160728808Y-103134394D01*
X161163694Y-103134774D01*
X161764655Y-102886462D01*
X162224846Y-102427073D01*
X162474206Y-101826547D01*
X162474208Y-101823694D01*
X169365226Y-101823694D01*
X169613538Y-102424655D01*
X170072927Y-102884846D01*
X170673453Y-103134206D01*
X171323694Y-103134774D01*
X171924655Y-102886462D01*
X172384846Y-102427073D01*
X172634206Y-101826547D01*
X172634774Y-101176306D01*
X172386462Y-100575345D01*
X171927073Y-100115154D01*
X171326547Y-99865794D01*
X170676306Y-99865226D01*
X170075345Y-100113538D01*
X169615154Y-100572927D01*
X169365794Y-101173453D01*
X169365226Y-101823694D01*
X162474208Y-101823694D01*
X162474774Y-101176306D01*
X162226462Y-100575345D01*
X161767073Y-100115154D01*
X161166547Y-99865794D01*
X160516306Y-99865226D01*
X159915345Y-100113538D01*
X159455154Y-100572927D01*
X159205794Y-101173453D01*
X159205226Y-101823694D01*
X159405413Y-102308185D01*
X158466599Y-103246999D01*
X158301852Y-103493561D01*
X158244000Y-103784400D01*
X158244000Y-104071528D01*
X157942170Y-103769171D01*
X157734288Y-103682851D01*
X157940103Y-103597810D01*
X158333429Y-103205170D01*
X158546557Y-102691900D01*
X158547042Y-102136139D01*
X158334810Y-101622497D01*
X157942170Y-101229171D01*
X157734288Y-101142851D01*
X157940103Y-101057810D01*
X158333429Y-100665170D01*
X158546557Y-100151900D01*
X158547042Y-99596139D01*
X158334810Y-99082497D01*
X157942170Y-98689171D01*
X157734288Y-98602851D01*
X157940103Y-98517810D01*
X158134558Y-98323694D01*
X159205226Y-98323694D01*
X159453538Y-98924655D01*
X159912927Y-99384846D01*
X160513453Y-99634206D01*
X161163694Y-99634774D01*
X161764655Y-99386462D01*
X162224846Y-98927073D01*
X162474206Y-98326547D01*
X162474208Y-98323694D01*
X169365226Y-98323694D01*
X169613538Y-98924655D01*
X170072927Y-99384846D01*
X170673453Y-99634206D01*
X171323694Y-99634774D01*
X171924655Y-99386462D01*
X172066491Y-99244873D01*
X173684927Y-99244873D01*
X173924171Y-99823887D01*
X174302896Y-100203273D01*
X173925728Y-100579783D01*
X173685474Y-101158379D01*
X173684927Y-101784873D01*
X173924171Y-102363887D01*
X174302896Y-102743273D01*
X173925728Y-103119783D01*
X173685474Y-103698379D01*
X173684927Y-104324873D01*
X173924171Y-104903887D01*
X174366783Y-105347272D01*
X174945379Y-105587526D01*
X175571873Y-105588073D01*
X176150887Y-105348829D01*
X176594272Y-104906217D01*
X176834526Y-104327621D01*
X176834808Y-104005171D01*
X176906783Y-104077272D01*
X177485379Y-104317526D01*
X178111873Y-104318073D01*
X178690887Y-104078829D01*
X179134272Y-103636217D01*
X179374526Y-103057621D01*
X179375073Y-102431127D01*
X179135829Y-101852113D01*
X178757104Y-101472727D01*
X179134272Y-101096217D01*
X179374526Y-100517621D01*
X179375073Y-99891127D01*
X179135829Y-99312113D01*
X178757104Y-98932727D01*
X179134272Y-98556217D01*
X179374526Y-97977621D01*
X179375073Y-97351127D01*
X179135829Y-96772113D01*
X178693217Y-96328728D01*
X178114621Y-96088474D01*
X177488127Y-96087927D01*
X176909113Y-96327171D01*
X176465728Y-96769783D01*
X176225474Y-97348379D01*
X176225192Y-97670829D01*
X176153217Y-97598728D01*
X175574621Y-97358474D01*
X174948127Y-97357927D01*
X174369113Y-97597171D01*
X173925728Y-98039783D01*
X173685474Y-98618379D01*
X173684927Y-99244873D01*
X172066491Y-99244873D01*
X172384846Y-98927073D01*
X172634206Y-98326547D01*
X172634774Y-97676306D01*
X172386462Y-97075345D01*
X171927073Y-96615154D01*
X171326547Y-96365794D01*
X170676306Y-96365226D01*
X170075345Y-96613538D01*
X169615154Y-97072927D01*
X169365794Y-97673453D01*
X169365226Y-98323694D01*
X162474208Y-98323694D01*
X162474774Y-97676306D01*
X162226462Y-97075345D01*
X161767073Y-96615154D01*
X161166547Y-96365794D01*
X160516306Y-96365226D01*
X159915345Y-96613538D01*
X159455154Y-97072927D01*
X159205794Y-97673453D01*
X159205226Y-98323694D01*
X158134558Y-98323694D01*
X158333429Y-98125170D01*
X158546557Y-97611900D01*
X158547042Y-97056139D01*
X158334810Y-96542497D01*
X157942170Y-96149171D01*
X157734288Y-96062851D01*
X157940103Y-95977810D01*
X158266318Y-95652163D01*
X159867443Y-95652163D01*
X159966042Y-95918965D01*
X160575582Y-96145401D01*
X161225377Y-96121341D01*
X161713958Y-95918965D01*
X161812557Y-95652163D01*
X160840000Y-94679605D01*
X159867443Y-95652163D01*
X158266318Y-95652163D01*
X158333429Y-95585170D01*
X158546557Y-95071900D01*
X158547042Y-94516139D01*
X158431119Y-94235582D01*
X159194599Y-94235582D01*
X159218659Y-94885377D01*
X159421035Y-95373958D01*
X159687837Y-95472557D01*
X160660395Y-94500000D01*
X161019605Y-94500000D01*
X161992163Y-95472557D01*
X162258965Y-95373958D01*
X162485401Y-94764418D01*
X162461341Y-94114623D01*
X162258965Y-93626042D01*
X161992163Y-93527443D01*
X161019605Y-94500000D01*
X160660395Y-94500000D01*
X159687837Y-93527443D01*
X159421035Y-93626042D01*
X159194599Y-94235582D01*
X158431119Y-94235582D01*
X158334810Y-94002497D01*
X157942170Y-93609171D01*
X157734288Y-93522851D01*
X157940103Y-93437810D01*
X158030233Y-93347837D01*
X159867443Y-93347837D01*
X160840000Y-94320395D01*
X161812557Y-93347837D01*
X161713958Y-93081035D01*
X161104418Y-92854599D01*
X160454623Y-92878659D01*
X159966042Y-93081035D01*
X159867443Y-93347837D01*
X158030233Y-93347837D01*
X158333429Y-93045170D01*
X158546557Y-92531900D01*
X158546888Y-92152163D01*
X159867443Y-92152163D01*
X159966042Y-92418965D01*
X160575582Y-92645401D01*
X161225377Y-92621341D01*
X161713958Y-92418965D01*
X161812557Y-92152163D01*
X160840000Y-91179605D01*
X159867443Y-92152163D01*
X158546888Y-92152163D01*
X158547042Y-91976139D01*
X158334810Y-91462497D01*
X157942170Y-91069171D01*
X157734288Y-90982851D01*
X157940103Y-90897810D01*
X158102614Y-90735582D01*
X159194599Y-90735582D01*
X159218659Y-91385377D01*
X159421035Y-91873958D01*
X159687837Y-91972557D01*
X160660395Y-91000000D01*
X161019605Y-91000000D01*
X161992163Y-91972557D01*
X162258965Y-91873958D01*
X162463380Y-91323694D01*
X169365226Y-91323694D01*
X169613538Y-91924655D01*
X170072927Y-92384846D01*
X170673453Y-92634206D01*
X171323694Y-92634774D01*
X171924655Y-92386462D01*
X172384846Y-91927073D01*
X172634206Y-91326547D01*
X172634774Y-90676306D01*
X172386462Y-90075345D01*
X171927073Y-89615154D01*
X171326547Y-89365794D01*
X170676306Y-89365226D01*
X170075345Y-89613538D01*
X169615154Y-90072927D01*
X169365794Y-90673453D01*
X169365226Y-91323694D01*
X162463380Y-91323694D01*
X162485401Y-91264418D01*
X162461341Y-90614623D01*
X162258965Y-90126042D01*
X161992163Y-90027443D01*
X161019605Y-91000000D01*
X160660395Y-91000000D01*
X159687837Y-90027443D01*
X159421035Y-90126042D01*
X159194599Y-90735582D01*
X158102614Y-90735582D01*
X158333429Y-90505170D01*
X158546557Y-89991900D01*
X158546682Y-89847837D01*
X159867443Y-89847837D01*
X160840000Y-90820395D01*
X161812557Y-89847837D01*
X161713958Y-89581035D01*
X161104418Y-89354599D01*
X160454623Y-89378659D01*
X159966042Y-89581035D01*
X159867443Y-89847837D01*
X158546682Y-89847837D01*
X158547042Y-89436139D01*
X158334810Y-88922497D01*
X157942170Y-88529171D01*
X157734288Y-88442851D01*
X157940103Y-88357810D01*
X158333429Y-87965170D01*
X158403443Y-87796556D01*
X159354592Y-87796556D01*
X159580138Y-88342417D01*
X159997406Y-88760414D01*
X160542873Y-88986912D01*
X161133496Y-88987428D01*
X161679357Y-88761882D01*
X162097354Y-88344614D01*
X162323852Y-87799147D01*
X162324368Y-87208524D01*
X162098822Y-86662663D01*
X162089087Y-86652910D01*
X169502410Y-86652910D01*
X169502410Y-88352170D01*
X169546688Y-88587487D01*
X169685760Y-88803611D01*
X169897960Y-88948601D01*
X170149850Y-88999610D01*
X171849110Y-88999610D01*
X172084427Y-88955332D01*
X172300551Y-88816260D01*
X172445541Y-88604060D01*
X172496550Y-88352170D01*
X172496550Y-86652910D01*
X172452272Y-86417593D01*
X172313200Y-86201469D01*
X172101000Y-86056479D01*
X171849110Y-86005470D01*
X170149850Y-86005470D01*
X169914533Y-86049748D01*
X169698409Y-86188820D01*
X169553419Y-86401020D01*
X169502410Y-86652910D01*
X162089087Y-86652910D01*
X161681554Y-86244666D01*
X161136087Y-86018168D01*
X160545464Y-86017652D01*
X159999603Y-86243198D01*
X159581606Y-86660466D01*
X159355108Y-87205933D01*
X159354592Y-87796556D01*
X158403443Y-87796556D01*
X158546557Y-87451900D01*
X158547042Y-86896139D01*
X158334810Y-86382497D01*
X157942170Y-85989171D01*
X157734288Y-85902851D01*
X157940103Y-85817810D01*
X158333429Y-85425170D01*
X158490778Y-85046230D01*
X159975395Y-85046230D01*
X160055622Y-85297493D01*
X160610847Y-85498890D01*
X161200879Y-85472481D01*
X161623338Y-85297493D01*
X161703565Y-85046230D01*
X160839480Y-84182145D01*
X159975395Y-85046230D01*
X158490778Y-85046230D01*
X158546557Y-84911900D01*
X158547042Y-84356139D01*
X158334810Y-83842497D01*
X158266340Y-83773907D01*
X159343130Y-83773907D01*
X159369539Y-84363939D01*
X159544527Y-84786398D01*
X159795790Y-84866625D01*
X160659875Y-84002540D01*
X161019085Y-84002540D01*
X161883170Y-84866625D01*
X162134433Y-84786398D01*
X162335830Y-84231173D01*
X162309421Y-83641141D01*
X162134433Y-83218682D01*
X161928442Y-83152910D01*
X169502410Y-83152910D01*
X169502410Y-84852170D01*
X169546688Y-85087487D01*
X169685760Y-85303611D01*
X169897960Y-85448601D01*
X170149850Y-85499610D01*
X171849110Y-85499610D01*
X172084427Y-85455332D01*
X172300551Y-85316260D01*
X172445541Y-85104060D01*
X172496550Y-84852170D01*
X172496550Y-83152910D01*
X172452272Y-82917593D01*
X172313200Y-82701469D01*
X172101000Y-82556479D01*
X171849110Y-82505470D01*
X170149850Y-82505470D01*
X169914533Y-82549748D01*
X169698409Y-82688820D01*
X169553419Y-82901020D01*
X169502410Y-83152910D01*
X161928442Y-83152910D01*
X161883170Y-83138455D01*
X161019085Y-84002540D01*
X160659875Y-84002540D01*
X159795790Y-83138455D01*
X159544527Y-83218682D01*
X159343130Y-83773907D01*
X158266340Y-83773907D01*
X157942170Y-83449171D01*
X157428900Y-83236043D01*
X156873139Y-83235558D01*
X156359497Y-83447790D01*
X155966171Y-83840430D01*
X155753043Y-84353700D01*
X155752558Y-84909461D01*
X155964790Y-85423103D01*
X156357430Y-85816429D01*
X156565312Y-85902749D01*
X156359497Y-85987790D01*
X155966171Y-86380430D01*
X155753043Y-86893700D01*
X155752558Y-87449461D01*
X155964790Y-87963103D01*
X156357430Y-88356429D01*
X156565312Y-88442749D01*
X156359497Y-88527790D01*
X155966171Y-88920430D01*
X155753043Y-89433700D01*
X155752558Y-89989461D01*
X155964790Y-90503103D01*
X156357430Y-90896429D01*
X156565312Y-90982749D01*
X156359497Y-91067790D01*
X155966171Y-91460430D01*
X155753043Y-91973700D01*
X155752558Y-92529461D01*
X155964790Y-93043103D01*
X156357430Y-93436429D01*
X156565312Y-93522749D01*
X156359497Y-93607790D01*
X155966171Y-94000430D01*
X155753043Y-94513700D01*
X155752558Y-95069461D01*
X155964790Y-95583103D01*
X156357430Y-95976429D01*
X156565312Y-96062749D01*
X156359497Y-96147790D01*
X155966171Y-96540430D01*
X155753043Y-97053700D01*
X155752558Y-97609461D01*
X155964790Y-98123103D01*
X156357430Y-98516429D01*
X156565312Y-98602749D01*
X156359497Y-98687790D01*
X155966171Y-99080430D01*
X155753043Y-99593700D01*
X155752558Y-100149461D01*
X155964790Y-100663103D01*
X156357430Y-101056429D01*
X156565312Y-101142749D01*
X156359497Y-101227790D01*
X155966171Y-101620430D01*
X155753043Y-102133700D01*
X155752558Y-102689461D01*
X155964790Y-103203103D01*
X156357430Y-103596429D01*
X156565312Y-103682749D01*
X156359497Y-103767790D01*
X155966171Y-104160430D01*
X155753043Y-104673700D01*
X155752558Y-105229461D01*
X155964790Y-105743103D01*
X156357430Y-106136429D01*
X156565312Y-106222749D01*
X156359497Y-106307790D01*
X155966171Y-106700430D01*
X155753043Y-107213700D01*
X155752558Y-107769461D01*
X155964790Y-108283103D01*
X156357430Y-108676429D01*
X156565312Y-108762749D01*
X156359497Y-108847790D01*
X155966171Y-109240430D01*
X155753043Y-109753700D01*
X155752558Y-110309461D01*
X155765943Y-110341855D01*
X153488199Y-112619599D01*
X153323452Y-112866161D01*
X153265600Y-113157000D01*
X153265600Y-124256800D01*
X153323452Y-124547639D01*
X153488199Y-124794201D01*
X156261440Y-127567442D01*
X156157471Y-127671230D01*
X156071151Y-127879112D01*
X155986110Y-127673297D01*
X155593470Y-127279971D01*
X155080200Y-127066843D01*
X154524439Y-127066358D01*
X154010797Y-127278590D01*
X153617471Y-127671230D01*
X153404343Y-128184500D01*
X153403858Y-128740261D01*
X153616090Y-129253903D01*
X154008730Y-129647229D01*
X154058271Y-129667800D01*
X150464960Y-129667800D01*
X150511403Y-129648610D01*
X150904729Y-129255970D01*
X151117857Y-128742700D01*
X151118342Y-128186939D01*
X150906110Y-127673297D01*
X150513470Y-127279971D01*
X150000200Y-127066843D01*
X149444439Y-127066358D01*
X148930797Y-127278590D01*
X148537471Y-127671230D01*
X148451151Y-127879112D01*
X148366110Y-127673297D01*
X147973470Y-127279971D01*
X147460200Y-127066843D01*
X146904439Y-127066358D01*
X146390797Y-127278590D01*
X145997471Y-127671230D01*
X145917705Y-127863327D01*
X145863497Y-127732457D01*
X145621313Y-127662992D01*
X144820705Y-128463600D01*
X145621313Y-129264208D01*
X145863497Y-129194743D01*
X145913609Y-129054282D01*
X145996090Y-129253903D01*
X146388730Y-129647229D01*
X146438271Y-129667800D01*
X145377462Y-129667800D01*
X145441708Y-129443813D01*
X144641100Y-128643205D01*
X143840492Y-129443813D01*
X143904738Y-129667800D01*
X142844960Y-129667800D01*
X142891403Y-129648610D01*
X143284729Y-129255970D01*
X143364495Y-129063873D01*
X143418703Y-129194743D01*
X143660887Y-129264208D01*
X144461495Y-128463600D01*
X143660887Y-127662992D01*
X143418703Y-127732457D01*
X143368591Y-127872918D01*
X143286110Y-127673297D01*
X143096532Y-127483387D01*
X143840492Y-127483387D01*
X144641100Y-128283995D01*
X145441708Y-127483387D01*
X145372243Y-127241203D01*
X144848798Y-127054456D01*
X144293732Y-127082238D01*
X143909957Y-127241203D01*
X143840492Y-127483387D01*
X143096532Y-127483387D01*
X142893470Y-127279971D01*
X142380200Y-127066843D01*
X141824439Y-127066358D01*
X141310797Y-127278590D01*
X140917471Y-127671230D01*
X140831151Y-127879112D01*
X140746110Y-127673297D01*
X140353470Y-127279971D01*
X139840200Y-127066843D01*
X139284439Y-127066358D01*
X138770797Y-127278590D01*
X138377471Y-127671230D01*
X138291151Y-127879112D01*
X138206110Y-127673297D01*
X137813470Y-127279971D01*
X137300200Y-127066843D01*
X136744439Y-127066358D01*
X136230797Y-127278590D01*
X135837471Y-127671230D01*
X135751151Y-127879112D01*
X135666110Y-127673297D01*
X135273470Y-127279971D01*
X134760200Y-127066843D01*
X134204439Y-127066358D01*
X133690797Y-127278590D01*
X133297471Y-127671230D01*
X133211151Y-127879112D01*
X133126110Y-127673297D01*
X132733470Y-127279971D01*
X132220200Y-127066843D01*
X131664439Y-127066358D01*
X131150797Y-127278590D01*
X130757471Y-127671230D01*
X130682200Y-127852503D01*
X130682200Y-125171200D01*
X130630057Y-124909062D01*
X130481568Y-124686832D01*
X130035527Y-124240791D01*
X129716870Y-105383800D01*
X151790400Y-105383800D01*
X152052538Y-105331657D01*
X152274768Y-105183168D01*
X152423257Y-104960938D01*
X152475400Y-104698800D01*
X152475400Y-85598000D01*
X152423257Y-85335862D01*
X152274768Y-85113632D01*
X152052538Y-84965143D01*
X151790400Y-84913000D01*
X129370942Y-84913000D01*
X129337920Y-82958850D01*
X159975395Y-82958850D01*
X160839480Y-83822935D01*
X161703565Y-82958850D01*
X161623338Y-82707587D01*
X161068113Y-82506190D01*
X160478081Y-82532599D01*
X160055622Y-82707587D01*
X159975395Y-82958850D01*
X129337920Y-82958850D01*
X129305965Y-81067907D01*
X129624730Y-81387229D01*
X130138000Y-81600357D01*
X130693761Y-81600842D01*
X131207403Y-81388610D01*
X131600729Y-80995970D01*
X131687049Y-80788088D01*
X131772090Y-80993903D01*
X132164730Y-81387229D01*
X132678000Y-81600357D01*
X133233761Y-81600842D01*
X133747403Y-81388610D01*
X134140729Y-80995970D01*
X134227049Y-80788088D01*
X134312090Y-80993903D01*
X134704730Y-81387229D01*
X135218000Y-81600357D01*
X135773761Y-81600842D01*
X136287403Y-81388610D01*
X136680729Y-80995970D01*
X136767049Y-80788088D01*
X136852090Y-80993903D01*
X137244730Y-81387229D01*
X137758000Y-81600357D01*
X138313761Y-81600842D01*
X138827403Y-81388610D01*
X139220729Y-80995970D01*
X139307049Y-80788088D01*
X139392090Y-80993903D01*
X139784730Y-81387229D01*
X140298000Y-81600357D01*
X140853761Y-81600842D01*
X141367403Y-81388610D01*
X141760729Y-80995970D01*
X141847049Y-80788088D01*
X141932090Y-80993903D01*
X142324730Y-81387229D01*
X142838000Y-81600357D01*
X143393761Y-81600842D01*
X143907403Y-81388610D01*
X144300729Y-80995970D01*
X144387049Y-80788088D01*
X144472090Y-80993903D01*
X144864730Y-81387229D01*
X145378000Y-81600357D01*
X145933761Y-81600842D01*
X146447403Y-81388610D01*
X146840729Y-80995970D01*
X147053857Y-80482700D01*
X147054342Y-79926939D01*
X146842110Y-79413297D01*
X146498813Y-79069400D01*
X148879898Y-79069400D01*
X148537471Y-79411230D01*
X148537471Y-79411230D01*
G37*
X148537471Y-79411230D02*
X148324343Y-79924500D01*
X148323858Y-80480261D01*
X148536090Y-80993903D01*
X148928730Y-81387229D01*
X149442000Y-81600357D01*
X149997761Y-81600842D01*
X150511403Y-81388610D01*
X150904729Y-80995970D01*
X150991049Y-80788088D01*
X151076090Y-80993903D01*
X151468730Y-81387229D01*
X151982000Y-81600357D01*
X152537761Y-81600842D01*
X153051403Y-81388610D01*
X153444729Y-80995970D01*
X153531049Y-80788088D01*
X153616090Y-80993903D01*
X154008730Y-81387229D01*
X154522000Y-81600357D01*
X155077761Y-81600842D01*
X155591403Y-81388610D01*
X155984729Y-80995970D01*
X156071049Y-80788088D01*
X156156090Y-80993903D01*
X156548730Y-81387229D01*
X157062000Y-81600357D01*
X157617761Y-81600842D01*
X158131403Y-81388610D01*
X158524729Y-80995970D01*
X158611049Y-80788088D01*
X158696090Y-80993903D01*
X159088730Y-81387229D01*
X159602000Y-81600357D01*
X160157761Y-81600842D01*
X160671403Y-81388610D01*
X161064729Y-80995970D01*
X161151049Y-80788088D01*
X161236090Y-80993903D01*
X161628730Y-81387229D01*
X162142000Y-81600357D01*
X162697761Y-81600842D01*
X163211403Y-81388610D01*
X163604729Y-80995970D01*
X163691049Y-80788088D01*
X163776090Y-80993903D01*
X164168730Y-81387229D01*
X164682000Y-81600357D01*
X165237761Y-81600842D01*
X165751403Y-81388610D01*
X166144729Y-80995970D01*
X166231049Y-80788088D01*
X166316090Y-80993903D01*
X166708730Y-81387229D01*
X167222000Y-81600357D01*
X167777761Y-81600842D01*
X168291403Y-81388610D01*
X168684729Y-80995970D01*
X168897857Y-80482700D01*
X168898342Y-79926939D01*
X168686110Y-79413297D01*
X168342813Y-79069400D01*
X180263800Y-79069400D01*
X180263800Y-86910798D01*
X179269416Y-85916414D01*
X179323726Y-85785621D01*
X179324273Y-85159127D01*
X179085029Y-84580113D01*
X178706304Y-84200727D01*
X179083472Y-83824217D01*
X179323726Y-83245621D01*
X179324273Y-82619127D01*
X179085029Y-82040113D01*
X178642417Y-81596728D01*
X178063821Y-81356474D01*
X177437327Y-81355927D01*
X176858313Y-81595171D01*
X176414928Y-82037783D01*
X176174674Y-82616379D01*
X176174392Y-82938829D01*
X176102417Y-82866728D01*
X175523821Y-82626474D01*
X174897327Y-82625927D01*
X174318313Y-82865171D01*
X173874928Y-83307783D01*
X173634674Y-83886379D01*
X173634127Y-84512873D01*
X173873371Y-85091887D01*
X174252096Y-85471273D01*
X173874928Y-85847783D01*
X173634674Y-86426379D01*
X173634127Y-87052873D01*
X173873371Y-87631887D01*
X174252096Y-88011273D01*
X173874928Y-88387783D01*
X173634674Y-88966379D01*
X173634127Y-89592873D01*
X173873371Y-90171887D01*
X174315983Y-90615272D01*
X174894579Y-90855526D01*
X175521073Y-90856073D01*
X176100087Y-90616829D01*
X176543472Y-90174217D01*
X176783726Y-89595621D01*
X176784008Y-89273171D01*
X176855983Y-89345272D01*
X177434579Y-89585526D01*
X177817338Y-89585860D01*
X173663198Y-93740000D01*
X172454496Y-93740000D01*
X172386462Y-93575345D01*
X171927073Y-93115154D01*
X171326547Y-92865794D01*
X170676306Y-92865226D01*
X170075345Y-93113538D01*
X169615154Y-93572927D01*
X169365794Y-94173453D01*
X169365226Y-94823694D01*
X169613538Y-95424655D01*
X170072927Y-95884846D01*
X170673453Y-96134206D01*
X171323694Y-96134774D01*
X171924655Y-95886462D01*
X172384846Y-95427073D01*
X172454221Y-95260000D01*
X173978000Y-95260000D01*
X174268839Y-95202148D01*
X174515401Y-95037401D01*
X180263800Y-89289002D01*
X180263800Y-129667800D01*
X168244960Y-129667800D01*
X168291403Y-129648610D01*
X168684729Y-129255970D01*
X168897857Y-128742700D01*
X168898342Y-128186939D01*
X168700945Y-127709200D01*
X172161200Y-127709200D01*
X172452039Y-127651348D01*
X172698601Y-127486601D01*
X173876802Y-126308400D01*
X174837954Y-126308400D01*
X174882732Y-126416771D01*
X175263982Y-126798688D01*
X174884249Y-127177757D01*
X174650067Y-127741730D01*
X174649535Y-128352391D01*
X174882732Y-128916771D01*
X175314157Y-129348951D01*
X175878130Y-129583133D01*
X176488791Y-129583665D01*
X177053171Y-129350468D01*
X177485351Y-128919043D01*
X177719533Y-128355070D01*
X177720065Y-127744409D01*
X177486868Y-127180029D01*
X177105618Y-126798112D01*
X177485351Y-126419043D01*
X177719533Y-125855070D01*
X177720065Y-125244409D01*
X177486868Y-124680029D01*
X177105618Y-124298112D01*
X177485351Y-123919043D01*
X177719533Y-123355070D01*
X177720065Y-122744409D01*
X177486868Y-122180029D01*
X177105618Y-121798112D01*
X177485351Y-121419043D01*
X177719533Y-120855070D01*
X177720065Y-120244409D01*
X177486868Y-119680029D01*
X177055443Y-119247849D01*
X177046428Y-119244106D01*
X177085354Y-119128559D01*
X176184800Y-118228005D01*
X175284246Y-119128559D01*
X175323007Y-119243614D01*
X175316429Y-119246332D01*
X174884249Y-119677757D01*
X174650067Y-120241730D01*
X174649535Y-120852391D01*
X174882732Y-121416771D01*
X175263982Y-121798688D01*
X174884249Y-122177757D01*
X174650067Y-122741730D01*
X174649535Y-123352391D01*
X174882732Y-123916771D01*
X175263982Y-124298688D01*
X174884249Y-124677757D01*
X174838306Y-124788400D01*
X173562000Y-124788400D01*
X173271160Y-124846252D01*
X173024599Y-125010999D01*
X172496550Y-125539048D01*
X172496550Y-124652910D01*
X172452272Y-124417593D01*
X172313200Y-124201469D01*
X172101000Y-124056479D01*
X171849110Y-124005470D01*
X170149850Y-124005470D01*
X169914533Y-124049748D01*
X169698409Y-124188820D01*
X169553419Y-124401020D01*
X169502410Y-124652910D01*
X169502410Y-126189200D01*
X166475500Y-126189200D01*
X166184661Y-126247052D01*
X165938099Y-126411799D01*
X165270481Y-127079417D01*
X165240200Y-127066843D01*
X164684439Y-127066358D01*
X164170797Y-127278590D01*
X163777471Y-127671230D01*
X163691151Y-127879112D01*
X163606110Y-127673297D01*
X163213470Y-127279971D01*
X162700200Y-127066843D01*
X162144439Y-127066358D01*
X161630797Y-127278590D01*
X161237471Y-127671230D01*
X161151151Y-127879112D01*
X161066110Y-127673297D01*
X160673470Y-127279971D01*
X160160200Y-127066843D01*
X159604439Y-127066358D01*
X159572045Y-127079743D01*
X156445159Y-123952857D01*
X156870700Y-124129557D01*
X157426461Y-124130042D01*
X157940103Y-123917810D01*
X158333429Y-123525170D01*
X158546557Y-123011900D01*
X158547042Y-122456139D01*
X158471746Y-122273907D01*
X159343130Y-122273907D01*
X159369539Y-122863939D01*
X159544527Y-123286398D01*
X159795790Y-123366625D01*
X160659875Y-122502540D01*
X159795790Y-121638455D01*
X159544527Y-121718682D01*
X159343130Y-122273907D01*
X158471746Y-122273907D01*
X158334810Y-121942497D01*
X157942170Y-121549171D01*
X157734288Y-121462851D01*
X157743971Y-121458850D01*
X159975395Y-121458850D01*
X160839480Y-122322935D01*
X161703565Y-121458850D01*
X161623338Y-121207587D01*
X161068113Y-121006190D01*
X160478081Y-121032599D01*
X160055622Y-121207587D01*
X159975395Y-121458850D01*
X157743971Y-121458850D01*
X157940103Y-121377810D01*
X158333429Y-120985170D01*
X158546557Y-120471900D01*
X158547042Y-119916139D01*
X158334810Y-119402497D01*
X157942170Y-119009171D01*
X157750073Y-118929405D01*
X157880943Y-118875197D01*
X157950408Y-118633013D01*
X157149800Y-117832405D01*
X157135658Y-117846548D01*
X156956053Y-117666943D01*
X156970195Y-117652800D01*
X156956053Y-117638658D01*
X157135658Y-117459053D01*
X157149800Y-117473195D01*
X157950408Y-116672587D01*
X157880943Y-116430403D01*
X157740482Y-116380291D01*
X157940103Y-116297810D01*
X158244000Y-115994443D01*
X158244000Y-116884887D01*
X158130013Y-116852192D01*
X157329405Y-117652800D01*
X158130013Y-118453408D01*
X158372197Y-118383943D01*
X158558944Y-117860498D01*
X158555427Y-117790229D01*
X159274115Y-118508917D01*
X159205794Y-118673453D01*
X159205226Y-119323694D01*
X159453538Y-119924655D01*
X159912927Y-120384846D01*
X160513453Y-120634206D01*
X161163694Y-120634774D01*
X161344475Y-120560077D01*
X162054000Y-121269602D01*
X162054000Y-121693000D01*
X161883170Y-121638455D01*
X161019085Y-122502540D01*
X161033228Y-122516683D01*
X160853623Y-122696288D01*
X160839480Y-122682145D01*
X159975395Y-123546230D01*
X160055622Y-123797493D01*
X160610847Y-123998890D01*
X161200879Y-123972481D01*
X161361104Y-123906114D01*
X161215906Y-124051312D01*
X161136087Y-124018168D01*
X160545464Y-124017652D01*
X159999603Y-124243198D01*
X159581606Y-124660466D01*
X159355108Y-125205933D01*
X159354592Y-125796556D01*
X159580138Y-126342417D01*
X159997406Y-126760414D01*
X160542873Y-126986912D01*
X161133496Y-126987428D01*
X161679357Y-126761882D01*
X162097354Y-126344614D01*
X162323852Y-125799147D01*
X162324368Y-125208524D01*
X162290431Y-125126391D01*
X163351401Y-124065421D01*
X163516148Y-123818859D01*
X163574000Y-123528020D01*
X163574000Y-121652910D01*
X169502410Y-121652910D01*
X169502410Y-123352170D01*
X169546688Y-123587487D01*
X169685760Y-123803611D01*
X169897960Y-123948601D01*
X170149850Y-123999610D01*
X171849110Y-123999610D01*
X172084427Y-123955332D01*
X172300551Y-123816260D01*
X172445541Y-123604060D01*
X172496550Y-123352170D01*
X172496550Y-121652910D01*
X172452272Y-121417593D01*
X172313200Y-121201469D01*
X172101000Y-121056479D01*
X171849110Y-121005470D01*
X170149850Y-121005470D01*
X169914533Y-121049748D01*
X169698409Y-121188820D01*
X169553419Y-121401020D01*
X169502410Y-121652910D01*
X163574000Y-121652910D01*
X163574000Y-120954800D01*
X163516148Y-120663961D01*
X163351401Y-120417399D01*
X162411518Y-119477516D01*
X162474206Y-119326547D01*
X162474208Y-119323694D01*
X169365226Y-119323694D01*
X169613538Y-119924655D01*
X170072927Y-120384846D01*
X170673453Y-120634206D01*
X171323694Y-120634774D01*
X171924655Y-120386462D01*
X172384846Y-119927073D01*
X172634206Y-119326547D01*
X172634774Y-118676306D01*
X172386462Y-118075345D01*
X172119320Y-117807736D01*
X174638342Y-117807736D01*
X174663961Y-118417860D01*
X174848157Y-118862548D01*
X175104641Y-118948954D01*
X176005195Y-118048400D01*
X176364405Y-118048400D01*
X177264959Y-118948954D01*
X177521443Y-118862548D01*
X177731258Y-118289064D01*
X177705639Y-117678940D01*
X177521443Y-117234252D01*
X177264959Y-117147846D01*
X176364405Y-118048400D01*
X176005195Y-118048400D01*
X175104641Y-117147846D01*
X174848157Y-117234252D01*
X174638342Y-117807736D01*
X172119320Y-117807736D01*
X171927073Y-117615154D01*
X171326547Y-117365794D01*
X170676306Y-117365226D01*
X170075345Y-117613538D01*
X169615154Y-118072927D01*
X169365794Y-118673453D01*
X169365226Y-119323694D01*
X162474208Y-119323694D01*
X162474774Y-118676306D01*
X162226462Y-118075345D01*
X161767073Y-117615154D01*
X161166547Y-117365794D01*
X160516306Y-117365226D01*
X160349111Y-117434309D01*
X159764000Y-116849198D01*
X159764000Y-116526600D01*
X159997406Y-116760414D01*
X160542873Y-116986912D01*
X161133496Y-116987428D01*
X161679357Y-116761882D01*
X162097354Y-116344614D01*
X162323852Y-115799147D01*
X162324368Y-115208524D01*
X162098822Y-114662663D01*
X162089087Y-114652910D01*
X169502410Y-114652910D01*
X169502410Y-116352170D01*
X169546688Y-116587487D01*
X169685760Y-116803611D01*
X169897960Y-116948601D01*
X170149850Y-116999610D01*
X171849110Y-116999610D01*
X172084427Y-116955332D01*
X172300551Y-116816260D01*
X172445541Y-116604060D01*
X172496550Y-116352170D01*
X172496550Y-114652910D01*
X172452272Y-114417593D01*
X172313200Y-114201469D01*
X172101000Y-114056479D01*
X171849110Y-114005470D01*
X170149850Y-114005470D01*
X169914533Y-114049748D01*
X169698409Y-114188820D01*
X169553419Y-114401020D01*
X169502410Y-114652910D01*
X162089087Y-114652910D01*
X161681554Y-114244666D01*
X161136087Y-114018168D01*
X160545464Y-114017652D01*
X159999603Y-114243198D01*
X159764000Y-114478390D01*
X159764000Y-113046230D01*
X159975395Y-113046230D01*
X160055622Y-113297493D01*
X160610847Y-113498890D01*
X161200879Y-113472481D01*
X161623338Y-113297493D01*
X161703565Y-113046230D01*
X160839480Y-112182145D01*
X159975395Y-113046230D01*
X159764000Y-113046230D01*
X159764000Y-112856475D01*
X159795790Y-112866625D01*
X160659875Y-112002540D01*
X161019085Y-112002540D01*
X161883170Y-112866625D01*
X162134433Y-112786398D01*
X162335830Y-112231173D01*
X162309421Y-111641141D01*
X162134433Y-111218682D01*
X161883170Y-111138455D01*
X161019085Y-112002540D01*
X160659875Y-112002540D01*
X159795790Y-111138455D01*
X159764000Y-111148605D01*
X159764000Y-110958850D01*
X159975395Y-110958850D01*
X160839480Y-111822935D01*
X161703565Y-110958850D01*
X161623338Y-110707587D01*
X161068113Y-110506190D01*
X160478081Y-110532599D01*
X160055622Y-110707587D01*
X159975395Y-110958850D01*
X159764000Y-110958850D01*
X159764000Y-109755608D01*
X159867444Y-109652164D01*
X159966042Y-109918965D01*
X160575582Y-110145401D01*
X161225377Y-110121341D01*
X161713958Y-109918965D01*
X161812557Y-109652163D01*
X160840000Y-108679605D01*
X160825858Y-108693748D01*
X160646252Y-108514142D01*
X160660395Y-108500000D01*
X161019605Y-108500000D01*
X161992163Y-109472557D01*
X162258965Y-109373958D01*
X162485401Y-108764418D01*
X162461341Y-108114623D01*
X162258965Y-107626042D01*
X161992163Y-107527443D01*
X161019605Y-108500000D01*
X160660395Y-108500000D01*
X160646252Y-108485858D01*
X160825858Y-108306252D01*
X160840000Y-108320395D01*
X161812557Y-107347837D01*
X161713958Y-107081035D01*
X161104418Y-106854599D01*
X160454623Y-106878659D01*
X159966042Y-107081035D01*
X159867444Y-107347836D01*
X159764000Y-107244392D01*
X159764000Y-106235659D01*
X159912927Y-106384846D01*
X160513453Y-106634206D01*
X161163694Y-106634774D01*
X161764655Y-106386462D01*
X162224846Y-105927073D01*
X162294221Y-105760000D01*
X163682138Y-105760000D01*
X169502410Y-111580272D01*
X169502410Y-112852170D01*
X169546688Y-113087487D01*
X169685760Y-113303611D01*
X169897960Y-113448601D01*
X170149850Y-113499610D01*
X171849110Y-113499610D01*
X172084427Y-113455332D01*
X172244401Y-113352391D01*
X174649535Y-113352391D01*
X174882732Y-113916771D01*
X175263982Y-114298688D01*
X174884249Y-114677757D01*
X174650067Y-115241730D01*
X174649535Y-115852391D01*
X174882732Y-116416771D01*
X175314157Y-116848951D01*
X175323172Y-116852694D01*
X175284246Y-116968241D01*
X176184800Y-117868795D01*
X177085354Y-116968241D01*
X177046593Y-116853186D01*
X177053171Y-116850468D01*
X177485351Y-116419043D01*
X177719533Y-115855070D01*
X177720065Y-115244409D01*
X177486868Y-114680029D01*
X177105618Y-114298112D01*
X177485351Y-113919043D01*
X177719533Y-113355070D01*
X177720065Y-112744409D01*
X177486868Y-112180029D01*
X177055443Y-111747849D01*
X176491470Y-111513667D01*
X175880809Y-111513135D01*
X175316429Y-111746332D01*
X174884249Y-112177757D01*
X174650067Y-112741730D01*
X174649535Y-113352391D01*
X172244401Y-113352391D01*
X172300551Y-113316260D01*
X172445541Y-113104060D01*
X172496550Y-112852170D01*
X172496550Y-111152910D01*
X172452272Y-110917593D01*
X172313200Y-110701469D01*
X172101000Y-110556479D01*
X171849110Y-110505470D01*
X170577212Y-110505470D01*
X168895436Y-108823694D01*
X169365226Y-108823694D01*
X169613538Y-109424655D01*
X170072927Y-109884846D01*
X170673453Y-110134206D01*
X171323694Y-110134774D01*
X171924655Y-109886462D01*
X172384846Y-109427073D01*
X172634206Y-108826547D01*
X172634774Y-108176306D01*
X172386462Y-107575345D01*
X171927073Y-107115154D01*
X171326547Y-106865794D01*
X170676306Y-106865226D01*
X170075345Y-107113538D01*
X169615154Y-107572927D01*
X169365794Y-108173453D01*
X169365226Y-108823694D01*
X168895436Y-108823694D01*
X165395436Y-105323694D01*
X169365226Y-105323694D01*
X169613538Y-105924655D01*
X170072927Y-106384846D01*
X170673453Y-106634206D01*
X171323694Y-106634774D01*
X171924655Y-106386462D01*
X172384846Y-105927073D01*
X172634206Y-105326547D01*
X172634774Y-104676306D01*
X172386462Y-104075345D01*
X171927073Y-103615154D01*
X171326547Y-103365794D01*
X170676306Y-103365226D01*
X170075345Y-103613538D01*
X169615154Y-104072927D01*
X169365794Y-104673453D01*
X169365226Y-105323694D01*
X165395436Y-105323694D01*
X164534341Y-104462599D01*
X164287779Y-104297852D01*
X163996940Y-104240000D01*
X162294496Y-104240000D01*
X162226462Y-104075345D01*
X161767073Y-103615154D01*
X161166547Y-103365794D01*
X160516306Y-103365226D01*
X160485069Y-103378133D01*
X160728808Y-103134394D01*
X161163694Y-103134774D01*
X161764655Y-102886462D01*
X162224846Y-102427073D01*
X162474206Y-101826547D01*
X162474208Y-101823694D01*
X169365226Y-101823694D01*
X169613538Y-102424655D01*
X170072927Y-102884846D01*
X170673453Y-103134206D01*
X171323694Y-103134774D01*
X171924655Y-102886462D01*
X172384846Y-102427073D01*
X172634206Y-101826547D01*
X172634774Y-101176306D01*
X172386462Y-100575345D01*
X171927073Y-100115154D01*
X171326547Y-99865794D01*
X170676306Y-99865226D01*
X170075345Y-100113538D01*
X169615154Y-100572927D01*
X169365794Y-101173453D01*
X169365226Y-101823694D01*
X162474208Y-101823694D01*
X162474774Y-101176306D01*
X162226462Y-100575345D01*
X161767073Y-100115154D01*
X161166547Y-99865794D01*
X160516306Y-99865226D01*
X159915345Y-100113538D01*
X159455154Y-100572927D01*
X159205794Y-101173453D01*
X159205226Y-101823694D01*
X159405413Y-102308185D01*
X158466599Y-103246999D01*
X158301852Y-103493561D01*
X158244000Y-103784400D01*
X158244000Y-104071528D01*
X157942170Y-103769171D01*
X157734288Y-103682851D01*
X157940103Y-103597810D01*
X158333429Y-103205170D01*
X158546557Y-102691900D01*
X158547042Y-102136139D01*
X158334810Y-101622497D01*
X157942170Y-101229171D01*
X157734288Y-101142851D01*
X157940103Y-101057810D01*
X158333429Y-100665170D01*
X158546557Y-100151900D01*
X158547042Y-99596139D01*
X158334810Y-99082497D01*
X157942170Y-98689171D01*
X157734288Y-98602851D01*
X157940103Y-98517810D01*
X158134558Y-98323694D01*
X159205226Y-98323694D01*
X159453538Y-98924655D01*
X159912927Y-99384846D01*
X160513453Y-99634206D01*
X161163694Y-99634774D01*
X161764655Y-99386462D01*
X162224846Y-98927073D01*
X162474206Y-98326547D01*
X162474208Y-98323694D01*
X169365226Y-98323694D01*
X169613538Y-98924655D01*
X170072927Y-99384846D01*
X170673453Y-99634206D01*
X171323694Y-99634774D01*
X171924655Y-99386462D01*
X172066491Y-99244873D01*
X173684927Y-99244873D01*
X173924171Y-99823887D01*
X174302896Y-100203273D01*
X173925728Y-100579783D01*
X173685474Y-101158379D01*
X173684927Y-101784873D01*
X173924171Y-102363887D01*
X174302896Y-102743273D01*
X173925728Y-103119783D01*
X173685474Y-103698379D01*
X173684927Y-104324873D01*
X173924171Y-104903887D01*
X174366783Y-105347272D01*
X174945379Y-105587526D01*
X175571873Y-105588073D01*
X176150887Y-105348829D01*
X176594272Y-104906217D01*
X176834526Y-104327621D01*
X176834808Y-104005171D01*
X176906783Y-104077272D01*
X177485379Y-104317526D01*
X178111873Y-104318073D01*
X178690887Y-104078829D01*
X179134272Y-103636217D01*
X179374526Y-103057621D01*
X179375073Y-102431127D01*
X179135829Y-101852113D01*
X178757104Y-101472727D01*
X179134272Y-101096217D01*
X179374526Y-100517621D01*
X179375073Y-99891127D01*
X179135829Y-99312113D01*
X178757104Y-98932727D01*
X179134272Y-98556217D01*
X179374526Y-97977621D01*
X179375073Y-97351127D01*
X179135829Y-96772113D01*
X178693217Y-96328728D01*
X178114621Y-96088474D01*
X177488127Y-96087927D01*
X176909113Y-96327171D01*
X176465728Y-96769783D01*
X176225474Y-97348379D01*
X176225192Y-97670829D01*
X176153217Y-97598728D01*
X175574621Y-97358474D01*
X174948127Y-97357927D01*
X174369113Y-97597171D01*
X173925728Y-98039783D01*
X173685474Y-98618379D01*
X173684927Y-99244873D01*
X172066491Y-99244873D01*
X172384846Y-98927073D01*
X172634206Y-98326547D01*
X172634774Y-97676306D01*
X172386462Y-97075345D01*
X171927073Y-96615154D01*
X171326547Y-96365794D01*
X170676306Y-96365226D01*
X170075345Y-96613538D01*
X169615154Y-97072927D01*
X169365794Y-97673453D01*
X169365226Y-98323694D01*
X162474208Y-98323694D01*
X162474774Y-97676306D01*
X162226462Y-97075345D01*
X161767073Y-96615154D01*
X161166547Y-96365794D01*
X160516306Y-96365226D01*
X159915345Y-96613538D01*
X159455154Y-97072927D01*
X159205794Y-97673453D01*
X159205226Y-98323694D01*
X158134558Y-98323694D01*
X158333429Y-98125170D01*
X158546557Y-97611900D01*
X158547042Y-97056139D01*
X158334810Y-96542497D01*
X157942170Y-96149171D01*
X157734288Y-96062851D01*
X157940103Y-95977810D01*
X158266318Y-95652163D01*
X159867443Y-95652163D01*
X159966042Y-95918965D01*
X160575582Y-96145401D01*
X161225377Y-96121341D01*
X161713958Y-95918965D01*
X161812557Y-95652163D01*
X160840000Y-94679605D01*
X159867443Y-95652163D01*
X158266318Y-95652163D01*
X158333429Y-95585170D01*
X158546557Y-95071900D01*
X158547042Y-94516139D01*
X158431119Y-94235582D01*
X159194599Y-94235582D01*
X159218659Y-94885377D01*
X159421035Y-95373958D01*
X159687837Y-95472557D01*
X160660395Y-94500000D01*
X161019605Y-94500000D01*
X161992163Y-95472557D01*
X162258965Y-95373958D01*
X162485401Y-94764418D01*
X162461341Y-94114623D01*
X162258965Y-93626042D01*
X161992163Y-93527443D01*
X161019605Y-94500000D01*
X160660395Y-94500000D01*
X159687837Y-93527443D01*
X159421035Y-93626042D01*
X159194599Y-94235582D01*
X158431119Y-94235582D01*
X158334810Y-94002497D01*
X157942170Y-93609171D01*
X157734288Y-93522851D01*
X157940103Y-93437810D01*
X158030233Y-93347837D01*
X159867443Y-93347837D01*
X160840000Y-94320395D01*
X161812557Y-93347837D01*
X161713958Y-93081035D01*
X161104418Y-92854599D01*
X160454623Y-92878659D01*
X159966042Y-93081035D01*
X159867443Y-93347837D01*
X158030233Y-93347837D01*
X158333429Y-93045170D01*
X158546557Y-92531900D01*
X158546888Y-92152163D01*
X159867443Y-92152163D01*
X159966042Y-92418965D01*
X160575582Y-92645401D01*
X161225377Y-92621341D01*
X161713958Y-92418965D01*
X161812557Y-92152163D01*
X160840000Y-91179605D01*
X159867443Y-92152163D01*
X158546888Y-92152163D01*
X158547042Y-91976139D01*
X158334810Y-91462497D01*
X157942170Y-91069171D01*
X157734288Y-90982851D01*
X157940103Y-90897810D01*
X158102614Y-90735582D01*
X159194599Y-90735582D01*
X159218659Y-91385377D01*
X159421035Y-91873958D01*
X159687837Y-91972557D01*
X160660395Y-91000000D01*
X161019605Y-91000000D01*
X161992163Y-91972557D01*
X162258965Y-91873958D01*
X162463380Y-91323694D01*
X169365226Y-91323694D01*
X169613538Y-91924655D01*
X170072927Y-92384846D01*
X170673453Y-92634206D01*
X171323694Y-92634774D01*
X171924655Y-92386462D01*
X172384846Y-91927073D01*
X172634206Y-91326547D01*
X172634774Y-90676306D01*
X172386462Y-90075345D01*
X171927073Y-89615154D01*
X171326547Y-89365794D01*
X170676306Y-89365226D01*
X170075345Y-89613538D01*
X169615154Y-90072927D01*
X169365794Y-90673453D01*
X169365226Y-91323694D01*
X162463380Y-91323694D01*
X162485401Y-91264418D01*
X162461341Y-90614623D01*
X162258965Y-90126042D01*
X161992163Y-90027443D01*
X161019605Y-91000000D01*
X160660395Y-91000000D01*
X159687837Y-90027443D01*
X159421035Y-90126042D01*
X159194599Y-90735582D01*
X158102614Y-90735582D01*
X158333429Y-90505170D01*
X158546557Y-89991900D01*
X158546682Y-89847837D01*
X159867443Y-89847837D01*
X160840000Y-90820395D01*
X161812557Y-89847837D01*
X161713958Y-89581035D01*
X161104418Y-89354599D01*
X160454623Y-89378659D01*
X159966042Y-89581035D01*
X159867443Y-89847837D01*
X158546682Y-89847837D01*
X158547042Y-89436139D01*
X158334810Y-88922497D01*
X157942170Y-88529171D01*
X157734288Y-88442851D01*
X157940103Y-88357810D01*
X158333429Y-87965170D01*
X158403443Y-87796556D01*
X159354592Y-87796556D01*
X159580138Y-88342417D01*
X159997406Y-88760414D01*
X160542873Y-88986912D01*
X161133496Y-88987428D01*
X161679357Y-88761882D01*
X162097354Y-88344614D01*
X162323852Y-87799147D01*
X162324368Y-87208524D01*
X162098822Y-86662663D01*
X162089087Y-86652910D01*
X169502410Y-86652910D01*
X169502410Y-88352170D01*
X169546688Y-88587487D01*
X169685760Y-88803611D01*
X169897960Y-88948601D01*
X170149850Y-88999610D01*
X171849110Y-88999610D01*
X172084427Y-88955332D01*
X172300551Y-88816260D01*
X172445541Y-88604060D01*
X172496550Y-88352170D01*
X172496550Y-86652910D01*
X172452272Y-86417593D01*
X172313200Y-86201469D01*
X172101000Y-86056479D01*
X171849110Y-86005470D01*
X170149850Y-86005470D01*
X169914533Y-86049748D01*
X169698409Y-86188820D01*
X169553419Y-86401020D01*
X169502410Y-86652910D01*
X162089087Y-86652910D01*
X161681554Y-86244666D01*
X161136087Y-86018168D01*
X160545464Y-86017652D01*
X159999603Y-86243198D01*
X159581606Y-86660466D01*
X159355108Y-87205933D01*
X159354592Y-87796556D01*
X158403443Y-87796556D01*
X158546557Y-87451900D01*
X158547042Y-86896139D01*
X158334810Y-86382497D01*
X157942170Y-85989171D01*
X157734288Y-85902851D01*
X157940103Y-85817810D01*
X158333429Y-85425170D01*
X158490778Y-85046230D01*
X159975395Y-85046230D01*
X160055622Y-85297493D01*
X160610847Y-85498890D01*
X161200879Y-85472481D01*
X161623338Y-85297493D01*
X161703565Y-85046230D01*
X160839480Y-84182145D01*
X159975395Y-85046230D01*
X158490778Y-85046230D01*
X158546557Y-84911900D01*
X158547042Y-84356139D01*
X158334810Y-83842497D01*
X158266340Y-83773907D01*
X159343130Y-83773907D01*
X159369539Y-84363939D01*
X159544527Y-84786398D01*
X159795790Y-84866625D01*
X160659875Y-84002540D01*
X161019085Y-84002540D01*
X161883170Y-84866625D01*
X162134433Y-84786398D01*
X162335830Y-84231173D01*
X162309421Y-83641141D01*
X162134433Y-83218682D01*
X161928442Y-83152910D01*
X169502410Y-83152910D01*
X169502410Y-84852170D01*
X169546688Y-85087487D01*
X169685760Y-85303611D01*
X169897960Y-85448601D01*
X170149850Y-85499610D01*
X171849110Y-85499610D01*
X172084427Y-85455332D01*
X172300551Y-85316260D01*
X172445541Y-85104060D01*
X172496550Y-84852170D01*
X172496550Y-83152910D01*
X172452272Y-82917593D01*
X172313200Y-82701469D01*
X172101000Y-82556479D01*
X171849110Y-82505470D01*
X170149850Y-82505470D01*
X169914533Y-82549748D01*
X169698409Y-82688820D01*
X169553419Y-82901020D01*
X169502410Y-83152910D01*
X161928442Y-83152910D01*
X161883170Y-83138455D01*
X161019085Y-84002540D01*
X160659875Y-84002540D01*
X159795790Y-83138455D01*
X159544527Y-83218682D01*
X159343130Y-83773907D01*
X158266340Y-83773907D01*
X157942170Y-83449171D01*
X157428900Y-83236043D01*
X156873139Y-83235558D01*
X156359497Y-83447790D01*
X155966171Y-83840430D01*
X155753043Y-84353700D01*
X155752558Y-84909461D01*
X155964790Y-85423103D01*
X156357430Y-85816429D01*
X156565312Y-85902749D01*
X156359497Y-85987790D01*
X155966171Y-86380430D01*
X155753043Y-86893700D01*
X155752558Y-87449461D01*
X155964790Y-87963103D01*
X156357430Y-88356429D01*
X156565312Y-88442749D01*
X156359497Y-88527790D01*
X155966171Y-88920430D01*
X155753043Y-89433700D01*
X155752558Y-89989461D01*
X155964790Y-90503103D01*
X156357430Y-90896429D01*
X156565312Y-90982749D01*
X156359497Y-91067790D01*
X155966171Y-91460430D01*
X155753043Y-91973700D01*
X155752558Y-92529461D01*
X155964790Y-93043103D01*
X156357430Y-93436429D01*
X156565312Y-93522749D01*
X156359497Y-93607790D01*
X155966171Y-94000430D01*
X155753043Y-94513700D01*
X155752558Y-95069461D01*
X155964790Y-95583103D01*
X156357430Y-95976429D01*
X156565312Y-96062749D01*
X156359497Y-96147790D01*
X155966171Y-96540430D01*
X155753043Y-97053700D01*
X155752558Y-97609461D01*
X155964790Y-98123103D01*
X156357430Y-98516429D01*
X156565312Y-98602749D01*
X156359497Y-98687790D01*
X155966171Y-99080430D01*
X155753043Y-99593700D01*
X155752558Y-100149461D01*
X155964790Y-100663103D01*
X156357430Y-101056429D01*
X156565312Y-101142749D01*
X156359497Y-101227790D01*
X155966171Y-101620430D01*
X155753043Y-102133700D01*
X155752558Y-102689461D01*
X155964790Y-103203103D01*
X156357430Y-103596429D01*
X156565312Y-103682749D01*
X156359497Y-103767790D01*
X155966171Y-104160430D01*
X155753043Y-104673700D01*
X155752558Y-105229461D01*
X155964790Y-105743103D01*
X156357430Y-106136429D01*
X156565312Y-106222749D01*
X156359497Y-106307790D01*
X155966171Y-106700430D01*
X155753043Y-107213700D01*
X155752558Y-107769461D01*
X155964790Y-108283103D01*
X156357430Y-108676429D01*
X156565312Y-108762749D01*
X156359497Y-108847790D01*
X155966171Y-109240430D01*
X155753043Y-109753700D01*
X155752558Y-110309461D01*
X155765943Y-110341855D01*
X153488199Y-112619599D01*
X153323452Y-112866161D01*
X153265600Y-113157000D01*
X153265600Y-124256800D01*
X153323452Y-124547639D01*
X153488199Y-124794201D01*
X156261440Y-127567442D01*
X156157471Y-127671230D01*
X156071151Y-127879112D01*
X155986110Y-127673297D01*
X155593470Y-127279971D01*
X155080200Y-127066843D01*
X154524439Y-127066358D01*
X154010797Y-127278590D01*
X153617471Y-127671230D01*
X153404343Y-128184500D01*
X153403858Y-128740261D01*
X153616090Y-129253903D01*
X154008730Y-129647229D01*
X154058271Y-129667800D01*
X150464960Y-129667800D01*
X150511403Y-129648610D01*
X150904729Y-129255970D01*
X151117857Y-128742700D01*
X151118342Y-128186939D01*
X150906110Y-127673297D01*
X150513470Y-127279971D01*
X150000200Y-127066843D01*
X149444439Y-127066358D01*
X148930797Y-127278590D01*
X148537471Y-127671230D01*
X148451151Y-127879112D01*
X148366110Y-127673297D01*
X147973470Y-127279971D01*
X147460200Y-127066843D01*
X146904439Y-127066358D01*
X146390797Y-127278590D01*
X145997471Y-127671230D01*
X145917705Y-127863327D01*
X145863497Y-127732457D01*
X145621313Y-127662992D01*
X144820705Y-128463600D01*
X145621313Y-129264208D01*
X145863497Y-129194743D01*
X145913609Y-129054282D01*
X145996090Y-129253903D01*
X146388730Y-129647229D01*
X146438271Y-129667800D01*
X145377462Y-129667800D01*
X145441708Y-129443813D01*
X144641100Y-128643205D01*
X143840492Y-129443813D01*
X143904738Y-129667800D01*
X142844960Y-129667800D01*
X142891403Y-129648610D01*
X143284729Y-129255970D01*
X143364495Y-129063873D01*
X143418703Y-129194743D01*
X143660887Y-129264208D01*
X144461495Y-128463600D01*
X143660887Y-127662992D01*
X143418703Y-127732457D01*
X143368591Y-127872918D01*
X143286110Y-127673297D01*
X143096532Y-127483387D01*
X143840492Y-127483387D01*
X144641100Y-128283995D01*
X145441708Y-127483387D01*
X145372243Y-127241203D01*
X144848798Y-127054456D01*
X144293732Y-127082238D01*
X143909957Y-127241203D01*
X143840492Y-127483387D01*
X143096532Y-127483387D01*
X142893470Y-127279971D01*
X142380200Y-127066843D01*
X141824439Y-127066358D01*
X141310797Y-127278590D01*
X140917471Y-127671230D01*
X140831151Y-127879112D01*
X140746110Y-127673297D01*
X140353470Y-127279971D01*
X139840200Y-127066843D01*
X139284439Y-127066358D01*
X138770797Y-127278590D01*
X138377471Y-127671230D01*
X138291151Y-127879112D01*
X138206110Y-127673297D01*
X137813470Y-127279971D01*
X137300200Y-127066843D01*
X136744439Y-127066358D01*
X136230797Y-127278590D01*
X135837471Y-127671230D01*
X135751151Y-127879112D01*
X135666110Y-127673297D01*
X135273470Y-127279971D01*
X134760200Y-127066843D01*
X134204439Y-127066358D01*
X133690797Y-127278590D01*
X133297471Y-127671230D01*
X133211151Y-127879112D01*
X133126110Y-127673297D01*
X132733470Y-127279971D01*
X132220200Y-127066843D01*
X131664439Y-127066358D01*
X131150797Y-127278590D01*
X130757471Y-127671230D01*
X130682200Y-127852503D01*
X130682200Y-125171200D01*
X130630057Y-124909062D01*
X130481568Y-124686832D01*
X130035527Y-124240791D01*
X129716870Y-105383800D01*
X151790400Y-105383800D01*
X152052538Y-105331657D01*
X152274768Y-105183168D01*
X152423257Y-104960938D01*
X152475400Y-104698800D01*
X152475400Y-85598000D01*
X152423257Y-85335862D01*
X152274768Y-85113632D01*
X152052538Y-84965143D01*
X151790400Y-84913000D01*
X129370942Y-84913000D01*
X129337920Y-82958850D01*
X159975395Y-82958850D01*
X160839480Y-83822935D01*
X161703565Y-82958850D01*
X161623338Y-82707587D01*
X161068113Y-82506190D01*
X160478081Y-82532599D01*
X160055622Y-82707587D01*
X159975395Y-82958850D01*
X129337920Y-82958850D01*
X129305965Y-81067907D01*
X129624730Y-81387229D01*
X130138000Y-81600357D01*
X130693761Y-81600842D01*
X131207403Y-81388610D01*
X131600729Y-80995970D01*
X131687049Y-80788088D01*
X131772090Y-80993903D01*
X132164730Y-81387229D01*
X132678000Y-81600357D01*
X133233761Y-81600842D01*
X133747403Y-81388610D01*
X134140729Y-80995970D01*
X134227049Y-80788088D01*
X134312090Y-80993903D01*
X134704730Y-81387229D01*
X135218000Y-81600357D01*
X135773761Y-81600842D01*
X136287403Y-81388610D01*
X136680729Y-80995970D01*
X136767049Y-80788088D01*
X136852090Y-80993903D01*
X137244730Y-81387229D01*
X137758000Y-81600357D01*
X138313761Y-81600842D01*
X138827403Y-81388610D01*
X139220729Y-80995970D01*
X139307049Y-80788088D01*
X139392090Y-80993903D01*
X139784730Y-81387229D01*
X140298000Y-81600357D01*
X140853761Y-81600842D01*
X141367403Y-81388610D01*
X141760729Y-80995970D01*
X141847049Y-80788088D01*
X141932090Y-80993903D01*
X142324730Y-81387229D01*
X142838000Y-81600357D01*
X143393761Y-81600842D01*
X143907403Y-81388610D01*
X144300729Y-80995970D01*
X144387049Y-80788088D01*
X144472090Y-80993903D01*
X144864730Y-81387229D01*
X145378000Y-81600357D01*
X145933761Y-81600842D01*
X146447403Y-81388610D01*
X146840729Y-80995970D01*
X147053857Y-80482700D01*
X147054342Y-79926939D01*
X146842110Y-79413297D01*
X146498813Y-79069400D01*
X148879898Y-79069400D01*
X148537471Y-79411230D01*
M02*
