M48
;DRILL file {KiCad 4.0.2-stable} date Tuesday, December 06, 2016 'PMt' 01:02:25 PM
;FORMAT={-:-/ absolute / inch / decimal}
FMAT,2
INCH,TZ
T1C0.028
T2C0.039
T3C0.040
T4C0.043
T5C0.100
T6C0.128
%
G90
G05
M72
T1
X6.3323Y-3.3072
X6.3323Y-3.445
X6.3323Y-4.4095
X6.3323Y-4.5473
X6.3323Y-4.8229
X6.3323Y-4.941
X6.7323Y-3.3072
X6.7323Y-3.445
X6.7323Y-4.4095
X6.7323Y-4.5473
X6.7323Y-4.8229
X6.7323Y-4.941
T2
X6.3323Y-3.5827
X6.3323Y-3.7205
X6.3323Y-3.8583
X6.3323Y-3.9961
X6.3323Y-4.1339
X6.3323Y-4.2717
X6.3323Y-4.685
X6.7323Y-3.5827
X6.7323Y-3.7205
X6.7323Y-3.8583
X6.7323Y-3.9961
X6.7323Y-4.1339
X6.7323Y-4.2717
X6.7323Y-4.685
T3
X4.8345Y-3.1576
X4.9345Y-3.1576
X5.0345Y-3.1576
X5.1345Y-3.1576
X5.1945Y-5.0576
X5.2345Y-3.1576
X5.2945Y-5.0576
X5.3345Y-3.1576
X5.3945Y-5.0576
X5.4345Y-3.1576
X5.4945Y-5.0576
X5.5345Y-3.1576
X5.5945Y-5.0576
X5.6345Y-3.1576
X5.6945Y-5.0576
X5.7345Y-3.1576
X5.7945Y-5.0576
X5.8945Y-3.1576
X5.8945Y-5.0576
X5.9945Y-3.1576
X6.0945Y-3.1576
X6.0945Y-5.0576
X6.187Y-3.332
X6.187Y-3.432
X6.187Y-3.532
X6.187Y-3.632
X6.187Y-3.732
X6.187Y-3.832
X6.187Y-3.932
X6.187Y-4.032
X6.187Y-4.132
X6.187Y-4.232
X6.187Y-4.332
X6.187Y-4.432
X6.187Y-4.532
X6.187Y-4.632
X6.187Y-4.732
X6.187Y-4.832
X6.1945Y-3.1576
X6.1945Y-5.0576
X6.2945Y-3.1576
X6.2945Y-5.0576
X6.3945Y-3.1576
X6.3945Y-5.0576
X6.4945Y-3.1576
X6.4945Y-5.0576
X6.5945Y-3.1576
X6.5945Y-5.0576
X6.898Y-3.315
X6.898Y-3.415
X6.898Y-3.515
X6.9Y-3.895
X6.9Y-3.995
X6.9Y-4.095
X6.998Y-3.265
X6.998Y-3.365
X6.998Y-3.465
X7.Y-3.845
X7.Y-3.945
X7.Y-4.045
T4
X6.9364Y-4.4507
X6.9364Y-4.5491
X6.9364Y-4.6476
X6.9364Y-4.746
X6.9364Y-4.8444
X6.9364Y-4.9429
X6.9364Y-5.0413
T5
X4.5935Y-3.3832
X4.5935Y-4.7808
X7.4876Y-4.4901
X7.4876Y-5.0019
T6
X7.248Y-3.19
X7.248Y-3.59
X7.25Y-3.77
X7.25Y-4.17
T0
M30
