G04 #@! TF.FileFunction,Legend,Top*
%FSLAX46Y46*%
G04 Gerber Fmt 4.6, Leading zero omitted, Abs format (unit mm)*
G04 Created by KiCad (PCBNEW 4.0.2-stable) date Tuesday, December 06, 2016 'PMt' 03:41:46 PM*
%MOMM*%
G01*
G04 APERTURE LIST*
%ADD10C,0.100000*%
%ADD11C,0.150000*%
%ADD12C,0.203200*%
%ADD13C,0.254000*%
%ADD14C,0.304800*%
G04 APERTURE END LIST*
D10*
D11*
X163633480Y-125502540D02*
X162236480Y-125502540D01*
X168078480Y-125502540D02*
X169602480Y-125502540D01*
X167697480Y-126264540D02*
X167697480Y-124740540D01*
X167951480Y-126264540D02*
X167951480Y-124740540D01*
X168205480Y-125502540D02*
X168205480Y-124740540D01*
X168205480Y-124740540D02*
X163633480Y-124740540D01*
X163633480Y-124740540D02*
X163633480Y-126264540D01*
X163633480Y-126264540D02*
X168205480Y-126264540D01*
X168205480Y-126264540D02*
X168205480Y-125502540D01*
X163633480Y-122502540D02*
X162236480Y-122502540D01*
X168078480Y-122502540D02*
X169602480Y-122502540D01*
X167697480Y-123264540D02*
X167697480Y-121740540D01*
X167951480Y-123264540D02*
X167951480Y-121740540D01*
X168205480Y-122502540D02*
X168205480Y-121740540D01*
X168205480Y-121740540D02*
X163633480Y-121740540D01*
X163633480Y-121740540D02*
X163633480Y-123264540D01*
X163633480Y-123264540D02*
X168205480Y-123264540D01*
X168205480Y-123264540D02*
X168205480Y-122502540D01*
X163633480Y-87502540D02*
X162236480Y-87502540D01*
X168078480Y-87502540D02*
X169602480Y-87502540D01*
X167697480Y-88264540D02*
X167697480Y-86740540D01*
X167951480Y-88264540D02*
X167951480Y-86740540D01*
X168205480Y-87502540D02*
X168205480Y-86740540D01*
X168205480Y-86740540D02*
X163633480Y-86740540D01*
X163633480Y-86740540D02*
X163633480Y-88264540D01*
X163633480Y-88264540D02*
X168205480Y-88264540D01*
X168205480Y-88264540D02*
X168205480Y-87502540D01*
X163633480Y-84002540D02*
X162236480Y-84002540D01*
X168078480Y-84002540D02*
X169602480Y-84002540D01*
X167697480Y-84764540D02*
X167697480Y-83240540D01*
X167951480Y-84764540D02*
X167951480Y-83240540D01*
X168205480Y-84002540D02*
X168205480Y-83240540D01*
X168205480Y-83240540D02*
X163633480Y-83240540D01*
X163633480Y-83240540D02*
X163633480Y-84764540D01*
X163633480Y-84764540D02*
X168205480Y-84764540D01*
X168205480Y-84764540D02*
X168205480Y-84002540D01*
X163633480Y-115502540D02*
X162236480Y-115502540D01*
X168078480Y-115502540D02*
X169602480Y-115502540D01*
X167697480Y-116264540D02*
X167697480Y-114740540D01*
X167951480Y-116264540D02*
X167951480Y-114740540D01*
X168205480Y-115502540D02*
X168205480Y-114740540D01*
X168205480Y-114740540D02*
X163633480Y-114740540D01*
X163633480Y-114740540D02*
X163633480Y-116264540D01*
X163633480Y-116264540D02*
X168205480Y-116264540D01*
X168205480Y-116264540D02*
X168205480Y-115502540D01*
X163633480Y-112002540D02*
X162236480Y-112002540D01*
X168078480Y-112002540D02*
X169602480Y-112002540D01*
X167697480Y-112764540D02*
X167697480Y-111240540D01*
X167951480Y-112764540D02*
X167951480Y-111240540D01*
X168205480Y-112002540D02*
X168205480Y-111240540D01*
X168205480Y-111240540D02*
X163633480Y-111240540D01*
X163633480Y-111240540D02*
X163633480Y-112764540D01*
X163633480Y-112764540D02*
X168205480Y-112764540D01*
X168205480Y-112764540D02*
X168205480Y-112002540D01*
X168460000Y-120270000D02*
X163380000Y-120270000D01*
X163380000Y-120270000D02*
X163380000Y-117730000D01*
X163380000Y-117730000D02*
X168460000Y-117730000D01*
X168460000Y-117730000D02*
X168460000Y-120270000D01*
X168460000Y-119000000D02*
X169730000Y-119000000D01*
X163380000Y-119000000D02*
X162110000Y-119000000D01*
X168460000Y-102770000D02*
X163380000Y-102770000D01*
X163380000Y-102770000D02*
X163380000Y-100230000D01*
X163380000Y-100230000D02*
X168460000Y-100230000D01*
X168460000Y-100230000D02*
X168460000Y-102770000D01*
X168460000Y-101500000D02*
X169730000Y-101500000D01*
X163380000Y-101500000D02*
X162110000Y-101500000D01*
X168460000Y-99270000D02*
X163380000Y-99270000D01*
X163380000Y-99270000D02*
X163380000Y-96730000D01*
X163380000Y-96730000D02*
X168460000Y-96730000D01*
X168460000Y-96730000D02*
X168460000Y-99270000D01*
X168460000Y-98000000D02*
X169730000Y-98000000D01*
X163380000Y-98000000D02*
X162110000Y-98000000D01*
X168460000Y-95770000D02*
X163380000Y-95770000D01*
X163380000Y-95770000D02*
X163380000Y-93230000D01*
X163380000Y-93230000D02*
X168460000Y-93230000D01*
X168460000Y-93230000D02*
X168460000Y-95770000D01*
X168460000Y-94500000D02*
X169730000Y-94500000D01*
X163380000Y-94500000D02*
X162110000Y-94500000D01*
X168460000Y-92270000D02*
X163380000Y-92270000D01*
X163380000Y-92270000D02*
X163380000Y-89730000D01*
X163380000Y-89730000D02*
X168460000Y-89730000D01*
X168460000Y-89730000D02*
X168460000Y-92270000D01*
X168460000Y-91000000D02*
X169730000Y-91000000D01*
X163380000Y-91000000D02*
X162110000Y-91000000D01*
X168460000Y-106270000D02*
X163380000Y-106270000D01*
X163380000Y-106270000D02*
X163380000Y-103730000D01*
X163380000Y-103730000D02*
X168460000Y-103730000D01*
X168460000Y-103730000D02*
X168460000Y-106270000D01*
X168460000Y-105000000D02*
X169730000Y-105000000D01*
X163380000Y-105000000D02*
X162110000Y-105000000D01*
X168460000Y-109770000D02*
X163380000Y-109770000D01*
X163380000Y-109770000D02*
X163380000Y-107230000D01*
X163380000Y-107230000D02*
X168460000Y-107230000D01*
X168460000Y-107230000D02*
X168460000Y-109770000D01*
X168460000Y-108500000D02*
X169730000Y-108500000D01*
X163380000Y-108500000D02*
X162110000Y-108500000D01*
D12*
X189357000Y-93980000D02*
X173736000Y-93980000D01*
X173736000Y-93980000D02*
X173736000Y-107696000D01*
X173736000Y-107696000D02*
X189357000Y-107696000D01*
X189357000Y-93980000D02*
X189357000Y-107696000D01*
X189357000Y-107696000D02*
X192278000Y-107696000D01*
X192278000Y-107696000D02*
X192278000Y-93980000D01*
X192278000Y-93980000D02*
X189357000Y-93980000D01*
D11*
X143752100Y-81473600D02*
X142482100Y-81473600D01*
X142482100Y-81473600D02*
X141847100Y-80838600D01*
X141847100Y-80838600D02*
X141212100Y-81473600D01*
X141212100Y-81473600D02*
X139942100Y-81473600D01*
X139942100Y-81473600D02*
X139307100Y-80838600D01*
X139307100Y-80838600D02*
X138672100Y-81473600D01*
X138672100Y-81473600D02*
X137402100Y-81473600D01*
X137402100Y-81473600D02*
X136767100Y-80838600D01*
X136767100Y-80838600D02*
X136132100Y-81473600D01*
X136132100Y-81473600D02*
X134862100Y-81473600D01*
X134862100Y-81473600D02*
X134227100Y-80838600D01*
X134227100Y-80838600D02*
X133592100Y-81473600D01*
X133592100Y-81473600D02*
X132449100Y-81473600D01*
X132449100Y-81473600D02*
X132322100Y-81473600D01*
X132322100Y-81473600D02*
X131687100Y-80838600D01*
X131687100Y-80838600D02*
X131052100Y-81473600D01*
X131052100Y-81473600D02*
X129782100Y-81473600D01*
X129782100Y-81473600D02*
X129147100Y-80838600D01*
X129147100Y-80838600D02*
X128512100Y-81473600D01*
X128512100Y-81473600D02*
X127242100Y-81473600D01*
X127242100Y-81473600D02*
X126607100Y-80838600D01*
X126607100Y-80838600D02*
X125972100Y-81473600D01*
X125972100Y-81473600D02*
X124702100Y-81473600D01*
X124702100Y-81473600D02*
X124067100Y-80838600D01*
X124067100Y-80838600D02*
X123432100Y-81473600D01*
X123432100Y-81473600D02*
X122162100Y-81473600D01*
X122162100Y-81473600D02*
X121527100Y-80838600D01*
X121527100Y-79568600D02*
X121527100Y-80838600D01*
X128512100Y-78933600D02*
X127242100Y-78933600D01*
X127242100Y-78933600D02*
X126607100Y-79568600D01*
X126607100Y-79568600D02*
X125972100Y-78933600D01*
X125972100Y-78933600D02*
X124702100Y-78933600D01*
X124702100Y-78933600D02*
X124067100Y-79568600D01*
X124067100Y-79568600D02*
X123432100Y-78933600D01*
X123432100Y-78933600D02*
X122162100Y-78933600D01*
X122162100Y-78933600D02*
X121527100Y-79568600D01*
X143752100Y-78933600D02*
X142482100Y-78933600D01*
X142482100Y-78933600D02*
X141847100Y-79568600D01*
X141847100Y-79568600D02*
X141212100Y-78933600D01*
X141212100Y-78933600D02*
X139942100Y-78933600D01*
X139942100Y-78933600D02*
X139307100Y-79568600D01*
X139307100Y-79568600D02*
X138672100Y-78933600D01*
X138672100Y-78933600D02*
X137402100Y-78933600D01*
X137402100Y-78933600D02*
X136767100Y-79568600D01*
X136767100Y-79568600D02*
X136132100Y-78933600D01*
X136132100Y-78933600D02*
X134989100Y-78933600D01*
X134989100Y-78933600D02*
X134354100Y-79568600D01*
X134354100Y-79568600D02*
X133719100Y-78933600D01*
X133719100Y-78933600D02*
X132322100Y-78933600D01*
X132322100Y-78933600D02*
X131687100Y-79568600D01*
X131687100Y-79568600D02*
X131052100Y-78933600D01*
X131052100Y-78933600D02*
X129782100Y-78933600D01*
X129782100Y-78933600D02*
X129147100Y-79568600D01*
X129147100Y-79568600D02*
X128512100Y-78933600D01*
X145022100Y-78933600D02*
X146165100Y-78933600D01*
X146292100Y-81473600D02*
X145022100Y-81473600D01*
X146927100Y-80838600D02*
X146927100Y-79441600D01*
X146927100Y-80838600D02*
X146292100Y-81473600D01*
X145022100Y-81473600D02*
X144387100Y-80838600D01*
X144387100Y-80838600D02*
X143752100Y-81473600D01*
X144387100Y-79568600D02*
X143752100Y-78933600D01*
X145022100Y-78933600D02*
X144387100Y-79568600D01*
X146927100Y-79441600D02*
X146419100Y-78933600D01*
X146419100Y-78933600D02*
X146165100Y-78933600D01*
X165596100Y-81473600D02*
X164326100Y-81473600D01*
X164326100Y-81473600D02*
X163691100Y-80838600D01*
X163691100Y-80838600D02*
X163056100Y-81473600D01*
X163056100Y-81473600D02*
X161786100Y-81473600D01*
X161786100Y-81473600D02*
X161151100Y-80838600D01*
X161151100Y-80838600D02*
X160516100Y-81473600D01*
X160516100Y-81473600D02*
X159246100Y-81473600D01*
X159246100Y-81473600D02*
X158611100Y-80838600D01*
X158611100Y-80838600D02*
X157976100Y-81473600D01*
X157976100Y-81473600D02*
X156706100Y-81473600D01*
X156706100Y-81473600D02*
X156071100Y-80838600D01*
X156071100Y-80838600D02*
X155436100Y-81473600D01*
X155436100Y-81473600D02*
X154166100Y-81473600D01*
X154166100Y-81473600D02*
X153531100Y-80838600D01*
X153531100Y-80838600D02*
X152896100Y-81473600D01*
X152896100Y-81473600D02*
X151626100Y-81473600D01*
X151626100Y-81473600D02*
X150991100Y-80838600D01*
X150991100Y-80838600D02*
X150356100Y-81473600D01*
X150356100Y-81473600D02*
X149086100Y-81473600D01*
X149086100Y-81473600D02*
X148451100Y-80838600D01*
X148451100Y-80838600D02*
X148451100Y-79568600D01*
X148451100Y-79568600D02*
X149086100Y-78933600D01*
X149086100Y-78933600D02*
X150356100Y-78933600D01*
X150356100Y-78933600D02*
X150991100Y-79568600D01*
X150991100Y-79568600D02*
X151626100Y-78933600D01*
X151626100Y-78933600D02*
X152896100Y-78933600D01*
X152896100Y-78933600D02*
X153531100Y-79568600D01*
X153531100Y-79568600D02*
X154166100Y-78933600D01*
X154166100Y-78933600D02*
X155436100Y-78933600D01*
X155436100Y-78933600D02*
X156071100Y-79568600D01*
X156071100Y-79568600D02*
X156706100Y-78933600D01*
X156706100Y-78933600D02*
X157976100Y-78933600D01*
X157976100Y-78933600D02*
X158611100Y-79568600D01*
X158611100Y-79568600D02*
X159246100Y-78933600D01*
X159246100Y-78933600D02*
X160516100Y-78933600D01*
X160516100Y-78933600D02*
X161151100Y-79568600D01*
X161151100Y-79568600D02*
X161786100Y-78933600D01*
X161786100Y-78933600D02*
X163056100Y-78933600D01*
X163056100Y-78933600D02*
X163691100Y-79568600D01*
X163691100Y-79568600D02*
X164326100Y-78933600D01*
X164326100Y-78933600D02*
X165596100Y-78933600D01*
X165596100Y-78933600D02*
X166231100Y-79568600D01*
X166231100Y-79568600D02*
X166866100Y-78933600D01*
X166866100Y-78933600D02*
X168136100Y-78933600D01*
X168136100Y-78933600D02*
X168771100Y-79568600D01*
X165596100Y-81473600D02*
X166231100Y-80838600D01*
X166231100Y-80838600D02*
X165596100Y-81473600D01*
X166866100Y-81473600D02*
X168136100Y-81473600D01*
X168771100Y-79568600D02*
X168771100Y-80838600D01*
X168771100Y-80838600D02*
X168136100Y-81473600D01*
X166866100Y-81473600D02*
X166231100Y-80838600D01*
X160516100Y-127193600D02*
X159246100Y-127193600D01*
X159246100Y-127193600D02*
X158611100Y-127828600D01*
X158611100Y-127828600D02*
X157976100Y-127193600D01*
X157976100Y-127193600D02*
X156706100Y-127193600D01*
X156706100Y-127193600D02*
X156071100Y-127828600D01*
X156071100Y-127828600D02*
X155436100Y-127193600D01*
X155436100Y-127193600D02*
X154166100Y-127193600D01*
X154166100Y-127193600D02*
X153531100Y-127828600D01*
X161786100Y-127193600D02*
X163056100Y-127193600D01*
X161151100Y-129098600D02*
X161786100Y-129733600D01*
X161786100Y-129733600D02*
X163056100Y-129733600D01*
X163056100Y-129733600D02*
X163691100Y-129098600D01*
X163691100Y-129098600D02*
X164326100Y-129733600D01*
X164326100Y-129733600D02*
X165596100Y-129733600D01*
X165596100Y-129733600D02*
X166231100Y-129098600D01*
X166231100Y-129098600D02*
X166866100Y-129733600D01*
X166866100Y-129733600D02*
X168136100Y-129733600D01*
X168136100Y-129733600D02*
X168771100Y-129098600D01*
X168771100Y-129098600D02*
X168771100Y-127828600D01*
X168771100Y-127828600D02*
X168136100Y-127193600D01*
X168136100Y-127193600D02*
X166866100Y-127193600D01*
X166866100Y-127193600D02*
X166231100Y-127828600D01*
X166231100Y-127828600D02*
X165596100Y-127193600D01*
X165596100Y-127193600D02*
X164326100Y-127193600D01*
X164326100Y-127193600D02*
X163691100Y-127828600D01*
X163691100Y-127828600D02*
X163056100Y-127193600D01*
X161786100Y-127193600D02*
X161151100Y-127828600D01*
X161151100Y-127828600D02*
X160516100Y-127193600D01*
X156706100Y-129733600D02*
X157976100Y-129733600D01*
X157976100Y-129733600D02*
X158611100Y-129098600D01*
X158611100Y-129098600D02*
X159246100Y-129733600D01*
X159246100Y-129733600D02*
X160516100Y-129733600D01*
X160516100Y-129733600D02*
X161151100Y-129098600D01*
X153531100Y-127828600D02*
X153531100Y-129098600D01*
X153531100Y-129098600D02*
X154166100Y-129733600D01*
X154166100Y-129733600D02*
X155436100Y-129733600D01*
X155436100Y-129733600D02*
X156071100Y-129098600D01*
X156071100Y-129098600D02*
X156706100Y-129733600D01*
X135751100Y-129098600D02*
X135116100Y-129733600D01*
X135116100Y-129733600D02*
X133846100Y-129733600D01*
X133846100Y-129733600D02*
X133211100Y-129098600D01*
X136386100Y-129733600D02*
X137656100Y-129733600D01*
X142736100Y-129733600D02*
X141466100Y-129733600D01*
X141466100Y-129733600D02*
X140831100Y-129098600D01*
X140831100Y-129098600D02*
X140196100Y-129733600D01*
X140196100Y-129733600D02*
X138926100Y-129733600D01*
X138926100Y-129733600D02*
X138291100Y-129098600D01*
X138291100Y-129098600D02*
X137656100Y-129733600D01*
X136386100Y-129733600D02*
X135751100Y-129098600D01*
X145276100Y-127193600D02*
X145911100Y-127828600D01*
X145911100Y-127828600D02*
X146546100Y-127193600D01*
X146546100Y-127193600D02*
X147816100Y-127193600D01*
X147816100Y-127193600D02*
X148451100Y-127828600D01*
X148451100Y-127828600D02*
X149086100Y-127193600D01*
X149086100Y-127193600D02*
X150356100Y-127193600D01*
X150356100Y-127193600D02*
X150991100Y-127828600D01*
X150991100Y-127828600D02*
X150991100Y-129098600D01*
X150991100Y-129098600D02*
X150356100Y-129733600D01*
X150356100Y-129733600D02*
X149086100Y-129733600D01*
X149086100Y-129733600D02*
X148451100Y-129098600D01*
X148451100Y-129098600D02*
X147816100Y-129733600D01*
X147816100Y-129733600D02*
X146546100Y-129733600D01*
X146546100Y-129733600D02*
X145911100Y-129098600D01*
X145911100Y-129098600D02*
X145276100Y-129733600D01*
X145276100Y-129733600D02*
X144006100Y-129733600D01*
X144006100Y-129733600D02*
X143371100Y-129098600D01*
X143371100Y-129098600D02*
X142736100Y-129733600D01*
X133211100Y-127828600D02*
X133846100Y-127193600D01*
X133846100Y-127193600D02*
X135116100Y-127193600D01*
X135116100Y-127193600D02*
X135751100Y-127828600D01*
X135751100Y-127828600D02*
X136386100Y-127193600D01*
X136386100Y-127193600D02*
X137656100Y-127193600D01*
X137656100Y-127193600D02*
X138291100Y-127828600D01*
X138291100Y-127828600D02*
X138926100Y-127193600D01*
X138926100Y-127193600D02*
X140196100Y-127193600D01*
X140196100Y-127193600D02*
X140831100Y-127828600D01*
X140831100Y-127828600D02*
X141466100Y-127193600D01*
X141466100Y-127193600D02*
X142736100Y-127193600D01*
X142736100Y-127193600D02*
X143371100Y-127828600D01*
X143371100Y-127828600D02*
X144006100Y-127193600D01*
X144006100Y-127193600D02*
X145276100Y-127193600D01*
X132576100Y-129733600D02*
X131306100Y-129733600D01*
X131306100Y-129733600D02*
X130671100Y-129098600D01*
X130671100Y-129098600D02*
X130671100Y-127828600D01*
X130671100Y-127828600D02*
X131306100Y-127193600D01*
X131306100Y-127193600D02*
X132576100Y-127193600D01*
X132576100Y-127193600D02*
X133211100Y-127828600D01*
X133211100Y-127828600D02*
X133211100Y-129098600D01*
X133211100Y-129098600D02*
X132576100Y-129733600D01*
X174184800Y-113048400D02*
X174184800Y-111548400D01*
X174184800Y-111548400D02*
X176184800Y-111548400D01*
X176684800Y-129548400D02*
X174184800Y-129548400D01*
X174184800Y-129548400D02*
X174184800Y-127048400D01*
X192184800Y-127548400D02*
X192184800Y-129548400D01*
X192184800Y-129548400D02*
X188684800Y-129548400D01*
X189684800Y-111548400D02*
X192184800Y-111548400D01*
X192184800Y-111548400D02*
X192184800Y-114048400D01*
X175684800Y-111548400D02*
X176184800Y-111548400D01*
X192184800Y-114048400D02*
X192184800Y-116548400D01*
X174184800Y-116548400D02*
X174184800Y-113048400D01*
X176184800Y-111548400D02*
X189684800Y-111548400D01*
X174184800Y-116548400D02*
X174184800Y-127548400D01*
X189184800Y-129548400D02*
X176184800Y-129548400D01*
X192184800Y-116548400D02*
X192184800Y-127548400D01*
X114624800Y-124002800D02*
X114424800Y-124002800D01*
X120319800Y-86537800D02*
X150799800Y-86537800D01*
X150799800Y-86537800D02*
X150799800Y-103682800D01*
X150799800Y-103682800D02*
X120319800Y-103682800D01*
X120319800Y-103682800D02*
X120319800Y-86537800D01*
X114469800Y-124002800D02*
X114469800Y-83362800D01*
X114524800Y-83362800D02*
X158419800Y-83362800D01*
X158419800Y-83362800D02*
X158419800Y-124002800D01*
X158419800Y-124002800D02*
X114524800Y-124002800D01*
D12*
X189306200Y-79248000D02*
X173685200Y-79248000D01*
X173685200Y-79248000D02*
X173685200Y-92964000D01*
X173685200Y-92964000D02*
X189306200Y-92964000D01*
X189306200Y-79248000D02*
X189306200Y-92964000D01*
X189306200Y-92964000D02*
X192227200Y-92964000D01*
X192227200Y-92964000D02*
X192227200Y-79248000D01*
X192227200Y-79248000D02*
X189306200Y-79248000D01*
D11*
X164991405Y-125888881D02*
X164991405Y-124888881D01*
X165229500Y-124888881D01*
X165372358Y-124936500D01*
X165467596Y-125031738D01*
X165515215Y-125126976D01*
X165562834Y-125317452D01*
X165562834Y-125460310D01*
X165515215Y-125650786D01*
X165467596Y-125746024D01*
X165372358Y-125841262D01*
X165229500Y-125888881D01*
X164991405Y-125888881D01*
X166515215Y-125888881D02*
X165943786Y-125888881D01*
X166229500Y-125888881D02*
X166229500Y-124888881D01*
X166134262Y-125031738D01*
X166039024Y-125126976D01*
X165943786Y-125174595D01*
X165372405Y-122952381D02*
X165372405Y-121952381D01*
X165610500Y-121952381D01*
X165753358Y-122000000D01*
X165848596Y-122095238D01*
X165896215Y-122190476D01*
X165943834Y-122380952D01*
X165943834Y-122523810D01*
X165896215Y-122714286D01*
X165848596Y-122809524D01*
X165753358Y-122904762D01*
X165610500Y-122952381D01*
X165372405Y-122952381D01*
X166324786Y-122047619D02*
X166372405Y-122000000D01*
X166467643Y-121952381D01*
X166705739Y-121952381D01*
X166800977Y-122000000D01*
X166848596Y-122047619D01*
X166896215Y-122142857D01*
X166896215Y-122238095D01*
X166848596Y-122380952D01*
X166277167Y-122952381D01*
X166896215Y-122952381D01*
X165054905Y-87888881D02*
X165054905Y-86888881D01*
X165293000Y-86888881D01*
X165435858Y-86936500D01*
X165531096Y-87031738D01*
X165578715Y-87126976D01*
X165626334Y-87317452D01*
X165626334Y-87460310D01*
X165578715Y-87650786D01*
X165531096Y-87746024D01*
X165435858Y-87841262D01*
X165293000Y-87888881D01*
X165054905Y-87888881D01*
X165959667Y-86888881D02*
X166578715Y-86888881D01*
X166245381Y-87269833D01*
X166388239Y-87269833D01*
X166483477Y-87317452D01*
X166531096Y-87365071D01*
X166578715Y-87460310D01*
X166578715Y-87698405D01*
X166531096Y-87793643D01*
X166483477Y-87841262D01*
X166388239Y-87888881D01*
X166102524Y-87888881D01*
X166007286Y-87841262D01*
X165959667Y-87793643D01*
X164927905Y-84388881D02*
X164927905Y-83388881D01*
X165166000Y-83388881D01*
X165308858Y-83436500D01*
X165404096Y-83531738D01*
X165451715Y-83626976D01*
X165499334Y-83817452D01*
X165499334Y-83960310D01*
X165451715Y-84150786D01*
X165404096Y-84246024D01*
X165308858Y-84341262D01*
X165166000Y-84388881D01*
X164927905Y-84388881D01*
X166356477Y-83722214D02*
X166356477Y-84388881D01*
X166118381Y-83341262D02*
X165880286Y-84055548D01*
X166499334Y-84055548D01*
X165308905Y-116015881D02*
X165308905Y-115015881D01*
X165547000Y-115015881D01*
X165689858Y-115063500D01*
X165785096Y-115158738D01*
X165832715Y-115253976D01*
X165880334Y-115444452D01*
X165880334Y-115587310D01*
X165832715Y-115777786D01*
X165785096Y-115873024D01*
X165689858Y-115968262D01*
X165547000Y-116015881D01*
X165308905Y-116015881D01*
X166785096Y-115015881D02*
X166308905Y-115015881D01*
X166261286Y-115492071D01*
X166308905Y-115444452D01*
X166404143Y-115396833D01*
X166642239Y-115396833D01*
X166737477Y-115444452D01*
X166785096Y-115492071D01*
X166832715Y-115587310D01*
X166832715Y-115825405D01*
X166785096Y-115920643D01*
X166737477Y-115968262D01*
X166642239Y-116015881D01*
X166404143Y-116015881D01*
X166308905Y-115968262D01*
X166261286Y-115920643D01*
X164864405Y-112388881D02*
X164864405Y-111388881D01*
X165102500Y-111388881D01*
X165245358Y-111436500D01*
X165340596Y-111531738D01*
X165388215Y-111626976D01*
X165435834Y-111817452D01*
X165435834Y-111960310D01*
X165388215Y-112150786D01*
X165340596Y-112246024D01*
X165245358Y-112341262D01*
X165102500Y-112388881D01*
X164864405Y-112388881D01*
X166292977Y-111388881D02*
X166102500Y-111388881D01*
X166007262Y-111436500D01*
X165959643Y-111484119D01*
X165864405Y-111626976D01*
X165816786Y-111817452D01*
X165816786Y-112198405D01*
X165864405Y-112293643D01*
X165912024Y-112341262D01*
X166007262Y-112388881D01*
X166197739Y-112388881D01*
X166292977Y-112341262D01*
X166340596Y-112293643D01*
X166388215Y-112198405D01*
X166388215Y-111960310D01*
X166340596Y-111865071D01*
X166292977Y-111817452D01*
X166197739Y-111769833D01*
X166007262Y-111769833D01*
X165912024Y-111817452D01*
X165864405Y-111865071D01*
X165816786Y-111960310D01*
X167150334Y-119452381D02*
X166817000Y-118976190D01*
X166578905Y-119452381D02*
X166578905Y-118452381D01*
X166959858Y-118452381D01*
X167055096Y-118500000D01*
X167102715Y-118547619D01*
X167150334Y-118642857D01*
X167150334Y-118785714D01*
X167102715Y-118880952D01*
X167055096Y-118928571D01*
X166959858Y-118976190D01*
X166578905Y-118976190D01*
X168102715Y-119452381D02*
X167531286Y-119452381D01*
X167817000Y-119452381D02*
X167817000Y-118452381D01*
X167721762Y-118595238D01*
X167626524Y-118690476D01*
X167531286Y-118738095D01*
X167150334Y-101952381D02*
X166817000Y-101476190D01*
X166578905Y-101952381D02*
X166578905Y-100952381D01*
X166959858Y-100952381D01*
X167055096Y-101000000D01*
X167102715Y-101047619D01*
X167150334Y-101142857D01*
X167150334Y-101285714D01*
X167102715Y-101380952D01*
X167055096Y-101428571D01*
X166959858Y-101476190D01*
X166578905Y-101476190D01*
X167531286Y-101047619D02*
X167578905Y-101000000D01*
X167674143Y-100952381D01*
X167912239Y-100952381D01*
X168007477Y-101000000D01*
X168055096Y-101047619D01*
X168102715Y-101142857D01*
X168102715Y-101238095D01*
X168055096Y-101380952D01*
X167483667Y-101952381D01*
X168102715Y-101952381D01*
X167150334Y-98452381D02*
X166817000Y-97976190D01*
X166578905Y-98452381D02*
X166578905Y-97452381D01*
X166959858Y-97452381D01*
X167055096Y-97500000D01*
X167102715Y-97547619D01*
X167150334Y-97642857D01*
X167150334Y-97785714D01*
X167102715Y-97880952D01*
X167055096Y-97928571D01*
X166959858Y-97976190D01*
X166578905Y-97976190D01*
X167483667Y-97452381D02*
X168102715Y-97452381D01*
X167769381Y-97833333D01*
X167912239Y-97833333D01*
X168007477Y-97880952D01*
X168055096Y-97928571D01*
X168102715Y-98023810D01*
X168102715Y-98261905D01*
X168055096Y-98357143D01*
X168007477Y-98404762D01*
X167912239Y-98452381D01*
X167626524Y-98452381D01*
X167531286Y-98404762D01*
X167483667Y-98357143D01*
X167150334Y-94952381D02*
X166817000Y-94476190D01*
X166578905Y-94952381D02*
X166578905Y-93952381D01*
X166959858Y-93952381D01*
X167055096Y-94000000D01*
X167102715Y-94047619D01*
X167150334Y-94142857D01*
X167150334Y-94285714D01*
X167102715Y-94380952D01*
X167055096Y-94428571D01*
X166959858Y-94476190D01*
X166578905Y-94476190D01*
X168007477Y-94285714D02*
X168007477Y-94952381D01*
X167769381Y-93904762D02*
X167531286Y-94619048D01*
X168150334Y-94619048D01*
X167137634Y-91439681D02*
X166804300Y-90963490D01*
X166566205Y-91439681D02*
X166566205Y-90439681D01*
X166947158Y-90439681D01*
X167042396Y-90487300D01*
X167090015Y-90534919D01*
X167137634Y-90630157D01*
X167137634Y-90773014D01*
X167090015Y-90868252D01*
X167042396Y-90915871D01*
X166947158Y-90963490D01*
X166566205Y-90963490D01*
X168042396Y-90439681D02*
X167566205Y-90439681D01*
X167518586Y-90915871D01*
X167566205Y-90868252D01*
X167661443Y-90820633D01*
X167899539Y-90820633D01*
X167994777Y-90868252D01*
X168042396Y-90915871D01*
X168090015Y-91011110D01*
X168090015Y-91249205D01*
X168042396Y-91344443D01*
X167994777Y-91392062D01*
X167899539Y-91439681D01*
X167661443Y-91439681D01*
X167566205Y-91392062D01*
X167518586Y-91344443D01*
X167150334Y-105452381D02*
X166817000Y-104976190D01*
X166578905Y-105452381D02*
X166578905Y-104452381D01*
X166959858Y-104452381D01*
X167055096Y-104500000D01*
X167102715Y-104547619D01*
X167150334Y-104642857D01*
X167150334Y-104785714D01*
X167102715Y-104880952D01*
X167055096Y-104928571D01*
X166959858Y-104976190D01*
X166578905Y-104976190D01*
X168007477Y-104452381D02*
X167817000Y-104452381D01*
X167721762Y-104500000D01*
X167674143Y-104547619D01*
X167578905Y-104690476D01*
X167531286Y-104880952D01*
X167531286Y-105261905D01*
X167578905Y-105357143D01*
X167626524Y-105404762D01*
X167721762Y-105452381D01*
X167912239Y-105452381D01*
X168007477Y-105404762D01*
X168055096Y-105357143D01*
X168102715Y-105261905D01*
X168102715Y-105023810D01*
X168055096Y-104928571D01*
X168007477Y-104880952D01*
X167912239Y-104833333D01*
X167721762Y-104833333D01*
X167626524Y-104880952D01*
X167578905Y-104928571D01*
X167531286Y-105023810D01*
X167150334Y-108952381D02*
X166817000Y-108476190D01*
X166578905Y-108952381D02*
X166578905Y-107952381D01*
X166959858Y-107952381D01*
X167055096Y-108000000D01*
X167102715Y-108047619D01*
X167150334Y-108142857D01*
X167150334Y-108285714D01*
X167102715Y-108380952D01*
X167055096Y-108428571D01*
X166959858Y-108476190D01*
X166578905Y-108476190D01*
X167483667Y-107952381D02*
X168150334Y-107952381D01*
X167721762Y-108952381D01*
D13*
X173108499Y-107296857D02*
X172624690Y-107635523D01*
X173108499Y-107877428D02*
X172092499Y-107877428D01*
X172092499Y-107490381D01*
X172140880Y-107393619D01*
X172189261Y-107345238D01*
X172286023Y-107296857D01*
X172431166Y-107296857D01*
X172527928Y-107345238D01*
X172576309Y-107393619D01*
X172624690Y-107490381D01*
X172624690Y-107877428D01*
X172818213Y-106909809D02*
X172818213Y-106426000D01*
X173108499Y-107006571D02*
X172092499Y-106667904D01*
X173108499Y-106329238D01*
X173108499Y-105990571D02*
X172092499Y-105990571D01*
X173108499Y-105506761D02*
X172092499Y-105506761D01*
X173108499Y-104926190D01*
X172092499Y-104926190D01*
X173108499Y-103910190D02*
X173108499Y-104490761D01*
X173108499Y-104200475D02*
X172092499Y-104200475D01*
X172237642Y-104297237D01*
X172334404Y-104393999D01*
X172382785Y-104490761D01*
D14*
D13*
X173108499Y-96958210D02*
X172624690Y-97296876D01*
X173108499Y-97538781D02*
X172092499Y-97538781D01*
X172092499Y-97151734D01*
X172140880Y-97054972D01*
X172189261Y-97006591D01*
X172286023Y-96958210D01*
X172431166Y-96958210D01*
X172527928Y-97006591D01*
X172576309Y-97054972D01*
X172624690Y-97151734D01*
X172624690Y-97538781D01*
X172092499Y-96232496D02*
X172818213Y-96232496D01*
X172963356Y-96280876D01*
X173060118Y-96377638D01*
X173108499Y-96522781D01*
X173108499Y-96619543D01*
X173108499Y-95216496D02*
X173108499Y-95797067D01*
X173108499Y-95506781D02*
X172092499Y-95506781D01*
X172237642Y-95603543D01*
X172334404Y-95700305D01*
X172382785Y-95797067D01*
X173108499Y-94248877D02*
X173108499Y-94829448D01*
X173108499Y-94539162D02*
X172092499Y-94539162D01*
X172237642Y-94635924D01*
X172334404Y-94732686D01*
X172382785Y-94829448D01*
D14*
D11*
X185351467Y-127096020D02*
X185351467Y-126619829D01*
X185637181Y-127191258D02*
X184637181Y-126857925D01*
X185637181Y-126524591D01*
X185637181Y-125762686D02*
X184637181Y-125762686D01*
X185589562Y-125762686D02*
X185637181Y-125857924D01*
X185637181Y-126048401D01*
X185589562Y-126143639D01*
X185541943Y-126191258D01*
X185446705Y-126238877D01*
X185160990Y-126238877D01*
X185065752Y-126191258D01*
X185018133Y-126143639D01*
X184970514Y-126048401D01*
X184970514Y-125857924D01*
X185018133Y-125762686D01*
X185637181Y-124857924D02*
X185113371Y-124857924D01*
X185018133Y-124905543D01*
X184970514Y-125000781D01*
X184970514Y-125191258D01*
X185018133Y-125286496D01*
X185589562Y-124857924D02*
X185637181Y-124953162D01*
X185637181Y-125191258D01*
X185589562Y-125286496D01*
X185494324Y-125334115D01*
X185399086Y-125334115D01*
X185303848Y-125286496D01*
X185256229Y-125191258D01*
X185256229Y-124953162D01*
X185208610Y-124857924D01*
X184970514Y-124524591D02*
X184970514Y-124143639D01*
X185637181Y-124381734D02*
X184780038Y-124381734D01*
X184684800Y-124334115D01*
X184637181Y-124238877D01*
X184637181Y-124143639D01*
X185637181Y-123810305D02*
X184970514Y-123810305D01*
X185160990Y-123810305D02*
X185065752Y-123762686D01*
X185018133Y-123715067D01*
X184970514Y-123619829D01*
X184970514Y-123524590D01*
X184970514Y-122762685D02*
X185637181Y-122762685D01*
X184970514Y-123191257D02*
X185494324Y-123191257D01*
X185589562Y-123143638D01*
X185637181Y-123048400D01*
X185637181Y-122905542D01*
X185589562Y-122810304D01*
X185541943Y-122762685D01*
X185637181Y-122286495D02*
X184970514Y-122286495D01*
X184637181Y-122286495D02*
X184684800Y-122334114D01*
X184732419Y-122286495D01*
X184684800Y-122238876D01*
X184637181Y-122286495D01*
X184732419Y-122286495D01*
X184970514Y-121953162D02*
X184970514Y-121572210D01*
X184637181Y-121810305D02*
X185494324Y-121810305D01*
X185589562Y-121762686D01*
X185637181Y-121667448D01*
X185637181Y-121572210D01*
X185732419Y-121476971D02*
X185732419Y-120715066D01*
X185113371Y-120143637D02*
X185160990Y-120000780D01*
X185208610Y-119953161D01*
X185303848Y-119905542D01*
X185446705Y-119905542D01*
X185541943Y-119953161D01*
X185589562Y-120000780D01*
X185637181Y-120096018D01*
X185637181Y-120476971D01*
X184637181Y-120476971D01*
X184637181Y-120143637D01*
X184684800Y-120048399D01*
X184732419Y-120000780D01*
X184827657Y-119953161D01*
X184922895Y-119953161D01*
X185018133Y-120000780D01*
X185065752Y-120048399D01*
X185113371Y-120143637D01*
X185113371Y-120476971D01*
X185637181Y-119476971D02*
X184637181Y-119476971D01*
X185351467Y-119143637D01*
X184637181Y-118810304D01*
X185637181Y-118810304D01*
X185113371Y-118334114D02*
X185113371Y-118000780D01*
X185637181Y-117857923D02*
X185637181Y-118334114D01*
X184637181Y-118334114D01*
X184637181Y-117857923D01*
X184732419Y-117476971D02*
X184684800Y-117429352D01*
X184637181Y-117334114D01*
X184637181Y-117096018D01*
X184684800Y-117000780D01*
X184732419Y-116953161D01*
X184827657Y-116905542D01*
X184922895Y-116905542D01*
X185065752Y-116953161D01*
X185637181Y-117524590D01*
X185637181Y-116905542D01*
X185065752Y-116334114D02*
X185018133Y-116429352D01*
X184970514Y-116476971D01*
X184875276Y-116524590D01*
X184827657Y-116524590D01*
X184732419Y-116476971D01*
X184684800Y-116429352D01*
X184637181Y-116334114D01*
X184637181Y-116143637D01*
X184684800Y-116048399D01*
X184732419Y-116000780D01*
X184827657Y-115953161D01*
X184875276Y-115953161D01*
X184970514Y-116000780D01*
X185018133Y-116048399D01*
X185065752Y-116143637D01*
X185065752Y-116334114D01*
X185113371Y-116429352D01*
X185160990Y-116476971D01*
X185256229Y-116524590D01*
X185446705Y-116524590D01*
X185541943Y-116476971D01*
X185589562Y-116429352D01*
X185637181Y-116334114D01*
X185637181Y-116143637D01*
X185589562Y-116048399D01*
X185541943Y-116000780D01*
X185446705Y-115953161D01*
X185256229Y-115953161D01*
X185160990Y-116000780D01*
X185113371Y-116048399D01*
X185065752Y-116143637D01*
X184637181Y-115334114D02*
X184637181Y-115238875D01*
X184684800Y-115143637D01*
X184732419Y-115096018D01*
X184827657Y-115048399D01*
X185018133Y-115000780D01*
X185256229Y-115000780D01*
X185446705Y-115048399D01*
X185541943Y-115096018D01*
X185589562Y-115143637D01*
X185637181Y-115238875D01*
X185637181Y-115334114D01*
X185589562Y-115429352D01*
X185541943Y-115476971D01*
X185446705Y-115524590D01*
X185256229Y-115572209D01*
X185018133Y-115572209D01*
X184827657Y-115524590D01*
X184732419Y-115476971D01*
X184684800Y-115429352D01*
X184637181Y-115334114D01*
X117001943Y-110603515D02*
X117001943Y-111270182D01*
X118049562Y-111270182D02*
X116049562Y-111270182D01*
X116049562Y-110317801D01*
X116049562Y-109174943D02*
X116049562Y-108793991D01*
X116144800Y-108603515D01*
X116335276Y-108413038D01*
X116716229Y-108317800D01*
X117382895Y-108317800D01*
X117763848Y-108413038D01*
X117954324Y-108603515D01*
X118049562Y-108793991D01*
X118049562Y-109174943D01*
X117954324Y-109365419D01*
X117763848Y-109555896D01*
X117382895Y-109651134D01*
X116716229Y-109651134D01*
X116335276Y-109555896D01*
X116144800Y-109365419D01*
X116049562Y-109174943D01*
X118049562Y-107460658D02*
X116049562Y-107460658D01*
X118049562Y-106317800D01*
X116049562Y-106317800D01*
X117478133Y-105460658D02*
X117478133Y-104508277D01*
X118049562Y-105651134D02*
X116049562Y-104984467D01*
X118049562Y-104317800D01*
X118240038Y-104127324D02*
X118240038Y-102603514D01*
X116906705Y-101841609D02*
X116811467Y-102032085D01*
X116716229Y-102127324D01*
X116525752Y-102222562D01*
X116430514Y-102222562D01*
X116240038Y-102127324D01*
X116144800Y-102032085D01*
X116049562Y-101841609D01*
X116049562Y-101460657D01*
X116144800Y-101270181D01*
X116240038Y-101174943D01*
X116430514Y-101079704D01*
X116525752Y-101079704D01*
X116716229Y-101174943D01*
X116811467Y-101270181D01*
X116906705Y-101460657D01*
X116906705Y-101841609D01*
X117001943Y-102032085D01*
X117097181Y-102127324D01*
X117287657Y-102222562D01*
X117668610Y-102222562D01*
X117859086Y-102127324D01*
X117954324Y-102032085D01*
X118049562Y-101841609D01*
X118049562Y-101460657D01*
X117954324Y-101270181D01*
X117859086Y-101174943D01*
X117668610Y-101079704D01*
X117287657Y-101079704D01*
X117097181Y-101174943D01*
X117001943Y-101270181D01*
X116906705Y-101460657D01*
X116049562Y-99841609D02*
X116049562Y-99651133D01*
X116144800Y-99460657D01*
X116240038Y-99365419D01*
X116430514Y-99270181D01*
X116811467Y-99174942D01*
X117287657Y-99174942D01*
X117668610Y-99270181D01*
X117859086Y-99365419D01*
X117954324Y-99460657D01*
X118049562Y-99651133D01*
X118049562Y-99841609D01*
X117954324Y-100032085D01*
X117859086Y-100127323D01*
X117668610Y-100222562D01*
X117287657Y-100317800D01*
X116811467Y-100317800D01*
X116430514Y-100222562D01*
X116240038Y-100127323D01*
X116144800Y-100032085D01*
X116049562Y-99841609D01*
X116906705Y-98032085D02*
X116811467Y-98222561D01*
X116716229Y-98317800D01*
X116525752Y-98413038D01*
X116430514Y-98413038D01*
X116240038Y-98317800D01*
X116144800Y-98222561D01*
X116049562Y-98032085D01*
X116049562Y-97651133D01*
X116144800Y-97460657D01*
X116240038Y-97365419D01*
X116430514Y-97270180D01*
X116525752Y-97270180D01*
X116716229Y-97365419D01*
X116811467Y-97460657D01*
X116906705Y-97651133D01*
X116906705Y-98032085D01*
X117001943Y-98222561D01*
X117097181Y-98317800D01*
X117287657Y-98413038D01*
X117668610Y-98413038D01*
X117859086Y-98317800D01*
X117954324Y-98222561D01*
X118049562Y-98032085D01*
X118049562Y-97651133D01*
X117954324Y-97460657D01*
X117859086Y-97365419D01*
X117668610Y-97270180D01*
X117287657Y-97270180D01*
X117097181Y-97365419D01*
X117001943Y-97460657D01*
X116906705Y-97651133D01*
X152162895Y-85087562D02*
X152305752Y-85135181D01*
X152543848Y-85135181D01*
X152639086Y-85087562D01*
X152686705Y-85039943D01*
X152734324Y-84944705D01*
X152734324Y-84849467D01*
X152686705Y-84754229D01*
X152639086Y-84706610D01*
X152543848Y-84658990D01*
X152353371Y-84611371D01*
X152258133Y-84563752D01*
X152210514Y-84516133D01*
X152162895Y-84420895D01*
X152162895Y-84325657D01*
X152210514Y-84230419D01*
X152258133Y-84182800D01*
X152353371Y-84135181D01*
X152591467Y-84135181D01*
X152734324Y-84182800D01*
X153162895Y-84468514D02*
X153162895Y-85468514D01*
X153162895Y-84516133D02*
X153258133Y-84468514D01*
X153448610Y-84468514D01*
X153543848Y-84516133D01*
X153591467Y-84563752D01*
X153639086Y-84658990D01*
X153639086Y-84944705D01*
X153591467Y-85039943D01*
X153543848Y-85087562D01*
X153448610Y-85135181D01*
X153258133Y-85135181D01*
X153162895Y-85087562D01*
X154067657Y-85135181D02*
X154067657Y-84135181D01*
X154162895Y-84754229D02*
X154448610Y-85135181D01*
X154448610Y-84468514D02*
X154067657Y-84849467D01*
X154877181Y-84754229D02*
X155639086Y-84754229D01*
X152162895Y-87587562D02*
X152305752Y-87635181D01*
X152543848Y-87635181D01*
X152639086Y-87587562D01*
X152686705Y-87539943D01*
X152734324Y-87444705D01*
X152734324Y-87349467D01*
X152686705Y-87254229D01*
X152639086Y-87206610D01*
X152543848Y-87158990D01*
X152353371Y-87111371D01*
X152258133Y-87063752D01*
X152210514Y-87016133D01*
X152162895Y-86920895D01*
X152162895Y-86825657D01*
X152210514Y-86730419D01*
X152258133Y-86682800D01*
X152353371Y-86635181D01*
X152591467Y-86635181D01*
X152734324Y-86682800D01*
X153162895Y-86968514D02*
X153162895Y-87968514D01*
X153162895Y-87016133D02*
X153258133Y-86968514D01*
X153448610Y-86968514D01*
X153543848Y-87016133D01*
X153591467Y-87063752D01*
X153639086Y-87158990D01*
X153639086Y-87444705D01*
X153591467Y-87539943D01*
X153543848Y-87587562D01*
X153448610Y-87635181D01*
X153258133Y-87635181D01*
X153162895Y-87587562D01*
X154067657Y-87635181D02*
X154067657Y-86635181D01*
X154162895Y-87254229D02*
X154448610Y-87635181D01*
X154448610Y-86968514D02*
X154067657Y-87349467D01*
X154877181Y-87254229D02*
X155639086Y-87254229D01*
X155258134Y-87635181D02*
X155258134Y-86873276D01*
X152305753Y-90135181D02*
X152305753Y-89135181D01*
X152639087Y-89849467D01*
X152972420Y-89135181D01*
X152972420Y-90135181D01*
X153448610Y-90135181D02*
X153448610Y-89468514D01*
X153448610Y-89135181D02*
X153400991Y-89182800D01*
X153448610Y-89230419D01*
X153496229Y-89182800D01*
X153448610Y-89135181D01*
X153448610Y-89230419D01*
X154353372Y-90087562D02*
X154258134Y-90135181D01*
X154067657Y-90135181D01*
X153972419Y-90087562D01*
X153924800Y-90039943D01*
X153877181Y-89944705D01*
X153877181Y-89658990D01*
X153924800Y-89563752D01*
X153972419Y-89516133D01*
X154067657Y-89468514D01*
X154258134Y-89468514D01*
X154353372Y-89516133D01*
X154781943Y-89754229D02*
X155543848Y-89754229D01*
X152305753Y-92635181D02*
X152305753Y-91635181D01*
X152639087Y-92349467D01*
X152972420Y-91635181D01*
X152972420Y-92635181D01*
X153448610Y-92635181D02*
X153448610Y-91968514D01*
X153448610Y-91635181D02*
X153400991Y-91682800D01*
X153448610Y-91730419D01*
X153496229Y-91682800D01*
X153448610Y-91635181D01*
X153448610Y-91730419D01*
X154353372Y-92587562D02*
X154258134Y-92635181D01*
X154067657Y-92635181D01*
X153972419Y-92587562D01*
X153924800Y-92539943D01*
X153877181Y-92444705D01*
X153877181Y-92158990D01*
X153924800Y-92063752D01*
X153972419Y-92016133D01*
X154067657Y-91968514D01*
X154258134Y-91968514D01*
X154353372Y-92016133D01*
X154781943Y-92254229D02*
X155543848Y-92254229D01*
X155162896Y-92635181D02*
X155162896Y-91873276D01*
X154162895Y-95135181D02*
X154162895Y-94135181D01*
X154734324Y-95135181D01*
X154734324Y-94135181D01*
X155162895Y-95087562D02*
X155305752Y-95135181D01*
X155543848Y-95135181D01*
X155639086Y-95087562D01*
X155686705Y-95039943D01*
X155734324Y-94944705D01*
X155734324Y-94849467D01*
X155686705Y-94754229D01*
X155639086Y-94706610D01*
X155543848Y-94658990D01*
X155353371Y-94611371D01*
X155258133Y-94563752D01*
X155210514Y-94516133D01*
X155162895Y-94420895D01*
X155162895Y-94325657D01*
X155210514Y-94230419D01*
X155258133Y-94182800D01*
X155353371Y-94135181D01*
X155591467Y-94135181D01*
X155734324Y-94182800D01*
X152162895Y-97635181D02*
X152162895Y-96635181D01*
X152543848Y-96635181D01*
X152639086Y-96682800D01*
X152686705Y-96730419D01*
X152734324Y-96825657D01*
X152734324Y-96968514D01*
X152686705Y-97063752D01*
X152639086Y-97111371D01*
X152543848Y-97158990D01*
X152162895Y-97158990D01*
X153115276Y-97587562D02*
X153258133Y-97635181D01*
X153496229Y-97635181D01*
X153591467Y-97587562D01*
X153639086Y-97539943D01*
X153686705Y-97444705D01*
X153686705Y-97349467D01*
X153639086Y-97254229D01*
X153591467Y-97206610D01*
X153496229Y-97158990D01*
X153305752Y-97111371D01*
X153210514Y-97063752D01*
X153162895Y-97016133D01*
X153115276Y-96920895D01*
X153115276Y-96825657D01*
X153162895Y-96730419D01*
X153210514Y-96682800D01*
X153305752Y-96635181D01*
X153543848Y-96635181D01*
X153686705Y-96682800D01*
X153972419Y-96968514D02*
X154353371Y-96968514D01*
X154115276Y-96635181D02*
X154115276Y-97492324D01*
X154162895Y-97587562D01*
X154258133Y-97635181D01*
X154353371Y-97635181D01*
X155115277Y-97635181D02*
X155115277Y-97111371D01*
X155067658Y-97016133D01*
X154972420Y-96968514D01*
X154781943Y-96968514D01*
X154686705Y-97016133D01*
X155115277Y-97587562D02*
X155020039Y-97635181D01*
X154781943Y-97635181D01*
X154686705Y-97587562D01*
X154639086Y-97492324D01*
X154639086Y-97397086D01*
X154686705Y-97301848D01*
X154781943Y-97254229D01*
X155020039Y-97254229D01*
X155115277Y-97206610D01*
X155448610Y-96968514D02*
X155829562Y-96968514D01*
X155591467Y-96635181D02*
X155591467Y-97492324D01*
X155639086Y-97587562D01*
X155734324Y-97635181D01*
X155829562Y-97635181D01*
X155246229Y-100135181D02*
X154912895Y-99658990D01*
X154674800Y-100135181D02*
X154674800Y-99135181D01*
X155055753Y-99135181D01*
X155150991Y-99182800D01*
X155198610Y-99230419D01*
X155246229Y-99325657D01*
X155246229Y-99468514D01*
X155198610Y-99563752D01*
X155150991Y-99611371D01*
X155055753Y-99658990D01*
X154674800Y-99658990D01*
X155674800Y-100135181D02*
X155674800Y-99135181D01*
X153603371Y-102635181D02*
X153603371Y-101635181D01*
X154174800Y-102635181D02*
X153746228Y-102063752D01*
X154174800Y-101635181D02*
X153603371Y-102206610D01*
X154984324Y-102587562D02*
X154889086Y-102635181D01*
X154698609Y-102635181D01*
X154603371Y-102587562D01*
X154555752Y-102492324D01*
X154555752Y-102111371D01*
X154603371Y-102016133D01*
X154698609Y-101968514D01*
X154889086Y-101968514D01*
X154984324Y-102016133D01*
X155031943Y-102111371D01*
X155031943Y-102206610D01*
X154555752Y-102301848D01*
X155365276Y-101968514D02*
X155603371Y-102635181D01*
X155841467Y-101968514D02*
X155603371Y-102635181D01*
X155508133Y-102873276D01*
X155460514Y-102920895D01*
X155365276Y-102968514D01*
X154127181Y-105385181D02*
X153793847Y-104908990D01*
X153555752Y-105385181D02*
X153555752Y-104385181D01*
X153936705Y-104385181D01*
X154031943Y-104432800D01*
X154079562Y-104480419D01*
X154127181Y-104575657D01*
X154127181Y-104718514D01*
X154079562Y-104813752D01*
X154031943Y-104861371D01*
X153936705Y-104908990D01*
X153555752Y-104908990D01*
X154412895Y-104385181D02*
X154984324Y-104385181D01*
X154698609Y-105385181D02*
X154698609Y-104385181D01*
X155270038Y-105337562D02*
X155412895Y-105385181D01*
X155650991Y-105385181D01*
X155746229Y-105337562D01*
X155793848Y-105289943D01*
X155841467Y-105194705D01*
X155841467Y-105099467D01*
X155793848Y-105004229D01*
X155746229Y-104956610D01*
X155650991Y-104908990D01*
X155460514Y-104861371D01*
X155365276Y-104813752D01*
X155317657Y-104766133D01*
X155270038Y-104670895D01*
X155270038Y-104575657D01*
X155317657Y-104480419D01*
X155365276Y-104432800D01*
X155460514Y-104385181D01*
X155698610Y-104385181D01*
X155841467Y-104432800D01*
X154162895Y-106885181D02*
X154734324Y-106885181D01*
X154448609Y-107885181D02*
X154448609Y-106885181D01*
X154972419Y-106885181D02*
X155639086Y-107885181D01*
X155639086Y-106885181D02*
X154972419Y-107885181D01*
X154758134Y-110385181D02*
X154424800Y-109908990D01*
X154186705Y-110385181D02*
X154186705Y-109385181D01*
X154567658Y-109385181D01*
X154662896Y-109432800D01*
X154710515Y-109480419D01*
X154758134Y-109575657D01*
X154758134Y-109718514D01*
X154710515Y-109813752D01*
X154662896Y-109861371D01*
X154567658Y-109908990D01*
X154186705Y-109908990D01*
X155091467Y-109385181D02*
X155758134Y-110385181D01*
X155758134Y-109385181D02*
X155091467Y-110385181D01*
X154293848Y-112885181D02*
X153960514Y-112408990D01*
X153722419Y-112885181D02*
X153722419Y-111885181D01*
X154103372Y-111885181D01*
X154198610Y-111932800D01*
X154246229Y-111980419D01*
X154293848Y-112075657D01*
X154293848Y-112218514D01*
X154246229Y-112313752D01*
X154198610Y-112361371D01*
X154103372Y-112408990D01*
X153722419Y-112408990D01*
X154674800Y-112837562D02*
X154770038Y-112885181D01*
X154960514Y-112885181D01*
X155055753Y-112837562D01*
X155103372Y-112742324D01*
X155103372Y-112694705D01*
X155055753Y-112599467D01*
X154960514Y-112551848D01*
X154817657Y-112551848D01*
X154722419Y-112504229D01*
X154674800Y-112408990D01*
X154674800Y-112361371D01*
X154722419Y-112266133D01*
X154817657Y-112218514D01*
X154960514Y-112218514D01*
X155055753Y-112266133D01*
X155389086Y-112218514D02*
X155770038Y-112218514D01*
X155531943Y-111885181D02*
X155531943Y-112742324D01*
X155579562Y-112837562D01*
X155674800Y-112885181D01*
X155770038Y-112885181D01*
X153650991Y-114385181D02*
X153984324Y-115385181D01*
X154317658Y-114385181D01*
X154650991Y-115385181D02*
X154650991Y-114718514D01*
X154650991Y-114385181D02*
X154603372Y-114432800D01*
X154650991Y-114480419D01*
X154698610Y-114432800D01*
X154650991Y-114385181D01*
X154650991Y-114480419D01*
X155270038Y-115385181D02*
X155174800Y-115337562D01*
X155127181Y-115289943D01*
X155079562Y-115194705D01*
X155079562Y-114908990D01*
X155127181Y-114813752D01*
X155174800Y-114766133D01*
X155270038Y-114718514D01*
X155412896Y-114718514D01*
X155508134Y-114766133D01*
X155555753Y-114813752D01*
X155603372Y-114908990D01*
X155603372Y-115194705D01*
X155555753Y-115289943D01*
X155508134Y-115337562D01*
X155412896Y-115385181D01*
X155270038Y-115385181D01*
X153662896Y-117182800D02*
X153567658Y-117135181D01*
X153424801Y-117135181D01*
X153281943Y-117182800D01*
X153186705Y-117278038D01*
X153139086Y-117373276D01*
X153091467Y-117563752D01*
X153091467Y-117706610D01*
X153139086Y-117897086D01*
X153186705Y-117992324D01*
X153281943Y-118087562D01*
X153424801Y-118135181D01*
X153520039Y-118135181D01*
X153662896Y-118087562D01*
X153710515Y-118039943D01*
X153710515Y-117706610D01*
X153520039Y-117706610D01*
X154139086Y-118135181D02*
X154139086Y-117135181D01*
X154710515Y-118135181D01*
X154710515Y-117135181D01*
X155186705Y-118135181D02*
X155186705Y-117135181D01*
X155424800Y-117135181D01*
X155567658Y-117182800D01*
X155662896Y-117278038D01*
X155710515Y-117373276D01*
X155758134Y-117563752D01*
X155758134Y-117706610D01*
X155710515Y-117897086D01*
X155662896Y-117992324D01*
X155567658Y-118087562D01*
X155424800Y-118135181D01*
X155186705Y-118135181D01*
X154008134Y-120111371D02*
X154150991Y-120158990D01*
X154198610Y-120206610D01*
X154246229Y-120301848D01*
X154246229Y-120444705D01*
X154198610Y-120539943D01*
X154150991Y-120587562D01*
X154055753Y-120635181D01*
X153674800Y-120635181D01*
X153674800Y-119635181D01*
X154008134Y-119635181D01*
X154103372Y-119682800D01*
X154150991Y-119730419D01*
X154198610Y-119825657D01*
X154198610Y-119920895D01*
X154150991Y-120016133D01*
X154103372Y-120063752D01*
X154008134Y-120111371D01*
X153674800Y-120111371D01*
X155103372Y-120635181D02*
X155103372Y-120111371D01*
X155055753Y-120016133D01*
X154960515Y-119968514D01*
X154770038Y-119968514D01*
X154674800Y-120016133D01*
X155103372Y-120587562D02*
X155008134Y-120635181D01*
X154770038Y-120635181D01*
X154674800Y-120587562D01*
X154627181Y-120492324D01*
X154627181Y-120397086D01*
X154674800Y-120301848D01*
X154770038Y-120254229D01*
X155008134Y-120254229D01*
X155103372Y-120206610D01*
X155436705Y-119968514D02*
X155817657Y-119968514D01*
X155579562Y-119635181D02*
X155579562Y-120492324D01*
X155627181Y-120587562D01*
X155722419Y-120635181D01*
X155817657Y-120635181D01*
X154734324Y-122135181D02*
X154258133Y-122135181D01*
X154210514Y-122611371D01*
X154258133Y-122563752D01*
X154353371Y-122516133D01*
X154591467Y-122516133D01*
X154686705Y-122563752D01*
X154734324Y-122611371D01*
X154781943Y-122706610D01*
X154781943Y-122944705D01*
X154734324Y-123039943D01*
X154686705Y-123087562D01*
X154591467Y-123135181D01*
X154353371Y-123135181D01*
X154258133Y-123087562D01*
X154210514Y-123039943D01*
X155067657Y-122135181D02*
X155400990Y-123135181D01*
X155734324Y-122135181D01*
D13*
X172041699Y-93387333D02*
X173057699Y-93145428D01*
X172331985Y-92951905D01*
X173057699Y-92758381D01*
X172041699Y-92516476D01*
X173057699Y-92129428D02*
X172041699Y-92129428D01*
X173057699Y-91645618D02*
X172041699Y-91645618D01*
X173057699Y-91065047D01*
X172041699Y-91065047D01*
X173057699Y-90581237D02*
X172041699Y-90581237D01*
X172041699Y-90339332D01*
X172090080Y-90194190D01*
X172186842Y-90097428D01*
X172283604Y-90049047D01*
X172477128Y-90000666D01*
X172622270Y-90000666D01*
X172815794Y-90049047D01*
X172912556Y-90097428D01*
X173009318Y-90194190D01*
X173057699Y-90339332D01*
X173057699Y-90581237D01*
X173057699Y-89033047D02*
X173057699Y-89613618D01*
X173057699Y-89323332D02*
X172041699Y-89323332D01*
X172186842Y-89420094D01*
X172283604Y-89516856D01*
X172331985Y-89613618D01*
D14*
D13*
X173057699Y-82226210D02*
X172573890Y-82564876D01*
X173057699Y-82806781D02*
X172041699Y-82806781D01*
X172041699Y-82419734D01*
X172090080Y-82322972D01*
X172138461Y-82274591D01*
X172235223Y-82226210D01*
X172380366Y-82226210D01*
X172477128Y-82274591D01*
X172525509Y-82322972D01*
X172573890Y-82419734D01*
X172573890Y-82806781D01*
X172041699Y-81500496D02*
X172767413Y-81500496D01*
X172912556Y-81548876D01*
X173009318Y-81645638D01*
X173057699Y-81790781D01*
X173057699Y-81887543D01*
X173057699Y-80484496D02*
X173057699Y-81065067D01*
X173057699Y-80774781D02*
X172041699Y-80774781D01*
X172186842Y-80871543D01*
X172283604Y-80968305D01*
X172331985Y-81065067D01*
X173057699Y-79516877D02*
X173057699Y-80097448D01*
X173057699Y-79807162D02*
X172041699Y-79807162D01*
X172186842Y-79903924D01*
X172283604Y-80000686D01*
X172331985Y-80097448D01*
D14*
M02*
