G04 #@! TF.FileFunction,Copper,L1,Top,Signal*
%FSLAX46Y46*%
G04 Gerber Fmt 4.6, Leading zero omitted, Abs format (unit mm)*
G04 Created by KiCad (PCBNEW 4.0.2-stable) date Tuesday, December 06, 2016 'PMt' 03:41:46 PM*
%MOMM*%
G01*
G04 APERTURE LIST*
%ADD10C,0.100000*%
%ADD11C,1.699260*%
%ADD12R,1.699260X1.699260*%
%ADD13C,1.998980*%
%ADD14C,1.879600*%
%ADD15C,1.524000*%
%ADD16C,3.048000*%
%ADD17C,1.800000*%
%ADD18C,3.810000*%
%ADD19C,0.250000*%
%ADD20C,0.254000*%
G04 APERTURE END LIST*
D10*
D11*
X160839480Y-125502540D03*
D12*
X170999480Y-125502540D03*
D11*
X160839480Y-122502540D03*
D12*
X170999480Y-122502540D03*
D11*
X160839480Y-87502540D03*
D12*
X170999480Y-87502540D03*
D11*
X160839480Y-84002540D03*
D12*
X170999480Y-84002540D03*
D11*
X160839480Y-115502540D03*
D12*
X170999480Y-115502540D03*
D11*
X160839480Y-112002540D03*
D12*
X170999480Y-112002540D03*
D13*
X171000000Y-119000000D03*
X160840000Y-119000000D03*
X171000000Y-101500000D03*
X160840000Y-101500000D03*
X171000000Y-98000000D03*
X160840000Y-98000000D03*
X171000000Y-94500000D03*
X160840000Y-94500000D03*
X171000000Y-91000000D03*
X160840000Y-91000000D03*
X171000000Y-105000000D03*
X160840000Y-105000000D03*
X171000000Y-108500000D03*
X160840000Y-108500000D03*
D14*
X175260000Y-104013000D03*
X177800000Y-102743000D03*
X175260000Y-101473000D03*
X177800000Y-100203000D03*
X175260000Y-98933000D03*
X177800000Y-97663000D03*
D15*
X167501100Y-128463600D03*
X164961100Y-128463600D03*
X162421100Y-128463600D03*
X154801100Y-128463600D03*
X157341100Y-128463600D03*
X159881100Y-128463600D03*
X149721100Y-128463600D03*
X147181100Y-128463600D03*
X144641100Y-128463600D03*
X139561100Y-128463600D03*
X137021100Y-128463600D03*
X167501100Y-80203600D03*
X164961100Y-80203600D03*
X162421100Y-80203600D03*
X159881100Y-80203600D03*
X157341100Y-80203600D03*
X154801100Y-80203600D03*
X152261100Y-80203600D03*
X149721100Y-80203600D03*
X145657100Y-80203600D03*
X143117100Y-80203600D03*
X140577100Y-80203600D03*
X138037100Y-80203600D03*
X135497100Y-80203600D03*
X132957100Y-80203600D03*
X130417100Y-80203600D03*
X127877100Y-80203600D03*
X142101100Y-128463600D03*
X125337100Y-80203600D03*
X122797100Y-80203600D03*
X134481100Y-128463600D03*
X131941100Y-128463600D03*
D16*
X190184800Y-127048400D03*
D17*
X176184800Y-120548400D03*
X176184800Y-118048400D03*
X176184800Y-115548400D03*
X176184800Y-113048400D03*
X176184800Y-123048400D03*
X176184800Y-125548400D03*
X176184800Y-128048400D03*
D16*
X190184800Y-114048400D03*
D18*
X116674800Y-85932800D03*
D15*
X157149800Y-122732800D03*
X157149800Y-120192800D03*
X157149800Y-117652800D03*
X157149800Y-115112800D03*
X157149800Y-112572800D03*
X157149800Y-110032800D03*
X157149800Y-107492800D03*
X157149800Y-104952800D03*
X157149800Y-102412800D03*
X157149800Y-99872800D03*
X157149800Y-97332800D03*
X157149800Y-94792800D03*
X157149800Y-92252800D03*
X157149800Y-89712800D03*
X157149800Y-87172800D03*
X157149800Y-84632800D03*
D18*
X116674800Y-121432800D03*
D14*
X175209200Y-89281000D03*
X177749200Y-88011000D03*
X175209200Y-86741000D03*
X177749200Y-85471000D03*
X175209200Y-84201000D03*
X177749200Y-82931000D03*
D19*
X160840000Y-101500000D02*
X160840000Y-101505600D01*
X154801100Y-128463600D02*
X154801100Y-126427700D01*
X155726260Y-125502540D02*
X160839480Y-125502540D01*
X154801100Y-126427700D02*
X155726260Y-125502540D01*
X170999480Y-122502540D02*
X165838260Y-122502540D01*
X162838260Y-125502540D02*
X160839480Y-125502540D01*
X165838260Y-122502540D02*
X162838260Y-125502540D01*
X160839480Y-87502540D02*
X160839480Y-87535080D01*
X160839480Y-87535080D02*
X163474400Y-90170000D01*
X163474400Y-95365600D02*
X160840000Y-98000000D01*
X163474400Y-90170000D02*
X163474400Y-95365600D01*
X159881100Y-80203600D02*
X159881100Y-80277500D01*
X159881100Y-80277500D02*
X162661600Y-83058000D01*
X162661600Y-83058000D02*
X162661600Y-85680420D01*
X162661600Y-85680420D02*
X160839480Y-87502540D01*
X160839480Y-87502540D02*
X167499480Y-87502540D01*
X167499480Y-87502540D02*
X170999480Y-84002540D01*
X132957100Y-80203600D02*
X133035600Y-80203600D01*
X133035600Y-80203600D02*
X135483600Y-82651600D01*
X135483600Y-82651600D02*
X151180800Y-82651600D01*
X151180800Y-82651600D02*
X153924000Y-85394800D01*
X153924000Y-85394800D02*
X153924000Y-106629200D01*
X153924000Y-106629200D02*
X156057600Y-108762800D01*
X156057600Y-108762800D02*
X157886400Y-108762800D01*
X157886400Y-108762800D02*
X160840000Y-105809200D01*
X160840000Y-105809200D02*
X160840000Y-105000000D01*
X160839480Y-115502540D02*
X163186260Y-115502540D01*
X163186260Y-115502540D02*
X166686260Y-112002540D01*
X166686260Y-112002540D02*
X170999480Y-112002540D01*
X160840000Y-105860000D02*
X160840000Y-105000000D01*
X171000000Y-101500000D02*
X171000000Y-100373600D01*
X177749200Y-93624400D02*
X177749200Y-88011000D01*
X171000000Y-100373600D02*
X177749200Y-93624400D01*
X171000000Y-98000000D02*
X171000000Y-97986000D01*
X171000000Y-97986000D02*
X173431200Y-95554800D01*
X173431200Y-95554800D02*
X173431200Y-89103200D01*
X173431200Y-89103200D02*
X173837600Y-88696800D01*
X173837600Y-88696800D02*
X173837600Y-88112600D01*
X173837600Y-88112600D02*
X175209200Y-86741000D01*
X171000000Y-91000000D02*
X171000000Y-90315200D01*
X171000000Y-90315200D02*
X173024800Y-88290400D01*
X173024800Y-88290400D02*
X173024800Y-86385400D01*
X173024800Y-86385400D02*
X175209200Y-84201000D01*
X171000000Y-105000000D02*
X171733000Y-105000000D01*
X171733000Y-105000000D02*
X175260000Y-101473000D01*
X171000000Y-108500000D02*
X174608400Y-108500000D01*
X179832000Y-102235000D02*
X177800000Y-100203000D01*
X179832000Y-103276400D02*
X179832000Y-102235000D01*
X174608400Y-108500000D02*
X179832000Y-103276400D01*
X167501100Y-128463600D02*
X172577200Y-128463600D01*
X173736000Y-122997200D02*
X176184800Y-120548400D01*
X173736000Y-127304800D02*
X173736000Y-122997200D01*
X172577200Y-128463600D02*
X173736000Y-127304800D01*
X157149800Y-97332800D02*
X157149800Y-97205800D01*
X157149800Y-97205800D02*
X155803600Y-95859600D01*
X155803600Y-81741100D02*
X157341100Y-80203600D01*
X155803600Y-95859600D02*
X155803600Y-81741100D01*
X157149800Y-97332800D02*
X156768800Y-97332800D01*
X157480000Y-80695800D02*
X157480000Y-80772000D01*
X152261100Y-80203600D02*
X152261100Y-80480700D01*
X152261100Y-80480700D02*
X155244800Y-83464400D01*
X155244800Y-83464400D02*
X155244800Y-100507800D01*
X155244800Y-100507800D02*
X157149800Y-102412800D01*
X157149800Y-102412800D02*
X156413200Y-102412800D01*
X149721100Y-80203600D02*
X149721100Y-80226700D01*
X149721100Y-80226700D02*
X154635200Y-85140800D01*
X154635200Y-85140800D02*
X154635200Y-104978200D01*
X154635200Y-104978200D02*
X157149800Y-107492800D01*
X144780000Y-80695800D02*
X144780000Y-80670400D01*
X144780000Y-80670400D02*
X145846800Y-79603600D01*
X150371900Y-120192800D02*
X142101100Y-128463600D01*
X157149800Y-120192800D02*
X150371900Y-120192800D01*
X176733200Y-82473800D02*
X177317400Y-82473800D01*
D20*
G36*
X180263800Y-101591998D02*
X179320216Y-100648414D01*
X179374526Y-100517621D01*
X179375073Y-99891127D01*
X179135829Y-99312113D01*
X178757104Y-98932727D01*
X179134272Y-98556217D01*
X179374526Y-97977621D01*
X179375073Y-97351127D01*
X179135829Y-96772113D01*
X178693217Y-96328728D01*
X178114621Y-96088474D01*
X177488127Y-96087927D01*
X176909113Y-96327171D01*
X176465728Y-96769783D01*
X176225474Y-97348379D01*
X176225192Y-97670829D01*
X176153217Y-97598728D01*
X175574621Y-97358474D01*
X175090351Y-97358051D01*
X178286601Y-94161801D01*
X178451348Y-93915240D01*
X178509200Y-93624400D01*
X178509200Y-89400910D01*
X178640087Y-89346829D01*
X179083472Y-88904217D01*
X179323726Y-88325621D01*
X179324273Y-87699127D01*
X179085029Y-87120113D01*
X178706304Y-86740727D01*
X179083472Y-86364217D01*
X179323726Y-85785621D01*
X179324273Y-85159127D01*
X179085029Y-84580113D01*
X178706304Y-84200727D01*
X179083472Y-83824217D01*
X179323726Y-83245621D01*
X179324273Y-82619127D01*
X179085029Y-82040113D01*
X178642417Y-81596728D01*
X178063821Y-81356474D01*
X177437327Y-81355927D01*
X176858313Y-81595171D01*
X176739477Y-81713800D01*
X176733200Y-81713800D01*
X176442361Y-81771652D01*
X176195799Y-81936399D01*
X176031052Y-82182961D01*
X175973200Y-82473800D01*
X176031052Y-82764639D01*
X176098055Y-82864917D01*
X175523821Y-82626474D01*
X174897327Y-82625927D01*
X174318313Y-82865171D01*
X173874928Y-83307783D01*
X173634674Y-83886379D01*
X173634127Y-84512873D01*
X173689211Y-84646187D01*
X172487399Y-85847999D01*
X172322652Y-86094561D01*
X172300442Y-86206217D01*
X172208808Y-86114583D01*
X171975419Y-86017910D01*
X171285230Y-86017910D01*
X171126480Y-86176660D01*
X171126480Y-87375540D01*
X171146480Y-87375540D01*
X171146480Y-87629540D01*
X171126480Y-87629540D01*
X171126480Y-88828420D01*
X171269229Y-88971169D01*
X170874998Y-89365400D01*
X170676306Y-89365226D01*
X170075345Y-89613538D01*
X169615154Y-90072927D01*
X169365794Y-90673453D01*
X169365226Y-91323694D01*
X169613538Y-91924655D01*
X170072927Y-92384846D01*
X170673453Y-92634206D01*
X171323694Y-92634774D01*
X171924655Y-92386462D01*
X172384846Y-91927073D01*
X172634206Y-91326547D01*
X172634774Y-90676306D01*
X172386462Y-90075345D01*
X172350591Y-90039411D01*
X172671200Y-89718802D01*
X172671200Y-95239998D01*
X171481190Y-96430008D01*
X171326547Y-96365794D01*
X170676306Y-96365226D01*
X170075345Y-96613538D01*
X169615154Y-97072927D01*
X169365794Y-97673453D01*
X169365226Y-98323694D01*
X169613538Y-98924655D01*
X170072927Y-99384846D01*
X170667192Y-99631606D01*
X170462599Y-99836199D01*
X170354304Y-99998275D01*
X170075345Y-100113538D01*
X169615154Y-100572927D01*
X169365794Y-101173453D01*
X169365226Y-101823694D01*
X169613538Y-102424655D01*
X170072927Y-102884846D01*
X170673453Y-103134206D01*
X171323694Y-103134774D01*
X171924655Y-102886462D01*
X172384846Y-102427073D01*
X172634206Y-101826547D01*
X172634774Y-101176306D01*
X172386462Y-100575345D01*
X172129983Y-100318419D01*
X173685348Y-98763054D01*
X173684927Y-99244873D01*
X173924171Y-99823887D01*
X174302896Y-100203273D01*
X173925728Y-100579783D01*
X173685474Y-101158379D01*
X173684927Y-101784873D01*
X173740011Y-101918187D01*
X171985008Y-103673190D01*
X171927073Y-103615154D01*
X171326547Y-103365794D01*
X170676306Y-103365226D01*
X170075345Y-103613538D01*
X169615154Y-104072927D01*
X169365794Y-104673453D01*
X169365226Y-105323694D01*
X169613538Y-105924655D01*
X170072927Y-106384846D01*
X170673453Y-106634206D01*
X171323694Y-106634774D01*
X171924655Y-106386462D01*
X172384846Y-105927073D01*
X172634206Y-105326547D01*
X172634340Y-105173462D01*
X173685104Y-104122698D01*
X173684927Y-104324873D01*
X173924171Y-104903887D01*
X174366783Y-105347272D01*
X174945379Y-105587526D01*
X175571873Y-105588073D01*
X176150887Y-105348829D01*
X176594272Y-104906217D01*
X176834526Y-104327621D01*
X176834808Y-104005171D01*
X176906783Y-104077272D01*
X177485379Y-104317526D01*
X177715871Y-104317727D01*
X174293598Y-107740000D01*
X172454496Y-107740000D01*
X172386462Y-107575345D01*
X171927073Y-107115154D01*
X171326547Y-106865794D01*
X170676306Y-106865226D01*
X170075345Y-107113538D01*
X169615154Y-107572927D01*
X169365794Y-108173453D01*
X169365226Y-108823694D01*
X169613538Y-109424655D01*
X170072927Y-109884846D01*
X170673453Y-110134206D01*
X171323694Y-110134774D01*
X171924655Y-109886462D01*
X172384846Y-109427073D01*
X172454221Y-109260000D01*
X174608400Y-109260000D01*
X174899239Y-109202148D01*
X175145801Y-109037401D01*
X180263800Y-103919402D01*
X180263800Y-129667800D01*
X168244960Y-129667800D01*
X168291403Y-129648610D01*
X168684729Y-129255970D01*
X168698170Y-129223600D01*
X172577200Y-129223600D01*
X172868039Y-129165748D01*
X173114601Y-129001001D01*
X174273401Y-127842201D01*
X174438148Y-127595639D01*
X174496000Y-127304800D01*
X174496000Y-123312002D01*
X174649704Y-123158298D01*
X174649535Y-123352391D01*
X174882732Y-123916771D01*
X175263982Y-124298688D01*
X174884249Y-124677757D01*
X174650067Y-125241730D01*
X174649535Y-125852391D01*
X174882732Y-126416771D01*
X175263982Y-126798688D01*
X174884249Y-127177757D01*
X174650067Y-127741730D01*
X174649535Y-128352391D01*
X174882732Y-128916771D01*
X175314157Y-129348951D01*
X175878130Y-129583133D01*
X176488791Y-129583665D01*
X177053171Y-129350468D01*
X177485351Y-128919043D01*
X177719533Y-128355070D01*
X177720065Y-127744409D01*
X177486868Y-127180029D01*
X177105618Y-126798112D01*
X177485351Y-126419043D01*
X177719533Y-125855070D01*
X177720065Y-125244409D01*
X177486868Y-124680029D01*
X177105618Y-124298112D01*
X177485351Y-123919043D01*
X177719533Y-123355070D01*
X177720065Y-122744409D01*
X177486868Y-122180029D01*
X177105618Y-121798112D01*
X177485351Y-121419043D01*
X177719533Y-120855070D01*
X177720065Y-120244409D01*
X177486868Y-119680029D01*
X177105618Y-119298112D01*
X177485351Y-118919043D01*
X177719533Y-118355070D01*
X177720065Y-117744409D01*
X177486868Y-117180029D01*
X177105618Y-116798112D01*
X177485351Y-116419043D01*
X177719533Y-115855070D01*
X177720065Y-115244409D01*
X177486868Y-114680029D01*
X177055443Y-114247849D01*
X177046428Y-114244106D01*
X177085354Y-114128559D01*
X176184800Y-113228005D01*
X175284246Y-114128559D01*
X175323007Y-114243614D01*
X175316429Y-114246332D01*
X174884249Y-114677757D01*
X174650067Y-115241730D01*
X174649535Y-115852391D01*
X174882732Y-116416771D01*
X175263982Y-116798688D01*
X174884249Y-117177757D01*
X174650067Y-117741730D01*
X174649535Y-118352391D01*
X174882732Y-118916771D01*
X175263982Y-119298688D01*
X174884249Y-119677757D01*
X174650067Y-120241730D01*
X174649535Y-120852391D01*
X174695285Y-120963113D01*
X173198599Y-122459799D01*
X173033852Y-122706361D01*
X172976000Y-122997200D01*
X172976000Y-126989998D01*
X172262398Y-127703600D01*
X168698631Y-127703600D01*
X168686110Y-127673297D01*
X168293470Y-127279971D01*
X167780200Y-127066843D01*
X167224439Y-127066358D01*
X166710797Y-127278590D01*
X166317471Y-127671230D01*
X166231151Y-127879112D01*
X166146110Y-127673297D01*
X165753470Y-127279971D01*
X165240200Y-127066843D01*
X164684439Y-127066358D01*
X164170797Y-127278590D01*
X163777471Y-127671230D01*
X163691151Y-127879112D01*
X163606110Y-127673297D01*
X163213470Y-127279971D01*
X162700200Y-127066843D01*
X162144439Y-127066358D01*
X161630797Y-127278590D01*
X161237471Y-127671230D01*
X161151151Y-127879112D01*
X161066110Y-127673297D01*
X160673470Y-127279971D01*
X160160200Y-127066843D01*
X159604439Y-127066358D01*
X159090797Y-127278590D01*
X158697471Y-127671230D01*
X158611151Y-127879112D01*
X158526110Y-127673297D01*
X158133470Y-127279971D01*
X157620200Y-127066843D01*
X157064439Y-127066358D01*
X156550797Y-127278590D01*
X156157471Y-127671230D01*
X156071151Y-127879112D01*
X155986110Y-127673297D01*
X155593470Y-127279971D01*
X155561100Y-127266530D01*
X155561100Y-126742502D01*
X156041062Y-126262540D01*
X159547133Y-126262540D01*
X159580138Y-126342417D01*
X159997406Y-126760414D01*
X160542873Y-126986912D01*
X161133496Y-126987428D01*
X161679357Y-126761882D01*
X162097354Y-126344614D01*
X162131434Y-126262540D01*
X162838260Y-126262540D01*
X163129099Y-126204688D01*
X163375661Y-126039941D01*
X163627312Y-125788290D01*
X169514850Y-125788290D01*
X169514850Y-126478480D01*
X169611523Y-126711869D01*
X169790152Y-126890497D01*
X170023541Y-126987170D01*
X170713730Y-126987170D01*
X170872480Y-126828420D01*
X170872480Y-125629540D01*
X171126480Y-125629540D01*
X171126480Y-126828420D01*
X171285230Y-126987170D01*
X171975419Y-126987170D01*
X172208808Y-126890497D01*
X172387437Y-126711869D01*
X172484110Y-126478480D01*
X172484110Y-125788290D01*
X172325360Y-125629540D01*
X171126480Y-125629540D01*
X170872480Y-125629540D01*
X169673600Y-125629540D01*
X169514850Y-125788290D01*
X163627312Y-125788290D01*
X164889002Y-124526600D01*
X169514850Y-124526600D01*
X169514850Y-125216790D01*
X169673600Y-125375540D01*
X170872480Y-125375540D01*
X170872480Y-124176660D01*
X171126480Y-124176660D01*
X171126480Y-125375540D01*
X172325360Y-125375540D01*
X172484110Y-125216790D01*
X172484110Y-124526600D01*
X172387437Y-124293211D01*
X172208808Y-124114583D01*
X171975419Y-124017910D01*
X171285230Y-124017910D01*
X171126480Y-124176660D01*
X170872480Y-124176660D01*
X170713730Y-124017910D01*
X170023541Y-124017910D01*
X169790152Y-124114583D01*
X169611523Y-124293211D01*
X169514850Y-124526600D01*
X164889002Y-124526600D01*
X166153062Y-123262540D01*
X169502410Y-123262540D01*
X169502410Y-123352170D01*
X169546688Y-123587487D01*
X169685760Y-123803611D01*
X169897960Y-123948601D01*
X170149850Y-123999610D01*
X171849110Y-123999610D01*
X172084427Y-123955332D01*
X172300551Y-123816260D01*
X172445541Y-123604060D01*
X172496550Y-123352170D01*
X172496550Y-121652910D01*
X172452272Y-121417593D01*
X172313200Y-121201469D01*
X172101000Y-121056479D01*
X171849110Y-121005470D01*
X170149850Y-121005470D01*
X169914533Y-121049748D01*
X169698409Y-121188820D01*
X169553419Y-121401020D01*
X169502410Y-121652910D01*
X169502410Y-121742540D01*
X165838260Y-121742540D01*
X165547421Y-121800392D01*
X165300859Y-121965139D01*
X162523458Y-124742540D01*
X162131827Y-124742540D01*
X162098822Y-124662663D01*
X161681554Y-124244666D01*
X161136087Y-124018168D01*
X160545464Y-124017652D01*
X159999603Y-124243198D01*
X159581606Y-124660466D01*
X159547526Y-124742540D01*
X155726260Y-124742540D01*
X155435421Y-124800392D01*
X155188859Y-124965139D01*
X154263699Y-125890299D01*
X154098952Y-126136861D01*
X154041100Y-126427700D01*
X154041100Y-127266069D01*
X154010797Y-127278590D01*
X153617471Y-127671230D01*
X153404343Y-128184500D01*
X153403858Y-128740261D01*
X153616090Y-129253903D01*
X154008730Y-129647229D01*
X154058271Y-129667800D01*
X150464960Y-129667800D01*
X150511403Y-129648610D01*
X150904729Y-129255970D01*
X151117857Y-128742700D01*
X151118342Y-128186939D01*
X150906110Y-127673297D01*
X150513470Y-127279971D01*
X150000200Y-127066843D01*
X149444439Y-127066358D01*
X148930797Y-127278590D01*
X148537471Y-127671230D01*
X148451151Y-127879112D01*
X148366110Y-127673297D01*
X147973470Y-127279971D01*
X147460200Y-127066843D01*
X146904439Y-127066358D01*
X146390797Y-127278590D01*
X145997471Y-127671230D01*
X145911151Y-127879112D01*
X145826110Y-127673297D01*
X145433470Y-127279971D01*
X144920200Y-127066843D01*
X144572962Y-127066540D01*
X150686702Y-120952800D01*
X155952269Y-120952800D01*
X155964790Y-120983103D01*
X156357430Y-121376429D01*
X156565312Y-121462749D01*
X156359497Y-121547790D01*
X155966171Y-121940430D01*
X155753043Y-122453700D01*
X155752558Y-123009461D01*
X155964790Y-123523103D01*
X156357430Y-123916429D01*
X156870700Y-124129557D01*
X157426461Y-124130042D01*
X157940103Y-123917810D01*
X158333429Y-123525170D01*
X158546557Y-123011900D01*
X158546744Y-122796556D01*
X159354592Y-122796556D01*
X159580138Y-123342417D01*
X159997406Y-123760414D01*
X160542873Y-123986912D01*
X161133496Y-123987428D01*
X161679357Y-123761882D01*
X162097354Y-123344614D01*
X162323852Y-122799147D01*
X162324368Y-122208524D01*
X162098822Y-121662663D01*
X161681554Y-121244666D01*
X161136087Y-121018168D01*
X160545464Y-121017652D01*
X159999603Y-121243198D01*
X159581606Y-121660466D01*
X159355108Y-122205933D01*
X159354592Y-122796556D01*
X158546744Y-122796556D01*
X158547042Y-122456139D01*
X158334810Y-121942497D01*
X157942170Y-121549171D01*
X157734288Y-121462851D01*
X157940103Y-121377810D01*
X158333429Y-120985170D01*
X158546557Y-120471900D01*
X158547042Y-119916139D01*
X158334810Y-119402497D01*
X158256145Y-119323694D01*
X159205226Y-119323694D01*
X159453538Y-119924655D01*
X159912927Y-120384846D01*
X160513453Y-120634206D01*
X161163694Y-120634774D01*
X161764655Y-120386462D01*
X161999363Y-120152163D01*
X170027443Y-120152163D01*
X170126042Y-120418965D01*
X170735582Y-120645401D01*
X171385377Y-120621341D01*
X171873958Y-120418965D01*
X171972557Y-120152163D01*
X171000000Y-119179605D01*
X170027443Y-120152163D01*
X161999363Y-120152163D01*
X162224846Y-119927073D01*
X162474206Y-119326547D01*
X162474722Y-118735582D01*
X169354599Y-118735582D01*
X169378659Y-119385377D01*
X169581035Y-119873958D01*
X169847837Y-119972557D01*
X170820395Y-119000000D01*
X171179605Y-119000000D01*
X172152163Y-119972557D01*
X172418965Y-119873958D01*
X172645401Y-119264418D01*
X172621341Y-118614623D01*
X172418965Y-118126042D01*
X172152163Y-118027443D01*
X171179605Y-119000000D01*
X170820395Y-119000000D01*
X169847837Y-118027443D01*
X169581035Y-118126042D01*
X169354599Y-118735582D01*
X162474722Y-118735582D01*
X162474774Y-118676306D01*
X162226462Y-118075345D01*
X161999351Y-117847837D01*
X170027443Y-117847837D01*
X171000000Y-118820395D01*
X171972557Y-117847837D01*
X171873958Y-117581035D01*
X171264418Y-117354599D01*
X170614623Y-117378659D01*
X170126042Y-117581035D01*
X170027443Y-117847837D01*
X161999351Y-117847837D01*
X161767073Y-117615154D01*
X161166547Y-117365794D01*
X160516306Y-117365226D01*
X159915345Y-117613538D01*
X159455154Y-118072927D01*
X159205794Y-118673453D01*
X159205226Y-119323694D01*
X158256145Y-119323694D01*
X157942170Y-119009171D01*
X157734288Y-118922851D01*
X157940103Y-118837810D01*
X158333429Y-118445170D01*
X158546557Y-117931900D01*
X158547042Y-117376139D01*
X158334810Y-116862497D01*
X157942170Y-116469171D01*
X157750073Y-116389405D01*
X157880943Y-116335197D01*
X157950408Y-116093013D01*
X157149800Y-115292405D01*
X156349192Y-116093013D01*
X156418657Y-116335197D01*
X156559118Y-116385309D01*
X156359497Y-116467790D01*
X155966171Y-116860430D01*
X155753043Y-117373700D01*
X155752558Y-117929461D01*
X155964790Y-118443103D01*
X156357430Y-118836429D01*
X156565312Y-118922749D01*
X156359497Y-119007790D01*
X155966171Y-119400430D01*
X155952730Y-119432800D01*
X150371900Y-119432800D01*
X150081061Y-119490652D01*
X149834499Y-119655399D01*
X142410481Y-127079417D01*
X142380200Y-127066843D01*
X141824439Y-127066358D01*
X141310797Y-127278590D01*
X140917471Y-127671230D01*
X140837705Y-127863327D01*
X140783497Y-127732457D01*
X140541313Y-127662992D01*
X139740705Y-128463600D01*
X140541313Y-129264208D01*
X140783497Y-129194743D01*
X140833609Y-129054282D01*
X140916090Y-129253903D01*
X141308730Y-129647229D01*
X141358271Y-129667800D01*
X140297462Y-129667800D01*
X140361708Y-129443813D01*
X139561100Y-128643205D01*
X138760492Y-129443813D01*
X138824738Y-129667800D01*
X137764960Y-129667800D01*
X137811403Y-129648610D01*
X138204729Y-129255970D01*
X138284495Y-129063873D01*
X138338703Y-129194743D01*
X138580887Y-129264208D01*
X139381495Y-128463600D01*
X138580887Y-127662992D01*
X138338703Y-127732457D01*
X138288591Y-127872918D01*
X138206110Y-127673297D01*
X138016532Y-127483387D01*
X138760492Y-127483387D01*
X139561100Y-128283995D01*
X140361708Y-127483387D01*
X140292243Y-127241203D01*
X139768798Y-127054456D01*
X139213732Y-127082238D01*
X138829957Y-127241203D01*
X138760492Y-127483387D01*
X138016532Y-127483387D01*
X137813470Y-127279971D01*
X137300200Y-127066843D01*
X136744439Y-127066358D01*
X136230797Y-127278590D01*
X135837471Y-127671230D01*
X135751151Y-127879112D01*
X135666110Y-127673297D01*
X135273470Y-127279971D01*
X134760200Y-127066843D01*
X134204439Y-127066358D01*
X133690797Y-127278590D01*
X133297471Y-127671230D01*
X133211151Y-127879112D01*
X133126110Y-127673297D01*
X132733470Y-127279971D01*
X132220200Y-127066843D01*
X131664439Y-127066358D01*
X131150797Y-127278590D01*
X130757471Y-127671230D01*
X130682200Y-127852503D01*
X130682200Y-125171200D01*
X130630057Y-124909062D01*
X130481568Y-124686832D01*
X130035527Y-124240791D01*
X129877767Y-114905102D01*
X155740656Y-114905102D01*
X155768438Y-115460168D01*
X155927403Y-115843943D01*
X156169587Y-115913408D01*
X156970195Y-115112800D01*
X157329405Y-115112800D01*
X158130013Y-115913408D01*
X158372197Y-115843943D01*
X158389103Y-115796556D01*
X159354592Y-115796556D01*
X159580138Y-116342417D01*
X159997406Y-116760414D01*
X160542873Y-116986912D01*
X161133496Y-116987428D01*
X161679357Y-116761882D01*
X162097354Y-116344614D01*
X162131434Y-116262540D01*
X163186260Y-116262540D01*
X163477099Y-116204688D01*
X163723661Y-116039941D01*
X163975312Y-115788290D01*
X169514850Y-115788290D01*
X169514850Y-116478480D01*
X169611523Y-116711869D01*
X169790152Y-116890497D01*
X170023541Y-116987170D01*
X170713730Y-116987170D01*
X170872480Y-116828420D01*
X170872480Y-115629540D01*
X171126480Y-115629540D01*
X171126480Y-116828420D01*
X171285230Y-116987170D01*
X171975419Y-116987170D01*
X172208808Y-116890497D01*
X172387437Y-116711869D01*
X172484110Y-116478480D01*
X172484110Y-115788290D01*
X172325360Y-115629540D01*
X171126480Y-115629540D01*
X170872480Y-115629540D01*
X169673600Y-115629540D01*
X169514850Y-115788290D01*
X163975312Y-115788290D01*
X165237002Y-114526600D01*
X169514850Y-114526600D01*
X169514850Y-115216790D01*
X169673600Y-115375540D01*
X170872480Y-115375540D01*
X170872480Y-114176660D01*
X171126480Y-114176660D01*
X171126480Y-115375540D01*
X172325360Y-115375540D01*
X172484110Y-115216790D01*
X172484110Y-114526600D01*
X172387437Y-114293211D01*
X172208808Y-114114583D01*
X171975419Y-114017910D01*
X171285230Y-114017910D01*
X171126480Y-114176660D01*
X170872480Y-114176660D01*
X170713730Y-114017910D01*
X170023541Y-114017910D01*
X169790152Y-114114583D01*
X169611523Y-114293211D01*
X169514850Y-114526600D01*
X165237002Y-114526600D01*
X167001062Y-112762540D01*
X169502410Y-112762540D01*
X169502410Y-112852170D01*
X169546688Y-113087487D01*
X169685760Y-113303611D01*
X169897960Y-113448601D01*
X170149850Y-113499610D01*
X171849110Y-113499610D01*
X172084427Y-113455332D01*
X172300551Y-113316260D01*
X172445541Y-113104060D01*
X172496550Y-112852170D01*
X172496550Y-112807736D01*
X174638342Y-112807736D01*
X174663961Y-113417860D01*
X174848157Y-113862548D01*
X175104641Y-113948954D01*
X176005195Y-113048400D01*
X176364405Y-113048400D01*
X177264959Y-113948954D01*
X177521443Y-113862548D01*
X177731258Y-113289064D01*
X177705639Y-112678940D01*
X177521443Y-112234252D01*
X177264959Y-112147846D01*
X176364405Y-113048400D01*
X176005195Y-113048400D01*
X175104641Y-112147846D01*
X174848157Y-112234252D01*
X174638342Y-112807736D01*
X172496550Y-112807736D01*
X172496550Y-111968241D01*
X175284246Y-111968241D01*
X176184800Y-112868795D01*
X177085354Y-111968241D01*
X176998948Y-111711757D01*
X176425464Y-111501942D01*
X175815340Y-111527561D01*
X175370652Y-111711757D01*
X175284246Y-111968241D01*
X172496550Y-111968241D01*
X172496550Y-111152910D01*
X172452272Y-110917593D01*
X172313200Y-110701469D01*
X172101000Y-110556479D01*
X171849110Y-110505470D01*
X170149850Y-110505470D01*
X169914533Y-110549748D01*
X169698409Y-110688820D01*
X169553419Y-110901020D01*
X169502410Y-111152910D01*
X169502410Y-111242540D01*
X166686260Y-111242540D01*
X166443674Y-111290794D01*
X166395420Y-111300392D01*
X166148859Y-111465139D01*
X162871458Y-114742540D01*
X162131827Y-114742540D01*
X162098822Y-114662663D01*
X161681554Y-114244666D01*
X161136087Y-114018168D01*
X160545464Y-114017652D01*
X159999603Y-114243198D01*
X159581606Y-114660466D01*
X159355108Y-115205933D01*
X159354592Y-115796556D01*
X158389103Y-115796556D01*
X158558944Y-115320498D01*
X158531162Y-114765432D01*
X158372197Y-114381657D01*
X158130013Y-114312192D01*
X157329405Y-115112800D01*
X156970195Y-115112800D01*
X156169587Y-114312192D01*
X155927403Y-114381657D01*
X155740656Y-114905102D01*
X129877767Y-114905102D01*
X129716870Y-105383800D01*
X151790400Y-105383800D01*
X152052538Y-105331657D01*
X152274768Y-105183168D01*
X152423257Y-104960938D01*
X152475400Y-104698800D01*
X152475400Y-85598000D01*
X152423257Y-85335862D01*
X152274768Y-85113632D01*
X152052538Y-84965143D01*
X151790400Y-84913000D01*
X129370942Y-84913000D01*
X129305965Y-81067907D01*
X129624730Y-81387229D01*
X130138000Y-81600357D01*
X130693761Y-81600842D01*
X131207403Y-81388610D01*
X131600729Y-80995970D01*
X131687049Y-80788088D01*
X131772090Y-80993903D01*
X132164730Y-81387229D01*
X132678000Y-81600357D01*
X133233761Y-81600842D01*
X133321703Y-81564505D01*
X134946199Y-83189001D01*
X135192761Y-83353748D01*
X135483600Y-83411600D01*
X150865998Y-83411600D01*
X153164000Y-85709602D01*
X153164000Y-106629200D01*
X153221852Y-106920039D01*
X153386599Y-107166601D01*
X155520199Y-109300201D01*
X155766761Y-109464948D01*
X155864842Y-109484458D01*
X155753043Y-109753700D01*
X155752558Y-110309461D01*
X155964790Y-110823103D01*
X156357430Y-111216429D01*
X156565312Y-111302749D01*
X156359497Y-111387790D01*
X155966171Y-111780430D01*
X155753043Y-112293700D01*
X155752558Y-112849461D01*
X155964790Y-113363103D01*
X156357430Y-113756429D01*
X156549527Y-113836195D01*
X156418657Y-113890403D01*
X156349192Y-114132587D01*
X157149800Y-114933195D01*
X157950408Y-114132587D01*
X157880943Y-113890403D01*
X157740482Y-113840291D01*
X157940103Y-113757810D01*
X158333429Y-113365170D01*
X158546557Y-112851900D01*
X158547041Y-112296556D01*
X159354592Y-112296556D01*
X159580138Y-112842417D01*
X159997406Y-113260414D01*
X160542873Y-113486912D01*
X161133496Y-113487428D01*
X161679357Y-113261882D01*
X162097354Y-112844614D01*
X162323852Y-112299147D01*
X162324368Y-111708524D01*
X162098822Y-111162663D01*
X161681554Y-110744666D01*
X161136087Y-110518168D01*
X160545464Y-110517652D01*
X159999603Y-110743198D01*
X159581606Y-111160466D01*
X159355108Y-111705933D01*
X159354592Y-112296556D01*
X158547041Y-112296556D01*
X158547042Y-112296139D01*
X158334810Y-111782497D01*
X157942170Y-111389171D01*
X157734288Y-111302851D01*
X157940103Y-111217810D01*
X158333429Y-110825170D01*
X158546557Y-110311900D01*
X158547042Y-109756139D01*
X158372748Y-109334314D01*
X158423801Y-109300201D01*
X159205493Y-108518509D01*
X159205226Y-108823694D01*
X159453538Y-109424655D01*
X159912927Y-109884846D01*
X160513453Y-110134206D01*
X161163694Y-110134774D01*
X161764655Y-109886462D01*
X162224846Y-109427073D01*
X162474206Y-108826547D01*
X162474774Y-108176306D01*
X162226462Y-107575345D01*
X161767073Y-107115154D01*
X161166547Y-106865794D01*
X160858477Y-106865525D01*
X161089293Y-106634709D01*
X161163694Y-106634774D01*
X161764655Y-106386462D01*
X162224846Y-105927073D01*
X162474206Y-105326547D01*
X162474774Y-104676306D01*
X162226462Y-104075345D01*
X161767073Y-103615154D01*
X161166547Y-103365794D01*
X160516306Y-103365226D01*
X159915345Y-103613538D01*
X159455154Y-104072927D01*
X159205794Y-104673453D01*
X159205226Y-105323694D01*
X159453538Y-105924655D01*
X159551555Y-106022843D01*
X158491845Y-107082553D01*
X158334810Y-106702497D01*
X157942170Y-106309171D01*
X157734288Y-106222851D01*
X157940103Y-106137810D01*
X158333429Y-105745170D01*
X158546557Y-105231900D01*
X158547042Y-104676139D01*
X158334810Y-104162497D01*
X157942170Y-103769171D01*
X157734288Y-103682851D01*
X157940103Y-103597810D01*
X158333429Y-103205170D01*
X158546557Y-102691900D01*
X158547042Y-102136139D01*
X158417943Y-101823694D01*
X159205226Y-101823694D01*
X159453538Y-102424655D01*
X159912927Y-102884846D01*
X160513453Y-103134206D01*
X161163694Y-103134774D01*
X161764655Y-102886462D01*
X162224846Y-102427073D01*
X162474206Y-101826547D01*
X162474774Y-101176306D01*
X162226462Y-100575345D01*
X161767073Y-100115154D01*
X161166547Y-99865794D01*
X160516306Y-99865226D01*
X159915345Y-100113538D01*
X159455154Y-100572927D01*
X159205794Y-101173453D01*
X159205226Y-101823694D01*
X158417943Y-101823694D01*
X158334810Y-101622497D01*
X157942170Y-101229171D01*
X157734288Y-101142851D01*
X157940103Y-101057810D01*
X158333429Y-100665170D01*
X158546557Y-100151900D01*
X158547042Y-99596139D01*
X158334810Y-99082497D01*
X157942170Y-98689171D01*
X157734288Y-98602851D01*
X157940103Y-98517810D01*
X158333429Y-98125170D01*
X158546557Y-97611900D01*
X158547042Y-97056139D01*
X158334810Y-96542497D01*
X157942170Y-96149171D01*
X157734288Y-96062851D01*
X157940103Y-95977810D01*
X158333429Y-95585170D01*
X158546557Y-95071900D01*
X158546773Y-94823694D01*
X159205226Y-94823694D01*
X159453538Y-95424655D01*
X159912927Y-95884846D01*
X160513453Y-96134206D01*
X161163694Y-96134774D01*
X161764655Y-95886462D01*
X162224846Y-95427073D01*
X162474206Y-94826547D01*
X162474774Y-94176306D01*
X162226462Y-93575345D01*
X161767073Y-93115154D01*
X161166547Y-92865794D01*
X160516306Y-92865226D01*
X159915345Y-93113538D01*
X159455154Y-93572927D01*
X159205794Y-94173453D01*
X159205226Y-94823694D01*
X158546773Y-94823694D01*
X158547042Y-94516139D01*
X158334810Y-94002497D01*
X157942170Y-93609171D01*
X157734288Y-93522851D01*
X157940103Y-93437810D01*
X158333429Y-93045170D01*
X158546557Y-92531900D01*
X158547042Y-91976139D01*
X158334810Y-91462497D01*
X158196250Y-91323694D01*
X159205226Y-91323694D01*
X159453538Y-91924655D01*
X159912927Y-92384846D01*
X160513453Y-92634206D01*
X161163694Y-92634774D01*
X161764655Y-92386462D01*
X162224846Y-91927073D01*
X162474206Y-91326547D01*
X162474774Y-90676306D01*
X162226462Y-90075345D01*
X161767073Y-89615154D01*
X161166547Y-89365794D01*
X160516306Y-89365226D01*
X159915345Y-89613538D01*
X159455154Y-90072927D01*
X159205794Y-90673453D01*
X159205226Y-91323694D01*
X158196250Y-91323694D01*
X157942170Y-91069171D01*
X157734288Y-90982851D01*
X157940103Y-90897810D01*
X158333429Y-90505170D01*
X158546557Y-89991900D01*
X158547042Y-89436139D01*
X158334810Y-88922497D01*
X157942170Y-88529171D01*
X157734288Y-88442851D01*
X157940103Y-88357810D01*
X158333429Y-87965170D01*
X158546557Y-87451900D01*
X158547042Y-86896139D01*
X158334810Y-86382497D01*
X157942170Y-85989171D01*
X157734288Y-85902851D01*
X157940103Y-85817810D01*
X158333429Y-85425170D01*
X158546557Y-84911900D01*
X158547042Y-84356139D01*
X158334810Y-83842497D01*
X157942170Y-83449171D01*
X157428900Y-83236043D01*
X156873139Y-83235558D01*
X156563600Y-83363457D01*
X156563600Y-82055902D01*
X157031719Y-81587783D01*
X157062000Y-81600357D01*
X157617761Y-81600842D01*
X158131403Y-81388610D01*
X158524729Y-80995970D01*
X158611049Y-80788088D01*
X158696090Y-80993903D01*
X159088730Y-81387229D01*
X159602000Y-81600357D01*
X160129615Y-81600817D01*
X161046888Y-82518090D01*
X160545464Y-82517652D01*
X159999603Y-82743198D01*
X159581606Y-83160466D01*
X159355108Y-83705933D01*
X159354592Y-84296556D01*
X159580138Y-84842417D01*
X159997406Y-85260414D01*
X160542873Y-85486912D01*
X161133496Y-85487428D01*
X161679357Y-85261882D01*
X161901600Y-85040027D01*
X161901600Y-85365618D01*
X161215906Y-86051312D01*
X161136087Y-86018168D01*
X160545464Y-86017652D01*
X159999603Y-86243198D01*
X159581606Y-86660466D01*
X159355108Y-87205933D01*
X159354592Y-87796556D01*
X159580138Y-88342417D01*
X159997406Y-88760414D01*
X160542873Y-88986912D01*
X161133496Y-88987428D01*
X161192603Y-88963005D01*
X162714400Y-90484802D01*
X162714400Y-95050798D01*
X161331083Y-96434115D01*
X161166547Y-96365794D01*
X160516306Y-96365226D01*
X159915345Y-96613538D01*
X159455154Y-97072927D01*
X159205794Y-97673453D01*
X159205226Y-98323694D01*
X159453538Y-98924655D01*
X159912927Y-99384846D01*
X160513453Y-99634206D01*
X161163694Y-99634774D01*
X161764655Y-99386462D01*
X162224846Y-98927073D01*
X162474206Y-98326547D01*
X162474774Y-97676306D01*
X162405691Y-97509111D01*
X164011801Y-95903001D01*
X164176548Y-95656440D01*
X164234400Y-95365600D01*
X164234400Y-94823694D01*
X169365226Y-94823694D01*
X169613538Y-95424655D01*
X170072927Y-95884846D01*
X170673453Y-96134206D01*
X171323694Y-96134774D01*
X171924655Y-95886462D01*
X172384846Y-95427073D01*
X172634206Y-94826547D01*
X172634774Y-94176306D01*
X172386462Y-93575345D01*
X171927073Y-93115154D01*
X171326547Y-92865794D01*
X170676306Y-92865226D01*
X170075345Y-93113538D01*
X169615154Y-93572927D01*
X169365794Y-94173453D01*
X169365226Y-94823694D01*
X164234400Y-94823694D01*
X164234400Y-90170000D01*
X164176548Y-89879161D01*
X164011801Y-89632599D01*
X162641742Y-88262540D01*
X167499480Y-88262540D01*
X167790319Y-88204688D01*
X168036881Y-88039941D01*
X168288532Y-87788290D01*
X169514850Y-87788290D01*
X169514850Y-88478480D01*
X169611523Y-88711869D01*
X169790152Y-88890497D01*
X170023541Y-88987170D01*
X170713730Y-88987170D01*
X170872480Y-88828420D01*
X170872480Y-87629540D01*
X169673600Y-87629540D01*
X169514850Y-87788290D01*
X168288532Y-87788290D01*
X169514850Y-86561972D01*
X169514850Y-87216790D01*
X169673600Y-87375540D01*
X170872480Y-87375540D01*
X170872480Y-86176660D01*
X170713730Y-86017910D01*
X170058912Y-86017910D01*
X170577212Y-85499610D01*
X171849110Y-85499610D01*
X172084427Y-85455332D01*
X172300551Y-85316260D01*
X172445541Y-85104060D01*
X172496550Y-84852170D01*
X172496550Y-83152910D01*
X172452272Y-82917593D01*
X172313200Y-82701469D01*
X172101000Y-82556479D01*
X171849110Y-82505470D01*
X170149850Y-82505470D01*
X169914533Y-82549748D01*
X169698409Y-82688820D01*
X169553419Y-82901020D01*
X169502410Y-83152910D01*
X169502410Y-84424808D01*
X167184678Y-86742540D01*
X162674282Y-86742540D01*
X163199001Y-86217821D01*
X163363748Y-85971259D01*
X163421600Y-85680420D01*
X163421600Y-83058000D01*
X163363748Y-82767161D01*
X163199001Y-82520599D01*
X162278878Y-81600476D01*
X162697761Y-81600842D01*
X163211403Y-81388610D01*
X163604729Y-80995970D01*
X163691049Y-80788088D01*
X163776090Y-80993903D01*
X164168730Y-81387229D01*
X164682000Y-81600357D01*
X165237761Y-81600842D01*
X165751403Y-81388610D01*
X166144729Y-80995970D01*
X166231049Y-80788088D01*
X166316090Y-80993903D01*
X166708730Y-81387229D01*
X167222000Y-81600357D01*
X167777761Y-81600842D01*
X168291403Y-81388610D01*
X168684729Y-80995970D01*
X168897857Y-80482700D01*
X168898342Y-79926939D01*
X168686110Y-79413297D01*
X168342813Y-79069400D01*
X180263800Y-79069400D01*
X180263800Y-101591998D01*
X180263800Y-101591998D01*
G37*
X180263800Y-101591998D02*
X179320216Y-100648414D01*
X179374526Y-100517621D01*
X179375073Y-99891127D01*
X179135829Y-99312113D01*
X178757104Y-98932727D01*
X179134272Y-98556217D01*
X179374526Y-97977621D01*
X179375073Y-97351127D01*
X179135829Y-96772113D01*
X178693217Y-96328728D01*
X178114621Y-96088474D01*
X177488127Y-96087927D01*
X176909113Y-96327171D01*
X176465728Y-96769783D01*
X176225474Y-97348379D01*
X176225192Y-97670829D01*
X176153217Y-97598728D01*
X175574621Y-97358474D01*
X175090351Y-97358051D01*
X178286601Y-94161801D01*
X178451348Y-93915240D01*
X178509200Y-93624400D01*
X178509200Y-89400910D01*
X178640087Y-89346829D01*
X179083472Y-88904217D01*
X179323726Y-88325621D01*
X179324273Y-87699127D01*
X179085029Y-87120113D01*
X178706304Y-86740727D01*
X179083472Y-86364217D01*
X179323726Y-85785621D01*
X179324273Y-85159127D01*
X179085029Y-84580113D01*
X178706304Y-84200727D01*
X179083472Y-83824217D01*
X179323726Y-83245621D01*
X179324273Y-82619127D01*
X179085029Y-82040113D01*
X178642417Y-81596728D01*
X178063821Y-81356474D01*
X177437327Y-81355927D01*
X176858313Y-81595171D01*
X176739477Y-81713800D01*
X176733200Y-81713800D01*
X176442361Y-81771652D01*
X176195799Y-81936399D01*
X176031052Y-82182961D01*
X175973200Y-82473800D01*
X176031052Y-82764639D01*
X176098055Y-82864917D01*
X175523821Y-82626474D01*
X174897327Y-82625927D01*
X174318313Y-82865171D01*
X173874928Y-83307783D01*
X173634674Y-83886379D01*
X173634127Y-84512873D01*
X173689211Y-84646187D01*
X172487399Y-85847999D01*
X172322652Y-86094561D01*
X172300442Y-86206217D01*
X172208808Y-86114583D01*
X171975419Y-86017910D01*
X171285230Y-86017910D01*
X171126480Y-86176660D01*
X171126480Y-87375540D01*
X171146480Y-87375540D01*
X171146480Y-87629540D01*
X171126480Y-87629540D01*
X171126480Y-88828420D01*
X171269229Y-88971169D01*
X170874998Y-89365400D01*
X170676306Y-89365226D01*
X170075345Y-89613538D01*
X169615154Y-90072927D01*
X169365794Y-90673453D01*
X169365226Y-91323694D01*
X169613538Y-91924655D01*
X170072927Y-92384846D01*
X170673453Y-92634206D01*
X171323694Y-92634774D01*
X171924655Y-92386462D01*
X172384846Y-91927073D01*
X172634206Y-91326547D01*
X172634774Y-90676306D01*
X172386462Y-90075345D01*
X172350591Y-90039411D01*
X172671200Y-89718802D01*
X172671200Y-95239998D01*
X171481190Y-96430008D01*
X171326547Y-96365794D01*
X170676306Y-96365226D01*
X170075345Y-96613538D01*
X169615154Y-97072927D01*
X169365794Y-97673453D01*
X169365226Y-98323694D01*
X169613538Y-98924655D01*
X170072927Y-99384846D01*
X170667192Y-99631606D01*
X170462599Y-99836199D01*
X170354304Y-99998275D01*
X170075345Y-100113538D01*
X169615154Y-100572927D01*
X169365794Y-101173453D01*
X169365226Y-101823694D01*
X169613538Y-102424655D01*
X170072927Y-102884846D01*
X170673453Y-103134206D01*
X171323694Y-103134774D01*
X171924655Y-102886462D01*
X172384846Y-102427073D01*
X172634206Y-101826547D01*
X172634774Y-101176306D01*
X172386462Y-100575345D01*
X172129983Y-100318419D01*
X173685348Y-98763054D01*
X173684927Y-99244873D01*
X173924171Y-99823887D01*
X174302896Y-100203273D01*
X173925728Y-100579783D01*
X173685474Y-101158379D01*
X173684927Y-101784873D01*
X173740011Y-101918187D01*
X171985008Y-103673190D01*
X171927073Y-103615154D01*
X171326547Y-103365794D01*
X170676306Y-103365226D01*
X170075345Y-103613538D01*
X169615154Y-104072927D01*
X169365794Y-104673453D01*
X169365226Y-105323694D01*
X169613538Y-105924655D01*
X170072927Y-106384846D01*
X170673453Y-106634206D01*
X171323694Y-106634774D01*
X171924655Y-106386462D01*
X172384846Y-105927073D01*
X172634206Y-105326547D01*
X172634340Y-105173462D01*
X173685104Y-104122698D01*
X173684927Y-104324873D01*
X173924171Y-104903887D01*
X174366783Y-105347272D01*
X174945379Y-105587526D01*
X175571873Y-105588073D01*
X176150887Y-105348829D01*
X176594272Y-104906217D01*
X176834526Y-104327621D01*
X176834808Y-104005171D01*
X176906783Y-104077272D01*
X177485379Y-104317526D01*
X177715871Y-104317727D01*
X174293598Y-107740000D01*
X172454496Y-107740000D01*
X172386462Y-107575345D01*
X171927073Y-107115154D01*
X171326547Y-106865794D01*
X170676306Y-106865226D01*
X170075345Y-107113538D01*
X169615154Y-107572927D01*
X169365794Y-108173453D01*
X169365226Y-108823694D01*
X169613538Y-109424655D01*
X170072927Y-109884846D01*
X170673453Y-110134206D01*
X171323694Y-110134774D01*
X171924655Y-109886462D01*
X172384846Y-109427073D01*
X172454221Y-109260000D01*
X174608400Y-109260000D01*
X174899239Y-109202148D01*
X175145801Y-109037401D01*
X180263800Y-103919402D01*
X180263800Y-129667800D01*
X168244960Y-129667800D01*
X168291403Y-129648610D01*
X168684729Y-129255970D01*
X168698170Y-129223600D01*
X172577200Y-129223600D01*
X172868039Y-129165748D01*
X173114601Y-129001001D01*
X174273401Y-127842201D01*
X174438148Y-127595639D01*
X174496000Y-127304800D01*
X174496000Y-123312002D01*
X174649704Y-123158298D01*
X174649535Y-123352391D01*
X174882732Y-123916771D01*
X175263982Y-124298688D01*
X174884249Y-124677757D01*
X174650067Y-125241730D01*
X174649535Y-125852391D01*
X174882732Y-126416771D01*
X175263982Y-126798688D01*
X174884249Y-127177757D01*
X174650067Y-127741730D01*
X174649535Y-128352391D01*
X174882732Y-128916771D01*
X175314157Y-129348951D01*
X175878130Y-129583133D01*
X176488791Y-129583665D01*
X177053171Y-129350468D01*
X177485351Y-128919043D01*
X177719533Y-128355070D01*
X177720065Y-127744409D01*
X177486868Y-127180029D01*
X177105618Y-126798112D01*
X177485351Y-126419043D01*
X177719533Y-125855070D01*
X177720065Y-125244409D01*
X177486868Y-124680029D01*
X177105618Y-124298112D01*
X177485351Y-123919043D01*
X177719533Y-123355070D01*
X177720065Y-122744409D01*
X177486868Y-122180029D01*
X177105618Y-121798112D01*
X177485351Y-121419043D01*
X177719533Y-120855070D01*
X177720065Y-120244409D01*
X177486868Y-119680029D01*
X177105618Y-119298112D01*
X177485351Y-118919043D01*
X177719533Y-118355070D01*
X177720065Y-117744409D01*
X177486868Y-117180029D01*
X177105618Y-116798112D01*
X177485351Y-116419043D01*
X177719533Y-115855070D01*
X177720065Y-115244409D01*
X177486868Y-114680029D01*
X177055443Y-114247849D01*
X177046428Y-114244106D01*
X177085354Y-114128559D01*
X176184800Y-113228005D01*
X175284246Y-114128559D01*
X175323007Y-114243614D01*
X175316429Y-114246332D01*
X174884249Y-114677757D01*
X174650067Y-115241730D01*
X174649535Y-115852391D01*
X174882732Y-116416771D01*
X175263982Y-116798688D01*
X174884249Y-117177757D01*
X174650067Y-117741730D01*
X174649535Y-118352391D01*
X174882732Y-118916771D01*
X175263982Y-119298688D01*
X174884249Y-119677757D01*
X174650067Y-120241730D01*
X174649535Y-120852391D01*
X174695285Y-120963113D01*
X173198599Y-122459799D01*
X173033852Y-122706361D01*
X172976000Y-122997200D01*
X172976000Y-126989998D01*
X172262398Y-127703600D01*
X168698631Y-127703600D01*
X168686110Y-127673297D01*
X168293470Y-127279971D01*
X167780200Y-127066843D01*
X167224439Y-127066358D01*
X166710797Y-127278590D01*
X166317471Y-127671230D01*
X166231151Y-127879112D01*
X166146110Y-127673297D01*
X165753470Y-127279971D01*
X165240200Y-127066843D01*
X164684439Y-127066358D01*
X164170797Y-127278590D01*
X163777471Y-127671230D01*
X163691151Y-127879112D01*
X163606110Y-127673297D01*
X163213470Y-127279971D01*
X162700200Y-127066843D01*
X162144439Y-127066358D01*
X161630797Y-127278590D01*
X161237471Y-127671230D01*
X161151151Y-127879112D01*
X161066110Y-127673297D01*
X160673470Y-127279971D01*
X160160200Y-127066843D01*
X159604439Y-127066358D01*
X159090797Y-127278590D01*
X158697471Y-127671230D01*
X158611151Y-127879112D01*
X158526110Y-127673297D01*
X158133470Y-127279971D01*
X157620200Y-127066843D01*
X157064439Y-127066358D01*
X156550797Y-127278590D01*
X156157471Y-127671230D01*
X156071151Y-127879112D01*
X155986110Y-127673297D01*
X155593470Y-127279971D01*
X155561100Y-127266530D01*
X155561100Y-126742502D01*
X156041062Y-126262540D01*
X159547133Y-126262540D01*
X159580138Y-126342417D01*
X159997406Y-126760414D01*
X160542873Y-126986912D01*
X161133496Y-126987428D01*
X161679357Y-126761882D01*
X162097354Y-126344614D01*
X162131434Y-126262540D01*
X162838260Y-126262540D01*
X163129099Y-126204688D01*
X163375661Y-126039941D01*
X163627312Y-125788290D01*
X169514850Y-125788290D01*
X169514850Y-126478480D01*
X169611523Y-126711869D01*
X169790152Y-126890497D01*
X170023541Y-126987170D01*
X170713730Y-126987170D01*
X170872480Y-126828420D01*
X170872480Y-125629540D01*
X171126480Y-125629540D01*
X171126480Y-126828420D01*
X171285230Y-126987170D01*
X171975419Y-126987170D01*
X172208808Y-126890497D01*
X172387437Y-126711869D01*
X172484110Y-126478480D01*
X172484110Y-125788290D01*
X172325360Y-125629540D01*
X171126480Y-125629540D01*
X170872480Y-125629540D01*
X169673600Y-125629540D01*
X169514850Y-125788290D01*
X163627312Y-125788290D01*
X164889002Y-124526600D01*
X169514850Y-124526600D01*
X169514850Y-125216790D01*
X169673600Y-125375540D01*
X170872480Y-125375540D01*
X170872480Y-124176660D01*
X171126480Y-124176660D01*
X171126480Y-125375540D01*
X172325360Y-125375540D01*
X172484110Y-125216790D01*
X172484110Y-124526600D01*
X172387437Y-124293211D01*
X172208808Y-124114583D01*
X171975419Y-124017910D01*
X171285230Y-124017910D01*
X171126480Y-124176660D01*
X170872480Y-124176660D01*
X170713730Y-124017910D01*
X170023541Y-124017910D01*
X169790152Y-124114583D01*
X169611523Y-124293211D01*
X169514850Y-124526600D01*
X164889002Y-124526600D01*
X166153062Y-123262540D01*
X169502410Y-123262540D01*
X169502410Y-123352170D01*
X169546688Y-123587487D01*
X169685760Y-123803611D01*
X169897960Y-123948601D01*
X170149850Y-123999610D01*
X171849110Y-123999610D01*
X172084427Y-123955332D01*
X172300551Y-123816260D01*
X172445541Y-123604060D01*
X172496550Y-123352170D01*
X172496550Y-121652910D01*
X172452272Y-121417593D01*
X172313200Y-121201469D01*
X172101000Y-121056479D01*
X171849110Y-121005470D01*
X170149850Y-121005470D01*
X169914533Y-121049748D01*
X169698409Y-121188820D01*
X169553419Y-121401020D01*
X169502410Y-121652910D01*
X169502410Y-121742540D01*
X165838260Y-121742540D01*
X165547421Y-121800392D01*
X165300859Y-121965139D01*
X162523458Y-124742540D01*
X162131827Y-124742540D01*
X162098822Y-124662663D01*
X161681554Y-124244666D01*
X161136087Y-124018168D01*
X160545464Y-124017652D01*
X159999603Y-124243198D01*
X159581606Y-124660466D01*
X159547526Y-124742540D01*
X155726260Y-124742540D01*
X155435421Y-124800392D01*
X155188859Y-124965139D01*
X154263699Y-125890299D01*
X154098952Y-126136861D01*
X154041100Y-126427700D01*
X154041100Y-127266069D01*
X154010797Y-127278590D01*
X153617471Y-127671230D01*
X153404343Y-128184500D01*
X153403858Y-128740261D01*
X153616090Y-129253903D01*
X154008730Y-129647229D01*
X154058271Y-129667800D01*
X150464960Y-129667800D01*
X150511403Y-129648610D01*
X150904729Y-129255970D01*
X151117857Y-128742700D01*
X151118342Y-128186939D01*
X150906110Y-127673297D01*
X150513470Y-127279971D01*
X150000200Y-127066843D01*
X149444439Y-127066358D01*
X148930797Y-127278590D01*
X148537471Y-127671230D01*
X148451151Y-127879112D01*
X148366110Y-127673297D01*
X147973470Y-127279971D01*
X147460200Y-127066843D01*
X146904439Y-127066358D01*
X146390797Y-127278590D01*
X145997471Y-127671230D01*
X145911151Y-127879112D01*
X145826110Y-127673297D01*
X145433470Y-127279971D01*
X144920200Y-127066843D01*
X144572962Y-127066540D01*
X150686702Y-120952800D01*
X155952269Y-120952800D01*
X155964790Y-120983103D01*
X156357430Y-121376429D01*
X156565312Y-121462749D01*
X156359497Y-121547790D01*
X155966171Y-121940430D01*
X155753043Y-122453700D01*
X155752558Y-123009461D01*
X155964790Y-123523103D01*
X156357430Y-123916429D01*
X156870700Y-124129557D01*
X157426461Y-124130042D01*
X157940103Y-123917810D01*
X158333429Y-123525170D01*
X158546557Y-123011900D01*
X158546744Y-122796556D01*
X159354592Y-122796556D01*
X159580138Y-123342417D01*
X159997406Y-123760414D01*
X160542873Y-123986912D01*
X161133496Y-123987428D01*
X161679357Y-123761882D01*
X162097354Y-123344614D01*
X162323852Y-122799147D01*
X162324368Y-122208524D01*
X162098822Y-121662663D01*
X161681554Y-121244666D01*
X161136087Y-121018168D01*
X160545464Y-121017652D01*
X159999603Y-121243198D01*
X159581606Y-121660466D01*
X159355108Y-122205933D01*
X159354592Y-122796556D01*
X158546744Y-122796556D01*
X158547042Y-122456139D01*
X158334810Y-121942497D01*
X157942170Y-121549171D01*
X157734288Y-121462851D01*
X157940103Y-121377810D01*
X158333429Y-120985170D01*
X158546557Y-120471900D01*
X158547042Y-119916139D01*
X158334810Y-119402497D01*
X158256145Y-119323694D01*
X159205226Y-119323694D01*
X159453538Y-119924655D01*
X159912927Y-120384846D01*
X160513453Y-120634206D01*
X161163694Y-120634774D01*
X161764655Y-120386462D01*
X161999363Y-120152163D01*
X170027443Y-120152163D01*
X170126042Y-120418965D01*
X170735582Y-120645401D01*
X171385377Y-120621341D01*
X171873958Y-120418965D01*
X171972557Y-120152163D01*
X171000000Y-119179605D01*
X170027443Y-120152163D01*
X161999363Y-120152163D01*
X162224846Y-119927073D01*
X162474206Y-119326547D01*
X162474722Y-118735582D01*
X169354599Y-118735582D01*
X169378659Y-119385377D01*
X169581035Y-119873958D01*
X169847837Y-119972557D01*
X170820395Y-119000000D01*
X171179605Y-119000000D01*
X172152163Y-119972557D01*
X172418965Y-119873958D01*
X172645401Y-119264418D01*
X172621341Y-118614623D01*
X172418965Y-118126042D01*
X172152163Y-118027443D01*
X171179605Y-119000000D01*
X170820395Y-119000000D01*
X169847837Y-118027443D01*
X169581035Y-118126042D01*
X169354599Y-118735582D01*
X162474722Y-118735582D01*
X162474774Y-118676306D01*
X162226462Y-118075345D01*
X161999351Y-117847837D01*
X170027443Y-117847837D01*
X171000000Y-118820395D01*
X171972557Y-117847837D01*
X171873958Y-117581035D01*
X171264418Y-117354599D01*
X170614623Y-117378659D01*
X170126042Y-117581035D01*
X170027443Y-117847837D01*
X161999351Y-117847837D01*
X161767073Y-117615154D01*
X161166547Y-117365794D01*
X160516306Y-117365226D01*
X159915345Y-117613538D01*
X159455154Y-118072927D01*
X159205794Y-118673453D01*
X159205226Y-119323694D01*
X158256145Y-119323694D01*
X157942170Y-119009171D01*
X157734288Y-118922851D01*
X157940103Y-118837810D01*
X158333429Y-118445170D01*
X158546557Y-117931900D01*
X158547042Y-117376139D01*
X158334810Y-116862497D01*
X157942170Y-116469171D01*
X157750073Y-116389405D01*
X157880943Y-116335197D01*
X157950408Y-116093013D01*
X157149800Y-115292405D01*
X156349192Y-116093013D01*
X156418657Y-116335197D01*
X156559118Y-116385309D01*
X156359497Y-116467790D01*
X155966171Y-116860430D01*
X155753043Y-117373700D01*
X155752558Y-117929461D01*
X155964790Y-118443103D01*
X156357430Y-118836429D01*
X156565312Y-118922749D01*
X156359497Y-119007790D01*
X155966171Y-119400430D01*
X155952730Y-119432800D01*
X150371900Y-119432800D01*
X150081061Y-119490652D01*
X149834499Y-119655399D01*
X142410481Y-127079417D01*
X142380200Y-127066843D01*
X141824439Y-127066358D01*
X141310797Y-127278590D01*
X140917471Y-127671230D01*
X140837705Y-127863327D01*
X140783497Y-127732457D01*
X140541313Y-127662992D01*
X139740705Y-128463600D01*
X140541313Y-129264208D01*
X140783497Y-129194743D01*
X140833609Y-129054282D01*
X140916090Y-129253903D01*
X141308730Y-129647229D01*
X141358271Y-129667800D01*
X140297462Y-129667800D01*
X140361708Y-129443813D01*
X139561100Y-128643205D01*
X138760492Y-129443813D01*
X138824738Y-129667800D01*
X137764960Y-129667800D01*
X137811403Y-129648610D01*
X138204729Y-129255970D01*
X138284495Y-129063873D01*
X138338703Y-129194743D01*
X138580887Y-129264208D01*
X139381495Y-128463600D01*
X138580887Y-127662992D01*
X138338703Y-127732457D01*
X138288591Y-127872918D01*
X138206110Y-127673297D01*
X138016532Y-127483387D01*
X138760492Y-127483387D01*
X139561100Y-128283995D01*
X140361708Y-127483387D01*
X140292243Y-127241203D01*
X139768798Y-127054456D01*
X139213732Y-127082238D01*
X138829957Y-127241203D01*
X138760492Y-127483387D01*
X138016532Y-127483387D01*
X137813470Y-127279971D01*
X137300200Y-127066843D01*
X136744439Y-127066358D01*
X136230797Y-127278590D01*
X135837471Y-127671230D01*
X135751151Y-127879112D01*
X135666110Y-127673297D01*
X135273470Y-127279971D01*
X134760200Y-127066843D01*
X134204439Y-127066358D01*
X133690797Y-127278590D01*
X133297471Y-127671230D01*
X133211151Y-127879112D01*
X133126110Y-127673297D01*
X132733470Y-127279971D01*
X132220200Y-127066843D01*
X131664439Y-127066358D01*
X131150797Y-127278590D01*
X130757471Y-127671230D01*
X130682200Y-127852503D01*
X130682200Y-125171200D01*
X130630057Y-124909062D01*
X130481568Y-124686832D01*
X130035527Y-124240791D01*
X129877767Y-114905102D01*
X155740656Y-114905102D01*
X155768438Y-115460168D01*
X155927403Y-115843943D01*
X156169587Y-115913408D01*
X156970195Y-115112800D01*
X157329405Y-115112800D01*
X158130013Y-115913408D01*
X158372197Y-115843943D01*
X158389103Y-115796556D01*
X159354592Y-115796556D01*
X159580138Y-116342417D01*
X159997406Y-116760414D01*
X160542873Y-116986912D01*
X161133496Y-116987428D01*
X161679357Y-116761882D01*
X162097354Y-116344614D01*
X162131434Y-116262540D01*
X163186260Y-116262540D01*
X163477099Y-116204688D01*
X163723661Y-116039941D01*
X163975312Y-115788290D01*
X169514850Y-115788290D01*
X169514850Y-116478480D01*
X169611523Y-116711869D01*
X169790152Y-116890497D01*
X170023541Y-116987170D01*
X170713730Y-116987170D01*
X170872480Y-116828420D01*
X170872480Y-115629540D01*
X171126480Y-115629540D01*
X171126480Y-116828420D01*
X171285230Y-116987170D01*
X171975419Y-116987170D01*
X172208808Y-116890497D01*
X172387437Y-116711869D01*
X172484110Y-116478480D01*
X172484110Y-115788290D01*
X172325360Y-115629540D01*
X171126480Y-115629540D01*
X170872480Y-115629540D01*
X169673600Y-115629540D01*
X169514850Y-115788290D01*
X163975312Y-115788290D01*
X165237002Y-114526600D01*
X169514850Y-114526600D01*
X169514850Y-115216790D01*
X169673600Y-115375540D01*
X170872480Y-115375540D01*
X170872480Y-114176660D01*
X171126480Y-114176660D01*
X171126480Y-115375540D01*
X172325360Y-115375540D01*
X172484110Y-115216790D01*
X172484110Y-114526600D01*
X172387437Y-114293211D01*
X172208808Y-114114583D01*
X171975419Y-114017910D01*
X171285230Y-114017910D01*
X171126480Y-114176660D01*
X170872480Y-114176660D01*
X170713730Y-114017910D01*
X170023541Y-114017910D01*
X169790152Y-114114583D01*
X169611523Y-114293211D01*
X169514850Y-114526600D01*
X165237002Y-114526600D01*
X167001062Y-112762540D01*
X169502410Y-112762540D01*
X169502410Y-112852170D01*
X169546688Y-113087487D01*
X169685760Y-113303611D01*
X169897960Y-113448601D01*
X170149850Y-113499610D01*
X171849110Y-113499610D01*
X172084427Y-113455332D01*
X172300551Y-113316260D01*
X172445541Y-113104060D01*
X172496550Y-112852170D01*
X172496550Y-112807736D01*
X174638342Y-112807736D01*
X174663961Y-113417860D01*
X174848157Y-113862548D01*
X175104641Y-113948954D01*
X176005195Y-113048400D01*
X176364405Y-113048400D01*
X177264959Y-113948954D01*
X177521443Y-113862548D01*
X177731258Y-113289064D01*
X177705639Y-112678940D01*
X177521443Y-112234252D01*
X177264959Y-112147846D01*
X176364405Y-113048400D01*
X176005195Y-113048400D01*
X175104641Y-112147846D01*
X174848157Y-112234252D01*
X174638342Y-112807736D01*
X172496550Y-112807736D01*
X172496550Y-111968241D01*
X175284246Y-111968241D01*
X176184800Y-112868795D01*
X177085354Y-111968241D01*
X176998948Y-111711757D01*
X176425464Y-111501942D01*
X175815340Y-111527561D01*
X175370652Y-111711757D01*
X175284246Y-111968241D01*
X172496550Y-111968241D01*
X172496550Y-111152910D01*
X172452272Y-110917593D01*
X172313200Y-110701469D01*
X172101000Y-110556479D01*
X171849110Y-110505470D01*
X170149850Y-110505470D01*
X169914533Y-110549748D01*
X169698409Y-110688820D01*
X169553419Y-110901020D01*
X169502410Y-111152910D01*
X169502410Y-111242540D01*
X166686260Y-111242540D01*
X166443674Y-111290794D01*
X166395420Y-111300392D01*
X166148859Y-111465139D01*
X162871458Y-114742540D01*
X162131827Y-114742540D01*
X162098822Y-114662663D01*
X161681554Y-114244666D01*
X161136087Y-114018168D01*
X160545464Y-114017652D01*
X159999603Y-114243198D01*
X159581606Y-114660466D01*
X159355108Y-115205933D01*
X159354592Y-115796556D01*
X158389103Y-115796556D01*
X158558944Y-115320498D01*
X158531162Y-114765432D01*
X158372197Y-114381657D01*
X158130013Y-114312192D01*
X157329405Y-115112800D01*
X156970195Y-115112800D01*
X156169587Y-114312192D01*
X155927403Y-114381657D01*
X155740656Y-114905102D01*
X129877767Y-114905102D01*
X129716870Y-105383800D01*
X151790400Y-105383800D01*
X152052538Y-105331657D01*
X152274768Y-105183168D01*
X152423257Y-104960938D01*
X152475400Y-104698800D01*
X152475400Y-85598000D01*
X152423257Y-85335862D01*
X152274768Y-85113632D01*
X152052538Y-84965143D01*
X151790400Y-84913000D01*
X129370942Y-84913000D01*
X129305965Y-81067907D01*
X129624730Y-81387229D01*
X130138000Y-81600357D01*
X130693761Y-81600842D01*
X131207403Y-81388610D01*
X131600729Y-80995970D01*
X131687049Y-80788088D01*
X131772090Y-80993903D01*
X132164730Y-81387229D01*
X132678000Y-81600357D01*
X133233761Y-81600842D01*
X133321703Y-81564505D01*
X134946199Y-83189001D01*
X135192761Y-83353748D01*
X135483600Y-83411600D01*
X150865998Y-83411600D01*
X153164000Y-85709602D01*
X153164000Y-106629200D01*
X153221852Y-106920039D01*
X153386599Y-107166601D01*
X155520199Y-109300201D01*
X155766761Y-109464948D01*
X155864842Y-109484458D01*
X155753043Y-109753700D01*
X155752558Y-110309461D01*
X155964790Y-110823103D01*
X156357430Y-111216429D01*
X156565312Y-111302749D01*
X156359497Y-111387790D01*
X155966171Y-111780430D01*
X155753043Y-112293700D01*
X155752558Y-112849461D01*
X155964790Y-113363103D01*
X156357430Y-113756429D01*
X156549527Y-113836195D01*
X156418657Y-113890403D01*
X156349192Y-114132587D01*
X157149800Y-114933195D01*
X157950408Y-114132587D01*
X157880943Y-113890403D01*
X157740482Y-113840291D01*
X157940103Y-113757810D01*
X158333429Y-113365170D01*
X158546557Y-112851900D01*
X158547041Y-112296556D01*
X159354592Y-112296556D01*
X159580138Y-112842417D01*
X159997406Y-113260414D01*
X160542873Y-113486912D01*
X161133496Y-113487428D01*
X161679357Y-113261882D01*
X162097354Y-112844614D01*
X162323852Y-112299147D01*
X162324368Y-111708524D01*
X162098822Y-111162663D01*
X161681554Y-110744666D01*
X161136087Y-110518168D01*
X160545464Y-110517652D01*
X159999603Y-110743198D01*
X159581606Y-111160466D01*
X159355108Y-111705933D01*
X159354592Y-112296556D01*
X158547041Y-112296556D01*
X158547042Y-112296139D01*
X158334810Y-111782497D01*
X157942170Y-111389171D01*
X157734288Y-111302851D01*
X157940103Y-111217810D01*
X158333429Y-110825170D01*
X158546557Y-110311900D01*
X158547042Y-109756139D01*
X158372748Y-109334314D01*
X158423801Y-109300201D01*
X159205493Y-108518509D01*
X159205226Y-108823694D01*
X159453538Y-109424655D01*
X159912927Y-109884846D01*
X160513453Y-110134206D01*
X161163694Y-110134774D01*
X161764655Y-109886462D01*
X162224846Y-109427073D01*
X162474206Y-108826547D01*
X162474774Y-108176306D01*
X162226462Y-107575345D01*
X161767073Y-107115154D01*
X161166547Y-106865794D01*
X160858477Y-106865525D01*
X161089293Y-106634709D01*
X161163694Y-106634774D01*
X161764655Y-106386462D01*
X162224846Y-105927073D01*
X162474206Y-105326547D01*
X162474774Y-104676306D01*
X162226462Y-104075345D01*
X161767073Y-103615154D01*
X161166547Y-103365794D01*
X160516306Y-103365226D01*
X159915345Y-103613538D01*
X159455154Y-104072927D01*
X159205794Y-104673453D01*
X159205226Y-105323694D01*
X159453538Y-105924655D01*
X159551555Y-106022843D01*
X158491845Y-107082553D01*
X158334810Y-106702497D01*
X157942170Y-106309171D01*
X157734288Y-106222851D01*
X157940103Y-106137810D01*
X158333429Y-105745170D01*
X158546557Y-105231900D01*
X158547042Y-104676139D01*
X158334810Y-104162497D01*
X157942170Y-103769171D01*
X157734288Y-103682851D01*
X157940103Y-103597810D01*
X158333429Y-103205170D01*
X158546557Y-102691900D01*
X158547042Y-102136139D01*
X158417943Y-101823694D01*
X159205226Y-101823694D01*
X159453538Y-102424655D01*
X159912927Y-102884846D01*
X160513453Y-103134206D01*
X161163694Y-103134774D01*
X161764655Y-102886462D01*
X162224846Y-102427073D01*
X162474206Y-101826547D01*
X162474774Y-101176306D01*
X162226462Y-100575345D01*
X161767073Y-100115154D01*
X161166547Y-99865794D01*
X160516306Y-99865226D01*
X159915345Y-100113538D01*
X159455154Y-100572927D01*
X159205794Y-101173453D01*
X159205226Y-101823694D01*
X158417943Y-101823694D01*
X158334810Y-101622497D01*
X157942170Y-101229171D01*
X157734288Y-101142851D01*
X157940103Y-101057810D01*
X158333429Y-100665170D01*
X158546557Y-100151900D01*
X158547042Y-99596139D01*
X158334810Y-99082497D01*
X157942170Y-98689171D01*
X157734288Y-98602851D01*
X157940103Y-98517810D01*
X158333429Y-98125170D01*
X158546557Y-97611900D01*
X158547042Y-97056139D01*
X158334810Y-96542497D01*
X157942170Y-96149171D01*
X157734288Y-96062851D01*
X157940103Y-95977810D01*
X158333429Y-95585170D01*
X158546557Y-95071900D01*
X158546773Y-94823694D01*
X159205226Y-94823694D01*
X159453538Y-95424655D01*
X159912927Y-95884846D01*
X160513453Y-96134206D01*
X161163694Y-96134774D01*
X161764655Y-95886462D01*
X162224846Y-95427073D01*
X162474206Y-94826547D01*
X162474774Y-94176306D01*
X162226462Y-93575345D01*
X161767073Y-93115154D01*
X161166547Y-92865794D01*
X160516306Y-92865226D01*
X159915345Y-93113538D01*
X159455154Y-93572927D01*
X159205794Y-94173453D01*
X159205226Y-94823694D01*
X158546773Y-94823694D01*
X158547042Y-94516139D01*
X158334810Y-94002497D01*
X157942170Y-93609171D01*
X157734288Y-93522851D01*
X157940103Y-93437810D01*
X158333429Y-93045170D01*
X158546557Y-92531900D01*
X158547042Y-91976139D01*
X158334810Y-91462497D01*
X158196250Y-91323694D01*
X159205226Y-91323694D01*
X159453538Y-91924655D01*
X159912927Y-92384846D01*
X160513453Y-92634206D01*
X161163694Y-92634774D01*
X161764655Y-92386462D01*
X162224846Y-91927073D01*
X162474206Y-91326547D01*
X162474774Y-90676306D01*
X162226462Y-90075345D01*
X161767073Y-89615154D01*
X161166547Y-89365794D01*
X160516306Y-89365226D01*
X159915345Y-89613538D01*
X159455154Y-90072927D01*
X159205794Y-90673453D01*
X159205226Y-91323694D01*
X158196250Y-91323694D01*
X157942170Y-91069171D01*
X157734288Y-90982851D01*
X157940103Y-90897810D01*
X158333429Y-90505170D01*
X158546557Y-89991900D01*
X158547042Y-89436139D01*
X158334810Y-88922497D01*
X157942170Y-88529171D01*
X157734288Y-88442851D01*
X157940103Y-88357810D01*
X158333429Y-87965170D01*
X158546557Y-87451900D01*
X158547042Y-86896139D01*
X158334810Y-86382497D01*
X157942170Y-85989171D01*
X157734288Y-85902851D01*
X157940103Y-85817810D01*
X158333429Y-85425170D01*
X158546557Y-84911900D01*
X158547042Y-84356139D01*
X158334810Y-83842497D01*
X157942170Y-83449171D01*
X157428900Y-83236043D01*
X156873139Y-83235558D01*
X156563600Y-83363457D01*
X156563600Y-82055902D01*
X157031719Y-81587783D01*
X157062000Y-81600357D01*
X157617761Y-81600842D01*
X158131403Y-81388610D01*
X158524729Y-80995970D01*
X158611049Y-80788088D01*
X158696090Y-80993903D01*
X159088730Y-81387229D01*
X159602000Y-81600357D01*
X160129615Y-81600817D01*
X161046888Y-82518090D01*
X160545464Y-82517652D01*
X159999603Y-82743198D01*
X159581606Y-83160466D01*
X159355108Y-83705933D01*
X159354592Y-84296556D01*
X159580138Y-84842417D01*
X159997406Y-85260414D01*
X160542873Y-85486912D01*
X161133496Y-85487428D01*
X161679357Y-85261882D01*
X161901600Y-85040027D01*
X161901600Y-85365618D01*
X161215906Y-86051312D01*
X161136087Y-86018168D01*
X160545464Y-86017652D01*
X159999603Y-86243198D01*
X159581606Y-86660466D01*
X159355108Y-87205933D01*
X159354592Y-87796556D01*
X159580138Y-88342417D01*
X159997406Y-88760414D01*
X160542873Y-88986912D01*
X161133496Y-88987428D01*
X161192603Y-88963005D01*
X162714400Y-90484802D01*
X162714400Y-95050798D01*
X161331083Y-96434115D01*
X161166547Y-96365794D01*
X160516306Y-96365226D01*
X159915345Y-96613538D01*
X159455154Y-97072927D01*
X159205794Y-97673453D01*
X159205226Y-98323694D01*
X159453538Y-98924655D01*
X159912927Y-99384846D01*
X160513453Y-99634206D01*
X161163694Y-99634774D01*
X161764655Y-99386462D01*
X162224846Y-98927073D01*
X162474206Y-98326547D01*
X162474774Y-97676306D01*
X162405691Y-97509111D01*
X164011801Y-95903001D01*
X164176548Y-95656440D01*
X164234400Y-95365600D01*
X164234400Y-94823694D01*
X169365226Y-94823694D01*
X169613538Y-95424655D01*
X170072927Y-95884846D01*
X170673453Y-96134206D01*
X171323694Y-96134774D01*
X171924655Y-95886462D01*
X172384846Y-95427073D01*
X172634206Y-94826547D01*
X172634774Y-94176306D01*
X172386462Y-93575345D01*
X171927073Y-93115154D01*
X171326547Y-92865794D01*
X170676306Y-92865226D01*
X170075345Y-93113538D01*
X169615154Y-93572927D01*
X169365794Y-94173453D01*
X169365226Y-94823694D01*
X164234400Y-94823694D01*
X164234400Y-90170000D01*
X164176548Y-89879161D01*
X164011801Y-89632599D01*
X162641742Y-88262540D01*
X167499480Y-88262540D01*
X167790319Y-88204688D01*
X168036881Y-88039941D01*
X168288532Y-87788290D01*
X169514850Y-87788290D01*
X169514850Y-88478480D01*
X169611523Y-88711869D01*
X169790152Y-88890497D01*
X170023541Y-88987170D01*
X170713730Y-88987170D01*
X170872480Y-88828420D01*
X170872480Y-87629540D01*
X169673600Y-87629540D01*
X169514850Y-87788290D01*
X168288532Y-87788290D01*
X169514850Y-86561972D01*
X169514850Y-87216790D01*
X169673600Y-87375540D01*
X170872480Y-87375540D01*
X170872480Y-86176660D01*
X170713730Y-86017910D01*
X170058912Y-86017910D01*
X170577212Y-85499610D01*
X171849110Y-85499610D01*
X172084427Y-85455332D01*
X172300551Y-85316260D01*
X172445541Y-85104060D01*
X172496550Y-84852170D01*
X172496550Y-83152910D01*
X172452272Y-82917593D01*
X172313200Y-82701469D01*
X172101000Y-82556479D01*
X171849110Y-82505470D01*
X170149850Y-82505470D01*
X169914533Y-82549748D01*
X169698409Y-82688820D01*
X169553419Y-82901020D01*
X169502410Y-83152910D01*
X169502410Y-84424808D01*
X167184678Y-86742540D01*
X162674282Y-86742540D01*
X163199001Y-86217821D01*
X163363748Y-85971259D01*
X163421600Y-85680420D01*
X163421600Y-83058000D01*
X163363748Y-82767161D01*
X163199001Y-82520599D01*
X162278878Y-81600476D01*
X162697761Y-81600842D01*
X163211403Y-81388610D01*
X163604729Y-80995970D01*
X163691049Y-80788088D01*
X163776090Y-80993903D01*
X164168730Y-81387229D01*
X164682000Y-81600357D01*
X165237761Y-81600842D01*
X165751403Y-81388610D01*
X166144729Y-80995970D01*
X166231049Y-80788088D01*
X166316090Y-80993903D01*
X166708730Y-81387229D01*
X167222000Y-81600357D01*
X167777761Y-81600842D01*
X168291403Y-81388610D01*
X168684729Y-80995970D01*
X168897857Y-80482700D01*
X168898342Y-79926939D01*
X168686110Y-79413297D01*
X168342813Y-79069400D01*
X180263800Y-79069400D01*
X180263800Y-101591998D01*
M02*
